<?xml version="1.0" standalone="no"?>
<!DOCTYPE svg PUBLIC "-//W3C//DTD SVG 1.1//EN" "http://www.w3.org/Graphics/SVG/1.1/DTD/svg11.dtd" >
<svg xmlns="http://www.w3.org/2000/svg">
<metadata></metadata>
<defs>
<font id="moon_flowerregular" horiz-adv-x="739" >
<font-face units-per-em="2048" ascent="1638" descent="-410" />
<missing-glyph horiz-adv-x="508" />
<glyph horiz-adv-x="0" />
<glyph unicode="&#xd;" horiz-adv-x="508" />
<glyph unicode=" "  horiz-adv-x="508" />
<glyph unicode="&#x09;" horiz-adv-x="508" />
<glyph unicode="&#xa0;" horiz-adv-x="508" />
<glyph unicode="!" horiz-adv-x="445" d="M171 1410q0 24 28 24q6 0 16 -16l-4 -20q76 -443 76 -692q0 -82 4 -416l-12 -8h-12q-8 2 -16 20q-4 289 -4 428l-4 48q4 7 4 16q0 112 -76 616zM223 50q0 23 36 40q28 0 28 -28q-7 -48 -36 -48q-28 12 -28 36z" />
<glyph unicode="&#x22;" horiz-adv-x="672" d="M212 1234q16 76 24 232l-12 20v8q8 16 20 16q32 -4 32 -32q-10 -256 -40 -256h-12q-6 0 -12 12zM360 1510q0 6 16 16h8q32 0 32 -224v-36q0 -3 4 -24q0 -24 -28 -24q-20 0 -20 252q-4 0 -12 40z" />
<glyph unicode="#" horiz-adv-x="985" d="M144 459v8q0 20 116 32q8 22 52 328h-8q-89 -20 -132 -20q-12 15 -12 28q0 6 16 16l20 -4q49 8 120 24q16 276 44 276h12q20 -10 20 -32q-23 0 -32 -220q-4 0 -4 -12h4q171 32 196 40q20 129 20 196v44q0 6 16 16h8q6 0 16 -16v-44q0 -30 -16 -192h4q80 12 148 12h8l24 4 q17 -5 24 -20v-12q0 -5 -20 -20q-4 0 -32 8h-16q-148 0 -148 -24q0 -10 -52 -308h4q118 28 152 28h16q6 0 16 -16v-8q0 -6 -16 -16h-12q-172 -23 -172 -40q-48 -268 -48 -380v-20q0 -31 -20 -40h-12q-8 2 -16 20q8 13 8 24v16q0 117 48 380q-188 -44 -188 -48 q-32 -222 -32 -312q8 -25 8 -32q-6 -16 -12 -16h-20q-16 7 -16 28q0 80 28 324h-4q-83 -16 -96 -16zM304 515h8q180 40 184 44q28 131 56 320q-200 -33 -200 -48q-40 -287 -48 -316z" />
<glyph unicode="$" horiz-adv-x="766" d="M137 883v48q0 196 136 319v5q0 114 -23 181q0 7 19 18h9q43 -18 43 -186h4l28 4h15q40 0 61 -31v-8q0 -7 -19 -18l-47 13h-14q-28 0 -28 -26q-100 0 -137 -253v-71q0 -195 132 -230q20 -8 150 -18q184 -81 184 -217q-19 -117 -66 -168q-63 -68 -136 -115q0 -57 9 -364 q-15 -13 -23 -13q-13 0 -24 22l-9 332q-93 -31 -109 -31h-23q-26 0 -43 27v13q0 7 15 14h4q34 -9 38 -9q122 26 122 57q3 0 19 5l10 -5q107 62 150 155q19 67 19 89q-32 177 -287 177q-165 56 -165 186q-13 25 -14 98z" />
<glyph unicode="%" horiz-adv-x="999" d="M137 900q0 60 60 100l28 -4q15 8 36 8q96 -17 96 -92q0 -54 -84 -88q-18 -8 -52 -8h-4q-80 0 -80 84zM177 896q0 -40 32 -40h12q96 10 96 64q-16 44 -60 44q-13 0 -40 -20h-16l-8 4q-16 -42 -16 -52zM361 204q6 175 188 744q100 280 100 332l12 8q28 0 28 -28 q0 -22 -176 -560q-108 -376 -108 -472q-4 0 -4 -4q4 -8 4 -12q-5 -28 -16 -28h-12q-16 8 -16 20zM609 452v12q39 44 84 44q94 0 152 -112v-32q-29 -108 -108 -108h-20q-67 0 -92 64q-8 28 -8 48v28q0 28 8 44q-16 0 -16 12zM653 380q9 -84 56 -84h24q72 19 72 72v4 q0 69 -116 96h-4q0 -4 -4 -4l4 -8v-8q-32 -25 -32 -68z" />
<glyph unicode="&#x26;" horiz-adv-x="760" d="M165 398q0 181 116 384q-116 168 -116 220v12q0 74 132 100q18 8 52 8q108 -15 108 -96v-12q0 -47 -128 -228v-4q58 -118 176 -272h4q21 196 56 196h12q6 0 16 -16l-24 -52q-28 -152 -28 -184q152 -201 172 -236v-4q0 -6 -16 -16q-23 0 -64 68q-18 18 -104 136 q-57 -196 -172 -196q-106 0 -168 92q-24 53 -24 100zM205 394q0 -128 152 -148q99 0 140 208q-87 107 -196 288q-96 -196 -96 -348zM205 1010q0 -57 100 -184h4q108 160 108 188v4q-8 64 -64 64q-148 -14 -148 -72z" />
<glyph unicode="'" horiz-adv-x="346" d="M109 1103q36 120 68 256l12 8h12q6 0 16 -16q-44 -195 -76 -260l-8 -4h-8q-6 0 -16 16z" />
<glyph unicode="(" horiz-adv-x="431" d="M116 786q0 348 96 609l16 18h8q6 0 16 -25v-6q0 -14 -32 -92q-64 -243 -64 -510q0 -280 124 -811q28 -88 128 -264v-6q-8 -28 -16 -31q-29 0 -120 203q-74 193 -144 688q-12 195 -12 227z" />
<glyph unicode=")" horiz-adv-x="451" d="M34 1356v16q0 8 16 20h8q8 0 40 -77q72 -109 120 -321q48 -227 48 -404v-72q0 -480 -120 -766l-16 -5q-16 8 -16 15v11q112 312 112 710v107q0 253 -92 557z" />
<glyph unicode="*" horiz-adv-x="766" d="M245 1161q0 31 76 48v4q-60 65 -60 84v4q0 6 16 16h8l44 -48v8q-28 94 -28 108l16 12h8q18 0 40 -104l36 64h20q6 0 12 -12v-4q-36 -79 -36 -104q56 20 132 36h8q6 0 12 -12v-12q0 -13 -148 -52v-4q0 -3 140 -140v-16q0 -6 -12 -12h-4q-19 0 -96 84l-16 12v-4 q20 -76 20 -88q-6 -16 -12 -16h-16q-9 0 -40 124h-4q-25 -116 -48 -116h-4q-6 0 -16 16l36 132h-4q-58 -24 -64 -24t-16 16z" />
<glyph unicode="+" horiz-adv-x="821" d="M184 804v12q0 22 152 36q-4 87 -12 140q0 24 28 24q19 0 24 -156q149 16 224 16h24q6 0 12 -12v-16q0 -6 -12 -12h-28q-81 0 -216 -16v-4q0 -60 20 -220l-12 -8h-16q-20 0 -32 224h-4q-14 0 -128 -20h-12q-6 0 -12 12z" />
<glyph unicode="," horiz-adv-x="493" d="M171 -136q28 49 56 164q16 12 24 12q18 -8 20 -16q-28 -94 -60 -176q-15 -12 -24 -12q-16 6 -16 12v16z" />
<glyph unicode="-" horiz-adv-x="670" d="M171 682v16q0 20 148 28q0 4 52 4q112 -11 112 -28v-12q0 -6 -16 -16q-70 16 -108 16q-34 0 -180 -20z" />
<glyph unicode="." horiz-adv-x="397" d="M158 50v12q17 31 28 36h16q6 0 16 -16v-16q-25 -32 -40 -32q-18 8 -20 16z" />
<glyph unicode="/" horiz-adv-x="569" d="M0 24q32 64 240 608q158 330 264 588l20 16h12q6 0 16 -16v-8q-30 -35 -120 -268q-160 -314 -388 -932q-15 -12 -28 -12q-16 8 -16 24z" />
<glyph unicode="0" horiz-adv-x="732" d="M143 1001q0 118 96 305q56 21 96 25q83 0 164 -112q60 -132 60 -330q11 -52 20 -381q-4 -92 -4 -214q0 -183 -128 -242l-40 -4h-8q-53 0 -132 91q-124 167 -124 862zM183 943q0 -440 76 -714q59 -121 140 -145h12q101 0 124 196v4q0 102 4 217q0 470 -64 678 q-66 112 -132 112q0 4 -12 4q-92 -37 -92 -80q-56 -137 -56 -217v-55z" />
<glyph unicode="1" horiz-adv-x="575" d="M130 1304q11 54 124 140h12q83 0 112 -680q32 -416 32 -616v-128q-10 -20 -32 -20q0 6 -12 12l4 48v96q-43 1111 -100 1228l-4 16q-69 -43 -96 -108l-20 -4h-4q-6 0 -16 16z" />
<glyph unicode="2" horiz-adv-x="670" d="M123 1220v16q51 101 128 128q92 28 132 32q126 0 180 -140l4 -28q0 -138 -112 -384q-88 -284 -144 -568q-12 -70 -52 -228h4q196 28 236 28h16q6 0 16 -16v-12q0 -6 -12 -12h-20q-61 0 -268 -36l-12 16v12q0 19 76 364q99 450 192 636q40 125 40 196q0 85 -112 128 q-10 0 -32 4q-188 -42 -188 -84q-21 -22 -36 -64l-8 -4q-21 0 -28 16z" />
<glyph unicode="3" horiz-adv-x="636" d="M130 1389v12q0 6 16 16h12q4 0 4 -4l8 4q195 0 248 -124q5 -6 8 -40q-29 -264 -100 -348q-12 -22 -12 -36q101 0 172 -200q28 -83 28 -148q0 -324 -160 -436q-53 -52 -120 -60q-7 -4 -16 -4h-4q-6 0 -16 16v8q0 15 96 40q136 117 136 164q44 111 44 268v4q0 120 -88 264 q-46 48 -104 48q-8 -4 -12 -4q-18 8 -20 16v12q95 120 128 320q8 67 8 76q0 70 -120 116q-45 8 -72 8q-2 0 -52 -4z" />
<glyph unicode="4" horiz-adv-x="588" d="M137 769q0 56 44 528l-4 28q17 16 32 16q12 -13 12 -20q0 -43 -44 -524v-28q0 -21 8 -96h4q60 8 100 8h92q0 193 -40 532q8 25 20 28h8q6 0 16 -16v-4q0 -9 -4 -16q14 0 40 -520q16 -2 16 -12v-12l-12 -16q24 -239 40 -620l-20 -12q-24 8 -24 32v8q0 4 4 4l-4 8 q0 203 -36 576h-112q-40 0 -104 -16h-8q-16 0 -24 144z" />
<glyph unicode="5" horiz-adv-x="643" d="M62 1314v24q0 6 16 16h8l16 -12q138 20 176 20h4q31 0 40 -20v-12l-8 -12q-6 0 -48 4q-117 -12 -156 -20l44 -380h8q201 0 304 -216q48 -131 48 -216q0 -319 -228 -456q-21 -20 -40 -20q-18 7 -28 24v8q0 6 16 16q9 0 16 -4q157 95 200 248q24 70 24 196q0 99 -76 252 q-101 132 -268 132q-21 0 -56 392q-2 23 -12 36z" />
<glyph unicode="6" horiz-adv-x="691" d="M137 683q0 271 144 552q39 52 76 52q6 0 16 -16v-8l-48 -40q-39 -50 -84 -176q-52 -173 -52 -228q39 24 76 24h8q103 0 212 -192q56 -169 56 -324q0 -119 -80 -228q-26 -24 -52 -24h-20q-120 0 -228 380q-16 103 -24 228zM177 679q0 -175 72 -376q88 -192 148 -192 q70 0 104 208q0 280 -120 416q-62 68 -124 68q-64 0 -80 -124z" />
<glyph unicode="7" horiz-adv-x="671" d="M82 1278v4q0 6 16 16q20 -1 20 -8q21 8 84 8h320q40 -3 40 -24q-132 -436 -240 -892l-88 -340q0 -26 -12 -28h-16q-6 0 -12 12v16q0 14 64 252q136 567 240 900q4 7 16 64h-340q-68 -8 -76 -8q-16 7 -16 28z" />
<glyph unicode="8" horiz-adv-x="643" d="M123 262v8q0 96 100 284q-96 140 -96 316q0 212 124 364q39 20 68 56q13 8 20 8q76 0 112 -200v-24q0 -123 -152 -436q-28 -68 -28 -76v-4q244 -267 244 -352v-16q0 -101 -172 -128q-113 0 -196 116q-24 42 -24 84zM163 266q0 -108 148 -160q10 0 32 -4q132 19 132 96 q0 83 -224 316h-4q-84 -168 -84 -240v-8zM167 870q0 -148 72 -268h4q0 10 120 280q48 119 48 196q0 97 -64 176h-8q0 -20 -68 -56q-104 -146 -104 -328z" />
<glyph unicode="9" horiz-adv-x="670" d="M130 1036q0 158 120 277q43 29 96 29h4q67 -5 80 -48h8l12 10h12q39 0 60 -938q4 0 12 -196h-4l4 -10v-29q0 -27 4 -76q-8 -22 -16 -24h-12q-20 0 -20 278q-8 112 -24 598h-8q-54 -163 -180 -163q-120 0 -140 187q-4 80 -8 105zM170 1041q14 -225 52 -225q0 -11 56 -24 q113 0 156 172q16 68 16 105l-12 177h-20q-32 48 -64 48h-4q-117 0 -164 -167q-8 -18 -16 -86z" />
<glyph unicode=":" horiz-adv-x="557" d="M274 929v16q0 6 24 24h8q32 -3 32 -28l-4 -8l4 -8q-12 -28 -36 -28h-8q-20 10 -20 32zM278 441v8q0 28 28 28q24 0 24 -28v-16q0 -6 -16 -16h-4q-22 0 -32 24z" />
<glyph unicode=";" horiz-adv-x="557" d="M192 304q48 171 60 180h24q6 0 12 -12v-12q-16 -19 -60 -168l-8 -4h-16q-6 0 -12 16zM224 876v16q0 32 32 32h4q24 -2 24 -12v-8q0 -39 -36 -44q-16 0 -24 16z" />
<glyph unicode="&#x3c;" horiz-adv-x="1014" d="M233 631q28 70 204 220q154 153 184 168h8q6 0 16 -16q0 -28 -52 -52q0 -11 -248 -236q-64 -79 -64 -84q104 -114 248 -200q162 -121 176 -140v-8q0 -6 -16 -16h-12l-380 284q-64 62 -64 80z" />
<glyph unicode="=" horiz-adv-x="1014" d="M123 495v8q0 25 232 32l448 16q52 0 52 -12v-24l-4 -8l-48 4q-53 0 -620 -24q-26 -8 -36 -8h-8q-6 0 -16 16zM155 791v8q0 6 16 16q21 0 84 -8q107 4 304 8q112 -4 236 -4l8 -12v-16l-12 -16q-143 8 -184 8q-263 -4 -380 -4q-72 0 -72 20z" />
<glyph unicode="&#x3e;" horiz-adv-x="1014" d="M315 351q0 19 112 132q179 213 268 292q-179 131 -368 300q-12 21 -12 48l16 12h8q11 -4 28 -44q176 -152 376 -304l8 -16q0 -6 -96 -88q-113 -133 -312 -348h-12q-6 0 -16 16z" />
<glyph unicode="?" horiz-adv-x="664" d="M130 1148v56q0 102 160 148h16q78 0 148 -68q56 -71 56 -132v-28q0 -201 -112 -384q-32 -66 -32 -208q8 -66 8 -104v-44q0 -21 -16 -28h-12q-10 0 -12 16q0 18 4 24q0 5 -12 136q0 201 80 308q68 145 68 292q0 85 -80 152q-62 28 -96 28q-128 -35 -128 -112v-36l12 -16 v-4q0 -21 -16 -28h-16q-20 10 -20 32zM310 60q2 13 36 32h12q5 0 20 -20v-20q0 -32 -32 -32t-36 40z" />
<glyph unicode="@" horiz-adv-x="917" d="M164 919q0 192 152 324q61 48 116 48h8q119 0 208 -168q52 -92 80 -316q4 -23 4 -64v-12q0 -86 -56 -96h-4q-27 0 -76 168h-4q0 -248 -120 -248q-137 0 -160 288q0 208 108 264q37 12 56 12q29 0 68 -28q24 0 44 -128q56 -193 92 -276h4q8 36 8 52v4q0 183 -92 392 q-85 116 -156 116h-16q-81 0 -172 -140q-48 -87 -52 -200q24 -323 52 -460q93 -240 264 -240q124 30 124 68q17 10 56 144l8 4h8q6 0 16 -16v-12q-31 -140 -88 -184q-74 -44 -128 -44q-205 0 -304 292q-48 356 -48 456zM352 855q0 -190 92 -252q7 0 24 -8q84 0 84 192v24 q-19 256 -36 256q-4 0 -40 12q-93 0 -120 -160q-4 -41 -4 -64z" />
<glyph unicode="A" d="M130 44q31 422 31 508q-4 55 -4 111q2 288 48 609q19 93 58 93h4q57 -26 97 -141q111 -344 164 -879q35 -174 35 -305q-5 -13 -27 -13q-16 31 -48 318q-9 31 -40 265l-31 4q-216 -20 -216 -44v-155l-27 -371q9 -14 9 -26q0 -7 -18 -18q-35 0 -35 44zM201 623 q126 35 243 35v5q0 122 -133 578q-29 63 -48 71q-58 -224 -58 -579q-4 0 -4 -97v-13z" />
<glyph unicode="B" horiz-adv-x="599" d="M116 1400q67 56 132 56q124 0 152 -260v-76q-20 -140 -128 -300q-3 -1 -24 -28v-4q81 -30 132 -116q53 -79 72 -244q0 -208 -88 -352q-57 -63 -112 -76h-8q-56 0 -56 136q-48 689 -48 1060q-8 108 -24 204zM160 1380q32 -249 32 -712q16 -188 40 -612l16 -16 q83 34 116 120q48 134 48 268q-32 192 -52 192q-27 78 -120 132q-34 0 -48 24v12q129 145 168 324v64q-20 240 -112 240q-50 0 -88 -36z" />
<glyph unicode="C" horiz-adv-x="636" d="M130 804v24q7 405 132 500q59 28 76 28h28q72 -13 72 -52q0 -6 -16 -16h-16q-26 32 -56 32q-100 -35 -100 -64q-80 -152 -80 -416v-68q0 -178 48 -428q29 -183 80 -248q62 -54 108 -56q59 0 128 88h12q6 0 12 -12v-8q0 -36 -88 -92q-37 -16 -68 -16h-4q-59 7 -124 64 q-71 56 -124 456q-20 86 -20 284z" />
<glyph unicode="D" horiz-adv-x="612" d="M123 1432h4q159 -52 244 -204q128 -261 128 -536v-20q0 -392 -284 -640q-36 -12 -48 -12q-11 0 -16 64l4 8q-12 92 -16 260h4l-4 8v4q0 158 4 288zM167 1368q4 -452 16 -712q-4 -107 -4 -220v-48q0 -152 16 -320q93 80 172 208q92 205 92 384v40q0 251 -124 512 q-89 134 -168 160v-4z" />
<glyph unicode="E" horiz-adv-x="575" d="M164 1363l16 12h44q23 0 64 4l8 -4q4 0 4 4q128 -12 128 -28v-4q-7 -20 -20 -20l-116 12q-11 0 -80 -4l4 -48q0 -65 20 -528h28q33 0 52 4q90 -8 132 -8l12 -16v-12q0 -12 -16 -12q-35 0 -116 8q-54 -4 -92 -4v-16q0 -282 28 -652q4 0 4 -4q151 8 180 8q17 -5 24 -20v-4 q0 -6 -16 -16q-152 -4 -184 -8q-48 0 -48 52q-28 382 -28 636v128q-20 352 -20 476q-12 60 -12 64z" />
<glyph unicode="F" horiz-adv-x="561" d="M137 1345q16 12 44 12q164 -8 240 -8l8 -12q0 -28 -24 -28q-103 4 -228 4l20 -500v-4l4 -48q62 8 120 8h104q8 0 12 -24l-20 -16h-112q-100 0 -100 -16v-44q0 -58 8 -480v-44l4 -24q0 -4 -4 -4l4 -40v-44q0 -6 -12 -12h-12q-6 0 -16 16q-15 840 -24 840h4l-4 8 q-16 314 -16 460z" />
<glyph unicode="G" horiz-adv-x="732" d="M164 592q0 659 132 716l40 4h8q76 0 120 -56v-8q0 -6 -16 -16q-8 0 -52 28q-26 12 -56 12h-16q-120 -29 -120 -684q0 -309 72 -472q23 -48 92 -76h16q72 14 72 60q14 0 40 240v196l-4 20q-4 0 -4 -4q-160 12 -160 24l-4 20v4q0 6 12 12h12q13 -10 172 -24q16 -16 16 -76 v-100q0 -23 -4 -64q4 -8 4 -12q-27 -316 -92 -316q0 -8 -60 -20h-16q-65 15 -116 76q-88 167 -88 516z" />
<glyph unicode="H" horiz-adv-x="599" d="M144 847q12 446 12 568q-4 16 -4 28l16 12h8q20 -12 20 -32q0 -74 -12 -600v-72l4 -8q26 8 212 12q-4 145 -4 208v184q0 9 -4 16l4 8q4 192 4 296l16 12h8q16 -8 16 -20q0 -188 -8 -292l8 -416q8 -13 8 -20q-4 -12 -8 -12q8 -187 12 -652q-4 -21 -4 -80l-12 -8h-12 l-16 12q0 43 4 68q-4 547 -12 656q-188 -4 -212 -12q8 -74 8 -148q0 -159 -4 -280q4 -68 4 -264q-13 -8 -24 -8q-6 0 -16 16v36q0 163 -4 220q4 98 4 240v60q-12 196 -12 272z" />
<glyph unicode="I" horiz-adv-x="424" d="M185 108q0 694 24 956v112q0 93 -12 168q0 6 16 16h8q28 0 28 -212v-52q0 -78 -24 -404q0 -16 4 -32q-4 -209 -4 -332v-260q0 -8 8 -40q-5 -28 -16 -28h-16q-16 0 -16 108z" />
<glyph unicode="J" horiz-adv-x="486" d="M55 256q13 12 20 12q20 -6 20 -28q0 -188 60 -188q21 -12 40 -12h4q68 0 84 228v20q-8 210 -8 252v48q0 221 -4 572q-8 54 -8 116v28q0 5 20 20q11 0 24 -8q0 -2 -4 -52q12 -149 12 -704v-28q0 -39 8 -256q-15 -276 -120 -276h-16q-108 27 -108 68q-20 11 -24 188z" />
<glyph unicode="K" horiz-adv-x="629" d="M116 1388v12q0 6 16 16h8q6 0 16 -16v-20q12 -115 72 -540q12 -138 12 -160h4q140 541 140 660v40q0 4 -4 32l16 12q22 0 28 -16v-20q0 -176 -80 -468q-16 -77 -68 -272q59 0 200 -380q33 -100 56 -244v-12q0 -6 -12 -12h-12q-20 10 -20 32v4q0 4 4 4q-52 241 -112 368 q-88 208 -136 208l36 -608l-12 -8h-16q-5 0 -20 20v4q0 11 8 24q-37 651 -68 936q-56 318 -56 404z" />
<glyph unicode="L" horiz-adv-x="575" d="M137 1416q6 20 28 20h4q6 0 16 -16q0 -20 -8 -20l4 -8q28 -436 28 -736q12 -97 12 -268v-348h216q6 0 12 -12v-12q0 -16 -68 -16h-184q-6 0 -16 16v24q0 28 4 28l-4 48v292q-16 527 -32 876z" />
<glyph unicode="M" horiz-adv-x="725" d="M102 1374l23 12q24 -8 257 -641h11q0 43 198 618h12l10 -19l1 -40q-11 -358 -11 -605q0 -95 35 -687l-24 -12q-23 0 -46 652v489h-12q-145 -451 -163 -465q-35 2 -221 524h-12v-12l58 -1153l-23 -12q-23 0 -23 24q-35 1046 -70 1327z" />
<glyph unicode="N" horiz-adv-x="684" d="M124 665v693q4 23 23 23q22 0 181 -545q23 -129 194 -648h11v34q-23 486 -23 546q0 18 5 122q-1 12 -1 47q8 79 8 126v284q3 23 22 23l23 -12q-11 -227 -11 -341v-113q0 -348 22 -898l-22 -11q-23 0 -284 886l-105 361l-8 13l-1 -22q7 -84 7 -132l1 -34q-8 -222 -8 -311 q0 -448 34 -738h-23q-22 0 -22 22q-23 349 -23 625z" />
<glyph unicode="O" horiz-adv-x="622" d="M96 564q0 563 140 780q37 28 68 28q113 0 180 -540q4 -51 4 -132v-16q0 -14 -4 -36q4 -5 4 -28v-4q0 -23 -4 -28q4 -21 4 -24q0 -422 -116 -520q-41 -16 -56 -16h-28q-144 35 -180 372zM136 576q0 -226 60 -396q56 -112 100 -112h4q81 0 104 112q44 104 44 444v80 q0 235 -84 540q-30 67 -60 88q-47 -18 -56 -44q-112 -237 -112 -712z" />
<glyph unicode="P" horiz-adv-x="555" d="M151 496q4 16 16 16q-8 106 -8 128l20 728q-8 0 -8 8v12q0 6 16 16q187 0 256 -172q12 -39 16 -92q0 -250 -88 -548q-41 -71 -116 -108q-48 -3 -48 -12v-4q0 -53 4 -88q-4 -35 -4 -40q12 -226 12 -260q12 -2 12 -32v-12q-12 -31 -24 -36h-8q-6 0 -16 16v28q0 4 4 4 q-7 39 -12 104q0 4 4 4l-12 168q4 40 4 60q-4 73 -4 92q-16 8 -16 20zM199 640q4 -84 4 -116l8 -4q46 0 92 48q69 44 112 492q4 73 4 96q0 104 -120 188q-35 12 -80 20z" />
<glyph unicode="Q" horiz-adv-x="692" d="M151 944q0 353 84 420q67 36 92 36q75 0 116 -220q68 -219 68 -596v-204q0 -65 -24 -180q108 -167 108 -184v-4q0 -6 -12 -12h-12q-29 21 -96 152h-8q-27 -56 -76 -56q-174 0 -220 384q-20 187 -20 464zM191 944q0 -660 116 -760q24 -48 84 -48q31 0 52 60 q-116 174 -116 184v4q0 6 16 16h8q19 -13 100 -144h8q12 84 12 108v244q0 405 -112 724q-2 0 -28 24h-4q-71 -21 -80 -40q-56 -75 -56 -372z" />
<glyph unicode="R" horiz-adv-x="595" d="M123 1464l16 12h8q11 -14 72 -24q76 -31 124 -112q68 -165 68 -244v-40q0 -262 -152 -380q176 -42 204 -416v-152q0 -34 4 -100l-12 -8h-12l-16 12q-4 80 -4 120v144q0 150 -92 308q-64 60 -112 60h-4q4 -86 4 -128v-152q8 -198 8 -224v-8q-8 -16 -24 -16q-6 0 -20 16 l4 28q-8 169 -8 224v240q-17 0 -24 16v12q8 16 20 16q-20 549 -52 796zM171 1420q24 -292 44 -724q156 106 156 340v56q0 105 -88 268q-66 60 -100 60h-12z" />
<glyph unicode="S" horiz-adv-x="575" d="M82 1044q0 128 48 228q55 79 216 79l12 -15v-7q0 -5 -20 -19h-40q-106 0 -144 -79q-32 -87 -32 -194q0 -66 56 -214q20 -40 216 -217q100 -144 100 -284q0 -111 -48 -217q-22 -50 -120 -86q-35 -19 -56 -19t-28 15v11q0 11 44 15q132 50 132 105q36 72 36 187 q0 151 -136 296q-107 81 -160 157q-36 39 -72 206q0 20 -4 52z" />
<glyph unicode="T" horiz-adv-x="616" d="M82 1281q0 6 16 14q28 -7 32 -7q77 7 108 7h164q51 0 104 7l12 -14v-10q0 -17 -112 -17h-112q-6 0 -12 -14l8 -183q-4 -25 -4 -28q36 -605 36 -867q4 -7 4 -11q-4 -6 -4 -10l4 -24q-6 -14 -12 -14h-16q-4 0 -16 14q0 7 4 38q0 86 -36 864q0 127 -8 231l-8 4h-12l-128 -11 q-12 13 -12 31z" />
<glyph unicode="U" horiz-adv-x="698" d="M185 1396l16 12h8q20 -10 20 -32v-20q36 -651 88 -1048q35 -268 108 -268q52 22 52 76q0 157 -32 792q4 116 4 224v96l-4 24l4 8q-4 54 -12 112l16 12h12q17 0 24 -112q0 -8 -4 -8q4 -60 4 -88v-128l-4 -24q0 -4 4 -4q-4 -47 -4 -68v-16q32 -696 32 -820 q-11 -116 -104 -116q-108 0 -144 384q-44 342 -84 1012z" />
<glyph unicode="V" horiz-adv-x="633" d="M157 1336q0 6 16 16h8q36 0 36 -312q51 -572 96 -836h4q0 82 112 1036q8 136 24 136h16q6 0 12 -16l-120 -1072q-15 -284 -24 -284l-8 -4h-12q-19 0 -44 228q-104 660 -104 1056z" />
<glyph unicode="W" horiz-adv-x="846" d="M151 1264q0 6 16 16h16q18 0 44 -228q72 -474 96 -604l40 -216h4q33 528 44 556l20 4q20 0 36 -156q19 -97 104 -372l36 -128l8 4q24 717 56 1168l12 8h12q6 0 12 -12q-44 -870 -56 -1200q-13 -72 -28 -72h-8q-21 0 -76 200q-104 337 -104 372h-4q-32 -464 -32 -596 l-12 -8h-12q-16 0 -32 136q-88 414 -176 1072q-3 0 -16 56z" />
<glyph unicode="X" horiz-adv-x="835" d="M123 1308v4l16 12h8q16 0 100 -224l168 -360q12 0 52 344q32 240 48 292h20q6 0 12 -12v-12q-40 -260 -96 -688q131 -252 216 -476l84 -168v-4q0 -6 -16 -16h-4q-31 0 -36 44q-62 107 -180 408q-6 1 -72 144h-8q-16 -83 -92 -396q-21 -124 -32 -124h-20q-6 0 -16 16 q132 532 132 572q-185 378 -284 644z" />
<glyph unicode="Y" horiz-adv-x="650" d="M109 1224v8q0 6 16 16h16q13 -5 24 -40q160 -198 264 -420h4q44 381 64 516l12 8h8q6 0 16 -16v-4q-32 -286 -68 -560l4 -24v-12q-14 0 -44 -396q-12 -198 -28 -296l-8 -4h-12q-8 2 -16 20q44 527 64 688q-108 235 -284 472q-32 23 -32 44z" />
<glyph unicode="Z" horiz-adv-x="725" d="M157 1192q0 6 16 16h8q0 -15 256 -24q72 -8 72 -36v-4q-88 -241 -212 -728q-88 -238 -88 -364q33 -8 108 -8q39 0 176 4q28 -3 28 -8l8 4h8q6 0 16 -16v-12q0 -8 -24 -16q-33 8 -64 8q-57 0 -184 -4q-67 8 -112 8q-8 13 -8 20q0 99 92 388q24 68 132 484q48 134 76 232 q-50 11 -288 24q-16 17 -16 32z" />
<glyph unicode="[" horiz-adv-x="664" d="M102 1227q5 39 244 56q0 6 84 20l12 -16v-8q-15 -35 -256 -52q0 -2 -44 -16l44 -480q30 -244 60 -720q8 -24 12 -24q297 -16 312 -16l12 -20q-1 -11 -20 -20l-20 4q-58 0 -308 12q-35 0 -48 388q-84 872 -84 892z" />
<glyph unicode="\" horiz-adv-x="569" d="M0 1208v16q0 6 12 12h16q18 0 128 -256q188 -372 380 -872q40 -80 40 -92q0 -6 -16 -16h-12q-15 1 -44 84q-182 451 -308 720q-71 133 -184 392q-6 0 -12 12z" />
<glyph unicode="]" horiz-adv-x="705" d="M151 1217q6 17 20 24h8q18 -16 20 -16q10 0 104 4q16 0 72 -4q22 4 36 4q60 -5 60 -36q-3 -28 -8 -28q12 -143 12 -256v-272q0 -266 36 -720q0 -11 -20 -20q-75 16 -160 24q-15 -4 -32 -4q-24 3 -24 24q6 16 12 16h52q72 0 128 -16v4q-16 170 -32 688v280q0 28 -8 268v8 h-4q-36 0 -48 -4q-44 4 -80 4q-31 0 -112 -4q-32 6 -32 32z" />
<glyph unicode="^" horiz-adv-x="1014" d="M185 755v24q32 25 48 68q114 196 252 360q13 8 24 8q66 -55 224 -232q132 -176 160 -204q0 -21 -12 -24h-16q-36 30 -180 224q-170 179 -180 184q-118 -132 -204 -284q-70 -130 -92 -140h-8q-6 0 -16 16z" />
<glyph unicode="_" horiz-adv-x="1177" d="M62 -100q0 6 16 16q26 0 40 -4q274 8 388 8q420 -24 552 -24h16q6 0 12 -12v-12l-12 -16q-208 4 -568 24q-362 -4 -384 -8q-60 4 -60 20v8z" />
<glyph unicode="`" horiz-adv-x="346" d="M48 1242q10 14 15 14h14q102 -72 213 -114q11 -11 11 -20q0 -11 -18 -20h-8q-115 37 -212 111q-15 12 -15 29z" />
<glyph unicode="a" d="M130 44q31 422 31 508q-4 55 -4 111q2 288 48 609q19 93 58 93h4q57 -26 97 -141q111 -344 164 -879q35 -174 35 -305q-5 -13 -27 -13q-16 31 -48 318q-9 31 -40 265l-31 4q-216 -20 -216 -44v-155l-27 -371q9 -14 9 -26q0 -7 -18 -18q-35 0 -35 44zM201 623 q126 35 243 35v5q0 122 -133 578q-29 63 -48 71q-58 -224 -58 -579q-4 0 -4 -97v-13z" />
<glyph unicode="b" horiz-adv-x="599" d="M116 1400q67 56 132 56q124 0 152 -260v-76q-20 -140 -128 -300q-3 -1 -24 -28v-4q81 -30 132 -116q53 -79 72 -244q0 -208 -88 -352q-57 -63 -112 -76h-8q-56 0 -56 136q-48 689 -48 1060q-8 108 -24 204zM160 1380q32 -249 32 -712q16 -188 40 -612l16 -16 q83 34 116 120q48 134 48 268q-32 192 -52 192q-27 78 -120 132q-34 0 -48 24v12q129 145 168 324v64q-20 240 -112 240q-50 0 -88 -36z" />
<glyph unicode="c" horiz-adv-x="636" d="M130 804v24q7 405 132 500q59 28 76 28h28q72 -13 72 -52q0 -6 -16 -16h-16q-26 32 -56 32q-100 -35 -100 -64q-80 -152 -80 -416v-68q0 -178 48 -428q29 -183 80 -248q62 -54 108 -56q59 0 128 88h12q6 0 12 -12v-8q0 -36 -88 -92q-37 -16 -68 -16h-4q-59 7 -124 64 q-71 56 -124 456q-20 86 -20 284z" />
<glyph unicode="d" horiz-adv-x="612" d="M123 1432h4q159 -52 244 -204q128 -261 128 -536v-20q0 -392 -284 -640q-36 -12 -48 -12q-11 0 -16 64l4 8q-12 92 -16 260h4l-4 8v4q0 158 4 288zM167 1368q4 -452 16 -712q-4 -107 -4 -220v-48q0 -152 16 -320q93 80 172 208q92 205 92 384v40q0 251 -124 512 q-89 134 -168 160v-4z" />
<glyph unicode="e" horiz-adv-x="575" d="M164 1363l16 12h44q23 0 64 4l8 -4q4 0 4 4q128 -12 128 -28v-4q-7 -20 -20 -20l-116 12q-11 0 -80 -4l4 -48q0 -65 20 -528h28q33 0 52 4q90 -8 132 -8l12 -16v-12q0 -12 -16 -12q-35 0 -116 8q-54 -4 -92 -4v-16q0 -282 28 -652q4 0 4 -4q151 8 180 8q17 -5 24 -20v-4 q0 -6 -16 -16q-152 -4 -184 -8q-48 0 -48 52q-28 382 -28 636v128q-20 352 -20 476q-12 60 -12 64z" />
<glyph unicode="f" horiz-adv-x="561" d="M137 1345q16 12 44 12q164 -8 240 -8l8 -12q0 -28 -24 -28q-103 4 -228 4l20 -500v-4l4 -48q62 8 120 8h104q8 0 12 -24l-20 -16h-112q-100 0 -100 -16v-44q0 -58 8 -480v-44l4 -24q0 -4 -4 -4l4 -40v-44q0 -6 -12 -12h-12q-6 0 -16 16q-15 840 -24 840h4l-4 8 q-16 314 -16 460z" />
<glyph unicode="g" horiz-adv-x="732" d="M164 592q0 659 132 716l40 4h8q76 0 120 -56v-8q0 -6 -16 -16q-8 0 -52 28q-26 12 -56 12h-16q-120 -29 -120 -684q0 -309 72 -472q23 -48 92 -76h16q72 14 72 60q14 0 40 240v196l-4 20q-4 0 -4 -4q-160 12 -160 24l-4 20v4q0 6 12 12h12q13 -10 172 -24q16 -16 16 -76 v-100q0 -23 -4 -64q4 -8 4 -12q-27 -316 -92 -316q0 -8 -60 -20h-16q-65 15 -116 76q-88 167 -88 516z" />
<glyph unicode="h" horiz-adv-x="599" d="M144 847q12 446 12 568q-4 16 -4 28l16 12h8q20 -12 20 -32q0 -74 -12 -600v-72l4 -8q26 8 212 12q-4 145 -4 208v184q0 9 -4 16l4 8q4 192 4 296l16 12h8q16 -8 16 -20q0 -188 -8 -292l8 -416q8 -13 8 -20q-4 -12 -8 -12q8 -187 12 -652q-4 -21 -4 -80l-12 -8h-12 l-16 12q0 43 4 68q-4 547 -12 656q-188 -4 -212 -12q8 -74 8 -148q0 -159 -4 -280q4 -68 4 -264q-13 -8 -24 -8q-6 0 -16 16v36q0 163 -4 220q4 98 4 240v60q-12 196 -12 272z" />
<glyph unicode="i" horiz-adv-x="424" d="M185 108q0 694 24 956v112q0 93 -12 168q0 6 16 16h8q28 0 28 -212v-52q0 -78 -24 -404q0 -16 4 -32q-4 -209 -4 -332v-260q0 -8 8 -40q-5 -28 -16 -28h-16q-16 0 -16 108z" />
<glyph unicode="j" horiz-adv-x="486" d="M55 256q13 12 20 12q20 -6 20 -28q0 -188 60 -188q21 -12 40 -12h4q68 0 84 228v20q-8 210 -8 252v48q0 221 -4 572q-8 54 -8 116v28q0 5 20 20q11 0 24 -8q0 -2 -4 -52q12 -149 12 -704v-28q0 -39 8 -256q-15 -276 -120 -276h-16q-108 27 -108 68q-20 11 -24 188z" />
<glyph unicode="k" horiz-adv-x="629" d="M116 1388v12q0 6 16 16h8q6 0 16 -16v-20q12 -115 72 -540q12 -138 12 -160h4q140 541 140 660v40q0 4 -4 32l16 12q22 0 28 -16v-20q0 -176 -80 -468q-16 -77 -68 -272q59 0 200 -380q33 -100 56 -244v-12q0 -6 -12 -12h-12q-20 10 -20 32v4q0 4 4 4q-52 241 -112 368 q-88 208 -136 208l36 -608l-12 -8h-16q-5 0 -20 20v4q0 11 8 24q-37 651 -68 936q-56 318 -56 404z" />
<glyph unicode="l" horiz-adv-x="575" d="M137 1416q6 20 28 20h4q6 0 16 -16q0 -20 -8 -20l4 -8q28 -436 28 -736q12 -97 12 -268v-348h216q6 0 12 -12v-12q0 -16 -68 -16h-184q-6 0 -16 16v24q0 28 4 28l-4 48v292q-16 527 -32 876z" />
<glyph unicode="m" horiz-adv-x="725" d="M102 1374l23 12q24 -8 257 -641h11q0 43 198 618h12l10 -19l1 -40q-11 -358 -11 -605q0 -95 35 -687l-24 -12q-23 0 -46 652v489h-12q-145 -451 -163 -465q-35 2 -221 524h-12v-12l58 -1153l-23 -12q-23 0 -23 24q-35 1046 -70 1327z" />
<glyph unicode="n" horiz-adv-x="684" d="M124 665v693q4 23 23 23q22 0 181 -545q23 -129 194 -648h11v34q-23 486 -23 546q0 18 5 122q-1 12 -1 47q8 79 8 126v284q3 23 22 23l23 -12q-11 -227 -11 -341v-113q0 -348 22 -898l-22 -11q-23 0 -284 886l-105 361l-8 13l-1 -22q7 -84 7 -132l1 -34q-8 -222 -8 -311 q0 -448 34 -738h-23q-22 0 -22 22q-23 349 -23 625z" />
<glyph unicode="o" horiz-adv-x="622" d="M96 564q0 563 140 780q37 28 68 28q113 0 180 -540q4 -51 4 -132v-16q0 -14 -4 -36q4 -5 4 -28v-4q0 -23 -4 -28q4 -21 4 -24q0 -422 -116 -520q-41 -16 -56 -16h-28q-144 35 -180 372zM136 576q0 -226 60 -396q56 -112 100 -112h4q81 0 104 112q44 104 44 444v80 q0 235 -84 540q-30 67 -60 88q-47 -18 -56 -44q-112 -237 -112 -712z" />
<glyph unicode="p" horiz-adv-x="555" d="M151 496q4 16 16 16q-8 106 -8 128l20 728q-8 0 -8 8v12q0 6 16 16q187 0 256 -172q12 -39 16 -92q0 -250 -88 -548q-41 -71 -116 -108q-48 -3 -48 -12v-4q0 -53 4 -88q-4 -35 -4 -40q12 -226 12 -260q12 -2 12 -32v-12q-12 -31 -24 -36h-8q-6 0 -16 16v28q0 4 4 4 q-7 39 -12 104q0 4 4 4l-12 168q4 40 4 60q-4 73 -4 92q-16 8 -16 20zM199 640q4 -84 4 -116l8 -4q46 0 92 48q69 44 112 492q4 73 4 96q0 104 -120 188q-35 12 -80 20z" />
<glyph unicode="q" horiz-adv-x="692" d="M151 944q0 353 84 420q67 36 92 36q75 0 116 -220q68 -219 68 -596v-204q0 -65 -24 -180q108 -167 108 -184v-4q0 -6 -12 -12h-12q-29 21 -96 152h-8q-27 -56 -76 -56q-174 0 -220 384q-20 187 -20 464zM191 944q0 -660 116 -760q24 -48 84 -48q31 0 52 60 q-116 174 -116 184v4q0 6 16 16h8q19 -13 100 -144h8q12 84 12 108v244q0 405 -112 724q-2 0 -28 24h-4q-71 -21 -80 -40q-56 -75 -56 -372z" />
<glyph unicode="r" horiz-adv-x="595" d="M123 1464l16 12h8q11 -14 72 -24q76 -31 124 -112q68 -165 68 -244v-40q0 -262 -152 -380q176 -42 204 -416v-152q0 -34 4 -100l-12 -8h-12l-16 12q-4 80 -4 120v144q0 150 -92 308q-64 60 -112 60h-4q4 -86 4 -128v-152q8 -198 8 -224v-8q-8 -16 -24 -16q-6 0 -20 16 l4 28q-8 169 -8 224v240q-17 0 -24 16v12q8 16 20 16q-20 549 -52 796zM171 1420q24 -292 44 -724q156 106 156 340v56q0 105 -88 268q-66 60 -100 60h-12z" />
<glyph unicode="s" horiz-adv-x="575" d="M82 1044q0 128 48 228q55 79 216 79l12 -15v-7q0 -5 -20 -19h-40q-106 0 -144 -79q-32 -87 -32 -194q0 -66 56 -214q20 -40 216 -217q100 -144 100 -284q0 -111 -48 -217q-22 -50 -120 -86q-35 -19 -56 -19t-28 15v11q0 11 44 15q132 50 132 105q36 72 36 187 q0 151 -136 296q-107 81 -160 157q-36 39 -72 206q0 20 -4 52z" />
<glyph unicode="t" horiz-adv-x="616" d="M82 1281q0 6 16 14q28 -7 32 -7q77 7 108 7h164q51 0 104 7l12 -14v-10q0 -17 -112 -17h-112q-6 0 -12 -14l8 -183q-4 -25 -4 -28q36 -605 36 -867q4 -7 4 -11q-4 -6 -4 -10l4 -24q-6 -14 -12 -14h-16q-4 0 -16 14q0 7 4 38q0 86 -36 864q0 127 -8 231l-8 4h-12l-128 -11 q-12 13 -12 31z" />
<glyph unicode="u" horiz-adv-x="698" d="M185 1396l16 12h8q20 -10 20 -32v-20q36 -651 88 -1048q35 -268 108 -268q52 22 52 76q0 157 -32 792q4 116 4 224v96l-4 24l4 8q-4 54 -12 112l16 12h12q17 0 24 -112q0 -8 -4 -8q4 -60 4 -88v-128l-4 -24q0 -4 4 -4q-4 -47 -4 -68v-16q32 -696 32 -820 q-11 -116 -104 -116q-108 0 -144 384q-44 342 -84 1012z" />
<glyph unicode="v" horiz-adv-x="633" d="M157 1336q0 6 16 16h8q36 0 36 -312q51 -572 96 -836h4q0 82 112 1036q8 136 24 136h16q6 0 12 -16l-120 -1072q-15 -284 -24 -284l-8 -4h-12q-19 0 -44 228q-104 660 -104 1056z" />
<glyph unicode="w" horiz-adv-x="846" d="M151 1264q0 6 16 16h16q18 0 44 -228q72 -474 96 -604l40 -216h4q33 528 44 556l20 4q20 0 36 -156q19 -97 104 -372l36 -128l8 4q24 717 56 1168l12 8h12q6 0 12 -12q-44 -870 -56 -1200q-13 -72 -28 -72h-8q-21 0 -76 200q-104 337 -104 372h-4q-32 -464 -32 -596 l-12 -8h-12q-16 0 -32 136q-88 414 -176 1072q-3 0 -16 56z" />
<glyph unicode="x" horiz-adv-x="835" d="M123 1308v4l16 12h8q16 0 100 -224l168 -360q12 0 52 344q32 240 48 292h20q6 0 12 -12v-12q-40 -260 -96 -688q131 -252 216 -476l84 -168v-4q0 -6 -16 -16h-4q-31 0 -36 44q-62 107 -180 408q-6 1 -72 144h-8q-16 -83 -92 -396q-21 -124 -32 -124h-20q-6 0 -16 16 q132 532 132 572q-185 378 -284 644z" />
<glyph unicode="y" horiz-adv-x="650" d="M109 1224v8q0 6 16 16h16q13 -5 24 -40q160 -198 264 -420h4q44 381 64 516l12 8h8q6 0 16 -16v-4q-32 -286 -68 -560l4 -24v-12q-14 0 -44 -396q-12 -198 -28 -296l-8 -4h-12q-8 2 -16 20q44 527 64 688q-108 235 -284 472q-32 23 -32 44z" />
<glyph unicode="z" horiz-adv-x="725" d="M157 1192q0 6 16 16h8q0 -15 256 -24q72 -8 72 -36v-4q-88 -241 -212 -728q-88 -238 -88 -364q33 -8 108 -8q39 0 176 4q28 -3 28 -8l8 4h8q6 0 16 -16v-12q0 -8 -24 -16q-33 8 -64 8q-57 0 -184 -4q-67 8 -112 8q-8 13 -8 20q0 99 92 388q24 68 132 484q48 134 76 232 q-50 11 -288 24q-16 17 -16 32z" />
<glyph unicode="{" horiz-adv-x="534" d="M109 695l88 72q24 30 24 76q-56 186 -56 412v4q0 223 180 312h8q6 0 16 -16v-16q0 -7 -64 -40q-100 -80 -100 -240v-8q0 -213 52 -388v-52q0 -58 -92 -124q101 -49 112 -252v-84q0 -98 -4 -280q0 -60 56 -128q119 -68 120 -76v-12q0 -6 -12 -12q-74 14 -160 100 q-44 72 -44 128v4q4 154 4 240v120q0 172 -108 228q-20 10 -20 32z" />
<glyph unicode="|" horiz-adv-x="1014" d="M424 -196q0 1048 24 1444v169q0 141 -12 254q0 9 16 24h8q28 0 28 -320v-79q0 -117 -24 -610q0 -25 4 -48q-4 -316 -4 -502v-392q0 -12 8 -61q-5 -42 -16 -42h-16q-16 0 -16 163z" />
<glyph unicode="}" horiz-adv-x="602" d="M82 1571l16 12q156 -46 212 -144q52 -102 52 -292h-4l4 -8v-16q0 -4 -4 -4l4 -8v-16q0 -103 -12 -232q0 -76 80 -152v-12q-52 -38 -52 -76q-4 -24 -4 -60q44 -471 44 -544q0 -187 -92 -220q-26 -8 -36 -8h-16q-6 0 -12 12v16q0 11 56 20q60 28 60 184q0 74 -44 536 q0 114 40 148v4q-64 72 -64 156q12 118 12 188v52q0 300 -88 360q-41 47 -148 76z" />
<glyph unicode="~" d="M103 795q47 92 116 92q56 0 200 -80h32q35 0 52 48l-4 8v16q0 6 16 16h16q6 0 12 -12v-4q0 -85 -68 -108q-7 -4 -20 -4q-74 0 -152 56q-59 24 -84 24q-47 0 -84 -80h-16q-16 7 -16 28z" />
<glyph unicode="&#xa1;" horiz-adv-x="445" d="M171 748l12 8h12q8 -2 16 -20q4 -289 4 -428l4 -48q-4 -7 -4 -16q0 -112 76 -616q0 -24 -28 -24q-6 0 -16 16l4 20q-76 443 -76 692q0 82 -4 416zM175 976q7 48 36 48q28 -12 28 -36q0 -23 -36 -40q-28 0 -28 28z" />
<glyph unicode="&#xa2;" horiz-adv-x="629" d="M0 24q32 64 240 608q158 330 264 588l20 16h12q6 0 16 -16v-8q-30 -35 -120 -268q-160 -314 -388 -932q-15 -12 -28 -12q-16 8 -16 24zM89 776v24q7 405 132 500q59 28 76 28h28q72 -13 72 -52q0 -6 -16 -16h-16q-26 32 -56 32q-100 -35 -100 -64q-80 -152 -80 -416v-68 q0 -178 48 -428q29 -183 80 -248q62 -54 108 -56q59 0 128 88h12q6 0 12 -12v-8q0 -36 -88 -92q-37 -16 -68 -16h-4q-59 7 -124 64q-71 56 -124 456q-20 86 -20 284z" />
<glyph unicode="&#xa3;" horiz-adv-x="842" d="M123 131v4q0 78 120 436v84q-104 21 -104 48q0 21 20 32h8q29 -35 72 -40v4q-52 245 -52 372q0 176 120 236h16q60 0 60 -20v-8q0 -6 -16 -16q-2 0 -52 4q-88 -56 -88 -192v-24q0 -106 56 -364q153 -20 204 -32l8 -12v-8q-8 -16 -20 -16q-64 12 -192 24v-40 q0 -63 -60 -224q-60 -197 -60 -236v-16q36 24 100 24q39 0 440 -56q36 6 36 32l8 4h16q6 0 12 -12q-6 -60 -60 -60h-32l-412 52h-16q-73 0 -88 -52l-8 -4h-16q-20 0 -20 76z" />
<glyph unicode="&#xa4;" horiz-adv-x="1014" d="M122 413l118 117q-32 46 -48 103q-12 42 -12 84q0 44 13 87q16 55 47 99l-118 118l80 81l118 -118q44 30 99 46q44 14 89 14q41 0 83 -12q57 -17 102 -48l118 118l80 -81l-117 -117q31 -46 48 -102q12 -42 12 -85q0 -42 -12 -85q-17 -56 -48 -102l117 -117l-80 -81 l-118 118q-45 -32 -101 -48q-42 -12 -85 -12q-42 0 -85 12q-57 16 -102 48l-118 -118zM284 716q0 -28 9 -56q16 -59 57 -100q41 -40 99 -57q29 -8 58 -8t58 8q58 17 99 57q40 41 57 99q9 29 9 58t-9 58q-17 58 -57 99q-41 40 -100 57q-29 8 -58 8t-58 -9q-58 -17 -98 -56 q-39 -40 -56 -98q-10 -30 -10 -60z" />
<glyph unicode="&#xa5;" horiz-adv-x="848" d="M89 1175q0 6 16 16q52 -4 328 -336q28 -40 32 -40h4l108 356q19 28 24 28h8q16 -8 16 -20q-28 -74 -128 -412h4q50 12 132 12q6 0 16 -16v-8q0 -6 -16 -16h-8q-71 0 -144 -16q4 -60 4 -88v-32l208 36q26 -10 28 -20v-12q-2 -8 -20 -16l-16 8q-181 -32 -196 -40 q0 -190 8 -456l-12 -8h-12q-10 0 -16 28q-8 289 -8 428h-4q-109 -11 -140 -24q-6 0 -16 16q0 38 112 44q16 0 48 8q0 15 -8 120q-100 -12 -148 -12l-8 12v12q8 16 20 16q61 0 144 16v8q-89 121 -300 348q-60 33 -60 60z" />
<glyph unicode="&#xa6;" horiz-adv-x="1014" d="M427 371h160v-789h-160v789zM427 789v789h160v-789h-160z" />
<glyph unicode="&#xa7;" horiz-adv-x="1014" d="M170 1130q0 148 89 237q82 79 216 86q8 1 17 1h3q66 0 163 -16.5t97 -41.5v-194h-51q-5 81 -80 132q-70 47 -149 51h-15q-78 0 -125 -44.5t-47 -117.5q0 -132 287 -269q149 -67 204.5 -143.5t55.5 -187.5q0 -171 -101 -282q-47 -39 -99 -64q108 -56 154 -118 q55 -77 55 -187q0 -171 -101 -283q-124 -102 -277 -105v1q-6 -1 -13 -1h-3q-66 0 -163 16.5t-97 41.5v194h51q5 -81 80 -132q68 -45 145 -50q113 6 185 69q72 64 72 165q0 125 -316 276q-123 64 -175.5 137t-52.5 177q0 148 89 237q67 65 170 82l-40 19q-123 64 -175.5 137 t-52.5 177zM297 571q0 -123 248 -250q56 16 97 53q73 65 73 166q0 5 -1 10h-2q-1 14 -4 27q-22 61 -113 127q-59 29 -126 29q-78 0 -125 -44.5t-47 -117.5z" />
<glyph unicode="&#xa8;" horiz-adv-x="1024" d="M362 1156v3q3 27 19 27h9q22 0 31 -28q0 -22 -31 -28h-9q-17 0 -19 26zM486 1150v2q0 23 27 31h3q20 0 28 -41v-3q-7 -27 -24 -27h-7q-27 6 -27 38z" />
<glyph unicode="&#xa9;" horiz-adv-x="1033" d="M185 817v8q0 170 120 304q34 25 104 40q0 12 16 20h48q114 -22 204 -128q120 -168 120 -324q0 -181 -168 -280q-101 -40 -160 -40q-152 0 -256 216q-28 91 -28 184zM225 809q0 -251 196 -344q40 -8 52 -8q92 0 208 84q76 97 76 200q0 136 -112 296q-105 112 -188 112 q0 -16 -92 -32q-62 -26 -108 -132q-32 -99 -32 -164v-12zM345 773v16q0 118 72 148q31 16 64 16l12 -16q0 -32 -56 -32q-52 -23 -52 -120q0 -107 88 -124l48 4l8 -12v-4q0 -28 -28 -28h-36q-91 0 -120 152z" />
<glyph unicode="&#xaa;" horiz-adv-x="648" />
<glyph unicode="&#xab;" horiz-adv-x="944" d="M174 479l342 303h14v-37l-205 -266l205 -266v-37h-14zM487 479l342 303h14v-37l-205 -266l205 -266v-37h-14z" />
<glyph unicode="&#xac;" horiz-adv-x="1014" d="M87 667v100h840v-491l-1 -1h-98v392h-741z" />
<glyph unicode="&#xad;" horiz-adv-x="670" d="M171 682v16q0 20 148 28q0 4 52 4q112 -11 112 -28v-12q0 -6 -16 -16q-70 16 -108 16q-34 0 -180 -20z" />
<glyph unicode="&#xae;" horiz-adv-x="1054" d="M226 881q0 258 160 304l20 12h60q111 -22 236 -180q116 -179 116 -364v-12q0 -184 -124 -244q-84 -28 -144 -28h-12q-68 0 -168 84q-144 187 -144 428zM266 885q0 -246 148 -420q84 -56 140 -56h8q160 24 160 56q60 79 60 188q0 141 -104 332q-126 152 -216 172h-12 q-89 -13 -120 -48q-64 -76 -64 -220v-4zM338 993q0 37 72 52q120 -13 120 -96v-8q0 -59 -60 -124v-4q83 -21 164 -148q0 -11 32 -60v-16q0 -6 -12 -12h-16q-5 1 -68 112q-73 87 -144 96v-4q8 -123 12 -132q-8 -24 -16 -24h-16q-7 0 -12 20q0 4 4 4q-26 344 -60 344zM390 993 q14 -30 32 -160h4q54 46 68 108q-14 56 -52 56q0 5 -32 8q-20 -5 -20 -12z" />
<glyph unicode="&#xaf;" horiz-adv-x="670" />
<glyph unicode="&#xb0;" horiz-adv-x="674" d="M60 1164q0 116 81.5 197t197.5 81q115 0 196 -81.5t81 -196.5q0 -114 -82 -196t-197 -82q-117 0 -197 81t-80 197zM130 1163q0 -87 61 -147t148 -60t147 60t60 147t-60.5 148t-146.5 61t-147.5 -61t-61.5 -148z" />
<glyph unicode="&#xb1;" horiz-adv-x="1014" />
<glyph unicode="&#xb2;" horiz-adv-x="1014" />
<glyph unicode="&#xb3;" horiz-adv-x="1014" />
<glyph unicode="&#xb4;" horiz-adv-x="1024" d="M321 1094v2q0 22 146 92q52 27 65 27h5q27 0 27 -27q0 -13 -97 -55q-86 -44 -107 -57q-4 -2 -10 -2h-5q-24 3 -24 20z" />
<glyph unicode="&#xb5;" horiz-adv-x="1180" />
<glyph unicode="&#xb6;" horiz-adv-x="1024" d="M93 1086q0 157 107.5 253t285.5 96h443v-70h-127v-1365h-82v1365h-166v-1365h-84v738q-174 8 -275.5 102.5t-101.5 245.5z" />
<glyph unicode="&#xb7;" horiz-adv-x="508" d="M129 709q0 15 16 31l82 84q15 14 29 14q13 0 31 -16l80 -86q12 -16 12 -29q0 -15 -14 -31l-80 -88q-20 -20 -29 -20q-16 0 -29 14l-88 101q-10 13 -10 26z" />
<glyph unicode="&#xb8;" horiz-adv-x="1024" d="M520 -39q0 79 28 79q15 0 21 -15q-3 -36 -3 -62v-18q1 -5 5 -5h51q52 0 67 -54v-10q0 -84 -97 -118l-16 -2q-43 4 -43 15v5q1 6 23 13q12 14 64 46q23 34 23 46q0 16 -18 16h-28q-6 0 -10 -3q-67 0 -67 67z" />
<glyph unicode="&#xb9;" horiz-adv-x="1014" />
<glyph unicode="&#xba;" horiz-adv-x="718" />
<glyph unicode="&#xbb;" horiz-adv-x="944" d="M101 176v37l205 266l-205 266v37h14l342 -303l-342 -303h-14zM414 176v37l205 266l-205 266v37h14l342 -303l-342 -303h-14z" />
<glyph unicode="&#xbc;" horiz-adv-x="1708" />
<glyph unicode="&#xbd;" horiz-adv-x="1964" />
<glyph unicode="&#xbe;" horiz-adv-x="1708" />
<glyph unicode="&#xbf;" horiz-adv-x="664" d="M130 -80q0 201 112 384q32 66 32 208q-8 66 -8 104v44q0 21 16 28h12q10 0 12 -16q0 -18 -4 -24q0 -5 12 -136q0 -201 -80 -308q-68 -145 -68 -292q0 -85 80 -152q62 -28 96 -28q128 35 128 112v36l-12 16v4q0 21 16 28h16q20 -10 20 -32v-56q0 -102 -160 -148h-16 q-78 0 -148 68q-56 71 -56 132v28zM262 972v20q0 32 32 32t36 -40q-2 -13 -36 -32h-12q-5 0 -20 20z" />
<glyph unicode="&#xc0;" d="M130 44q31 422 31 508q-4 55 -4 111q2 288 48 609q19 93 58 93h4q57 -26 97 -141q111 -344 164 -879q35 -174 35 -305q-5 -13 -27 -13q-16 31 -48 318q-9 31 -40 265l-31 4q-216 -20 -216 -44v-155l-27 -371q9 -14 9 -26q0 -7 -18 -18q-35 0 -35 44zM201 623 q126 35 243 35v5q0 122 -133 578q-29 63 -48 71q-58 -224 -58 -579q-4 0 -4 -97v-13zM214 1652q10 14 15 14h14q102 -72 213 -114q11 -11 11 -20q0 -11 -18 -20h-8q-115 37 -212 111q-15 12 -15 29z" />
<glyph unicode="&#xc1;" d="M130 44q31 422 31 508q-4 55 -4 111q2 288 48 609q19 93 58 93h4q57 -26 97 -141q111 -344 164 -879q35 -174 35 -305q-5 -13 -27 -13q-16 31 -48 318q-9 31 -40 265l-31 4q-216 -20 -216 -44v-155l-27 -371q9 -14 9 -26q0 -7 -18 -18q-35 0 -35 44zM201 623 q126 35 243 35v5q0 122 -133 578q-29 63 -48 71q-58 -224 -58 -579q-4 0 -4 -97v-13zM220 1504v2q0 22 146 92q52 27 65 27h5q27 0 27 -27q0 -13 -97 -55q-86 -44 -107 -57q-4 -2 -10 -2h-5q-24 3 -24 20z" />
<glyph unicode="&#xc2;" d="M130 44q31 422 31 508q-4 55 -4 111q2 288 48 609q19 93 58 93h4q57 -26 97 -141q111 -344 164 -879q35 -174 35 -305q-5 -13 -27 -13q-16 31 -48 318q-9 31 -40 265l-31 4q-216 -20 -216 -44v-155l-27 -371q9 -14 9 -26q0 -7 -18 -18q-35 0 -35 44zM135 1512v5 q2 35 99 134h9q55 -25 151 -102v-17q-5 -12 -21 -12q-5 0 -128 85h-2q-26 -29 -79 -102l-12 -6q-12 4 -17 15zM201 623q126 35 243 35v5q0 122 -133 578q-29 63 -48 71q-58 -224 -58 -579q-4 0 -4 -97v-13z" />
<glyph unicode="&#xc3;" d="M127 1485q47 92 116 92q56 0 200 -80h32q35 0 52 48l-4 8v16q0 6 16 16h16q6 0 12 -12v-4q0 -85 -68 -108q-7 -4 -20 -4q-74 0 -152 56q-59 24 -84 24q-47 0 -84 -80h-16q-16 7 -16 28zM131 44q31 422 31 508q-4 55 -4 111q2 288 48 609q19 93 58 93h4q57 -26 97 -141 q111 -344 164 -879q35 -174 35 -305q-5 -13 -27 -13q-16 31 -48 318q-9 31 -40 265l-31 4q-216 -20 -216 -44v-155l-27 -371q9 -14 9 -26q0 -7 -18 -18q-35 0 -35 44zM202 623q126 35 243 35v5q0 122 -133 578q-29 63 -48 71q-58 -224 -58 -579q-4 0 -4 -97v-13z" />
<glyph unicode="&#xc4;" d="M101 44q31 422 31 508q-4 55 -4 111q2 288 48 609q19 93 58 93h4q57 -26 97 -141q111 -344 164 -879q35 -174 35 -305q-5 -13 -27 -13q-16 31 -48 318q-9 31 -40 265l-31 4q-216 -20 -216 -44v-155l-27 -371q9 -14 9 -26q0 -7 -18 -18q-35 0 -35 44zM172 623 q126 35 243 35v5q0 122 -133 578q-29 63 -48 71q-58 -224 -58 -579q-4 0 -4 -97v-13zM181 1566v3q3 27 19 27h9q22 0 31 -28q0 -22 -31 -28h-9q-17 0 -19 26zM305 1560v2q0 23 27 31h3q20 0 28 -41v-3q-7 -27 -24 -27h-7q-27 6 -27 38z" />
<glyph unicode="&#xc5;" d="M130 44q31 422 31 508q-4 55 -4 111q2 288 48 609q19 93 58 93h4q57 -26 97 -141q111 -344 164 -879q35 -174 35 -305q-5 -13 -27 -13q-16 31 -48 318q-9 31 -40 265l-31 4q-216 -20 -216 -44v-155l-27 -371q9 -14 9 -26q0 -7 -18 -18q-35 0 -35 44zM201 623 q126 35 243 35v5q0 122 -133 578q-29 63 -48 71q-58 -224 -58 -579q-4 0 -4 -97v-13zM202 1640q0 47 66 61q20 7 27 7q42 0 56 -77v-14q-11 -61 -54 -61q0 -2 -11 -2q-45 0 -73 45q-11 19 -11 41zM241 1636q0 -32 45 -43q27 3 27 27v13q-3 19 -20 37h-3q-49 -9 -49 -32v-2z " />
<glyph unicode="&#xc6;" horiz-adv-x="861" d="M130 44q31 422 31 508q-4 55 -4 111q2 288 48 609q19 93 58 93h4q57 -26 97 -141q111 -344 164 -879q35 -174 35 -305q-5 -13 -27 -13q-16 31 -48 318q-9 31 -40 265l-31 4q-216 -20 -216 -44v-155l-27 -371q9 -14 9 -26q0 -7 -18 -18q-35 0 -35 44zM201 623 q126 35 243 35v5q0 122 -133 578q-29 63 -48 71q-58 -224 -58 -579q-4 0 -4 -97v-13zM512 48v68q0 168 52 1004v16q0 186 -24 240q0 6 16 16q41 -16 92 -16q80 4 108 4l8 -12v-16q0 -6 -12 -12q-22 0 -112 -4l-48 4q12 -77 12 -220q-24 -349 -24 -412q0 -10 168 -24l12 -16 v-8q-2 -8 -20 -16q-63 12 -164 12q-24 -390 -24 -536v-72q1 -8 8 -8h4l152 16v-4l8 4h16q6 0 16 -16v-8q0 -6 -16 -16h-40l-124 -16q-8 4 -12 4l-8 -4q-41 0 -44 48z" />
<glyph unicode="&#xc7;" horiz-adv-x="636" d="M130 804v24q7 405 132 500q59 28 76 28h28q72 -13 72 -52q0 -6 -16 -16h-16q-26 32 -56 32q-100 -35 -100 -64q-80 -152 -80 -416v-68q0 -178 48 -428q29 -183 80 -248q62 -54 108 -56q59 0 128 88h12q6 0 12 -12v-8q0 -36 -88 -92q-37 -16 -68 -16h-4q-59 7 -124 64 q-71 56 -124 456q-20 86 -20 284zM328 -39q0 79 28 79q15 0 21 -15q-3 -36 -3 -62v-18q1 -5 5 -5h51q52 0 67 -54v-10q0 -84 -97 -118l-16 -2q-43 4 -43 15v5q1 6 23 13q12 14 64 46q23 34 23 46q0 16 -18 16h-28q-6 0 -10 -3q-67 0 -67 67z" />
<glyph unicode="&#xc8;" horiz-adv-x="575" d="M151 1652q10 14 15 14h14q102 -72 213 -114q11 -11 11 -20q0 -11 -18 -20h-8q-115 37 -212 111q-15 12 -15 29zM171 1363l16 12h44q23 0 64 4l8 -4q4 0 4 4q128 -12 128 -28v-4q-7 -20 -20 -20l-116 12q-11 0 -80 -4l4 -48q0 -65 20 -528h28q33 0 52 4q90 -8 132 -8 l12 -16v-12q0 -12 -16 -12q-35 0 -116 8q-54 -4 -92 -4v-16q0 -282 28 -652q4 0 4 -4q151 8 180 8q17 -5 24 -20v-4q0 -6 -16 -16q-152 -4 -184 -8q-48 0 -48 52q-28 382 -28 636v128q-20 352 -20 476q-12 60 -12 64z" />
<glyph unicode="&#xc9;" horiz-adv-x="575" d="M151 1363l16 12h44q23 0 64 4l8 -4q4 0 4 4q128 -12 128 -28v-4q-7 -20 -20 -20l-116 12q-11 0 -80 -4l4 -48q0 -65 20 -528h28q33 0 52 4q90 -8 132 -8l12 -16v-12q0 -12 -16 -12q-35 0 -116 8q-54 -4 -92 -4v-16q0 -282 28 -652q4 0 4 -4q151 8 180 8q17 -5 24 -20v-4 q0 -6 -16 -16q-152 -4 -184 -8q-48 0 -48 52q-28 382 -28 636v128q-20 352 -20 476q-12 60 -12 64zM183 1504v2q0 22 146 92q52 27 65 27h5q27 0 27 -27q0 -13 -97 -55q-86 -44 -107 -57q-4 -2 -10 -2h-5q-24 3 -24 20z" />
<glyph unicode="&#xca;" horiz-adv-x="575" d="M148 1512v5q2 35 99 134h9q55 -25 151 -102v-17q-5 -12 -21 -12q-5 0 -128 85h-2q-26 -29 -79 -102l-12 -6q-12 4 -17 15zM157 1363l16 12h44q23 0 64 4l8 -4q4 0 4 4q128 -12 128 -28v-4q-7 -20 -20 -20l-116 12q-11 0 -80 -4l4 -48q0 -65 20 -528h28q33 0 52 4 q90 -8 132 -8l12 -16v-12q0 -12 -16 -12q-35 0 -116 8q-54 -4 -92 -4v-16q0 -282 28 -652q4 0 4 -4q151 8 180 8q17 -5 24 -20v-4q0 -6 -16 -16q-152 -4 -184 -8q-48 0 -48 52q-28 382 -28 636v128q-20 352 -20 476q-12 60 -12 64z" />
<glyph unicode="&#xcb;" horiz-adv-x="575" d="M145 1363l16 12h44q23 0 64 4l8 -4q4 0 4 4q128 -12 128 -28v-4q-7 -20 -20 -20l-116 12q-11 0 -80 -4l4 -48q0 -65 20 -528h28q33 0 52 4q90 -8 132 -8l12 -16v-12q0 -12 -16 -12q-35 0 -116 8q-54 -4 -92 -4v-16q0 -282 28 -652q4 0 4 -4q151 8 180 8q17 -5 24 -20v-4 q0 -6 -16 -16q-152 -4 -184 -8q-48 0 -48 52q-28 382 -28 636v128q-20 352 -20 476q-12 60 -12 64zM166 1566v3q3 27 19 27h9q22 0 31 -28q0 -22 -31 -28h-9q-17 0 -19 26zM290 1560v2q0 23 27 31h3q20 0 28 -41v-3q-7 -27 -24 -27h-7q-27 6 -27 38z" />
<glyph unicode="&#xcc;" horiz-adv-x="424" d="M145 1652q10 14 15 14h14q102 -72 213 -114q11 -11 11 -20q0 -11 -18 -20h-8q-115 37 -212 111q-15 12 -15 29zM246 108q0 694 24 956v112q0 93 -12 168q0 6 16 16h8q28 0 28 -212v-52q0 -78 -24 -404q0 -16 4 -32q-4 -209 -4 -332v-260q0 -8 8 -40q-5 -28 -16 -28h-16 q-16 0 -16 108z" />
<glyph unicode="&#xcd;" horiz-adv-x="424" d="M136 1504v2q0 22 146 92q52 27 65 27h5q27 0 27 -27q0 -13 -97 -55q-86 -44 -107 -57q-4 -2 -10 -2h-5q-24 3 -24 20zM185 108q0 694 24 956v112q0 93 -12 168q0 6 16 16h8q28 0 28 -212v-52q0 -78 -24 -404q0 -16 4 -32q-4 -209 -4 -332v-260q0 -8 8 -40q-5 -28 -16 -28 h-16q-16 0 -16 108z" />
<glyph unicode="&#xce;" horiz-adv-x="424" d="M88 1512v5q2 35 99 134h9q55 -25 151 -102v-17q-5 -12 -21 -12q-5 0 -128 85h-2q-26 -29 -79 -102l-12 -6q-12 4 -17 15zM178 108q0 694 24 956v112q0 93 -12 168q0 6 16 16h8q28 0 28 -212v-52q0 -78 -24 -404q0 -16 4 -32q-4 -209 -4 -332v-260q0 -8 8 -40 q-5 -28 -16 -28h-16q-16 0 -16 108z" />
<glyph unicode="&#xcf;" horiz-adv-x="424" d="M85 1566v3q3 27 19 27h9q22 0 31 -28q0 -22 -31 -28h-9q-17 0 -19 26zM145 108q0 694 24 956v112q0 93 -12 168q0 6 16 16h8q28 0 28 -212v-52q0 -78 -24 -404q0 -16 4 -32q-4 -209 -4 -332v-260q0 -8 8 -40q-5 -28 -16 -28h-16q-16 0 -16 108zM209 1560v2q0 23 27 31h3 q20 0 28 -41v-3q-7 -27 -24 -27h-7q-27 6 -27 38z" />
<glyph unicode="&#xd0;" horiz-adv-x="612" d="M-143 739v8q0 6 16 16q26 0 40 -4q274 8 388 8q420 -24 552 -24h16q6 0 12 -12v-12l-12 -16q-208 4 -568 24q-362 -4 -384 -8q-60 4 -60 20zM123 1432h4q159 -52 244 -204q128 -261 128 -536v-20q0 -392 -284 -640q-36 -12 -48 -12q-11 0 -16 64l4 8q-12 92 -16 260h4 l-4 8v4q0 158 4 288zM167 1368q4 -452 16 -712q-4 -107 -4 -220v-48q0 -152 16 -320q93 80 172 208q92 205 92 384v40q0 251 -124 512q-89 134 -168 160v-4z" />
<glyph unicode="&#xd1;" horiz-adv-x="698" d="M138 665v693q4 23 23 23q22 0 181 -545q23 -129 194 -648h11v34q-23 486 -23 546q0 18 5 122q-1 12 -1 47q8 79 8 126v284q3 23 22 23l23 -12q-11 -227 -11 -341v-113q0 -348 22 -898l-22 -11q-23 0 -284 886l-105 361l-8 13l-1 -22q7 -84 7 -132l1 -34q-8 -222 -8 -311 q0 -448 34 -738h-23q-22 0 -22 22q-23 349 -23 625zM152 1485q47 92 116 92q56 0 200 -80h32q35 0 52 48l-4 8v16q0 6 16 16h16q6 0 12 -12v-4q0 -85 -68 -108q-7 -4 -20 -4q-74 0 -152 56q-59 24 -84 24q-47 0 -84 -80h-16q-16 7 -16 28z" />
<glyph unicode="&#xd2;" horiz-adv-x="622" d="M164 564q0 563 140 780q37 28 68 28q113 0 180 -540q4 -51 4 -132v-16q0 -14 -4 -36q4 -5 4 -28v-4q0 -23 -4 -28q4 -21 4 -24q0 -422 -116 -520q-41 -16 -56 -16h-28q-144 35 -180 372zM204 576q0 -226 60 -396q56 -112 100 -112h4q81 0 104 112q44 104 44 444v80 q0 235 -84 540q-30 67 -60 88q-47 -18 -56 -44q-112 -237 -112 -712zM241 1652q10 14 15 14h14q102 -72 213 -114q11 -11 11 -20q0 -11 -18 -20h-8q-115 37 -212 111q-15 12 -15 29z" />
<glyph unicode="&#xd3;" horiz-adv-x="622" d="M164 564q0 563 140 780q37 28 68 28q113 0 180 -540q4 -51 4 -132v-16q0 -14 -4 -36q4 -5 4 -28v-4q0 -23 -4 -28q4 -21 4 -24q0 -422 -116 -520q-41 -16 -56 -16h-28q-144 35 -180 372zM204 576q0 -226 60 -396q56 -112 100 -112h4q81 0 104 112q44 104 44 444v80 q0 235 -84 540q-30 67 -60 88q-47 -18 -56 -44q-112 -237 -112 -712zM293 1504v2q0 22 146 92q52 27 65 27h5q27 0 27 -27q0 -13 -97 -55q-86 -44 -107 -57q-4 -2 -10 -2h-5q-24 3 -24 20z" />
<glyph unicode="&#xd4;" horiz-adv-x="622" d="M164 564q0 563 140 780q37 28 68 28q113 0 180 -540q4 -51 4 -132v-16q0 -14 -4 -36q4 -5 4 -28v-4q0 -23 -4 -28q4 -21 4 -24q0 -422 -116 -520q-41 -16 -56 -16h-28q-144 35 -180 372zM204 576q0 -226 60 -396q56 -112 100 -112h4q81 0 104 112q44 104 44 444v80 q0 235 -84 540q-30 67 -60 88q-47 -18 -56 -44q-112 -237 -112 -712zM252 1512v5q2 35 99 134h9q55 -25 151 -102v-17q-5 -12 -21 -12q-5 0 -128 85h-2q-26 -29 -79 -102l-12 -6q-12 4 -17 15z" />
<glyph unicode="&#xd5;" horiz-adv-x="622" d="M86 1485q47 92 116 92q56 0 200 -80h32q35 0 52 48l-4 8v16q0 6 16 16h16q6 0 12 -12v-4q0 -85 -68 -108q-7 -4 -20 -4q-74 0 -152 56q-59 24 -84 24q-47 0 -84 -80h-16q-16 7 -16 28zM96 564q0 563 140 780q37 28 68 28q113 0 180 -540q4 -51 4 -132v-16q0 -14 -4 -36 q4 -5 4 -28v-4q0 -23 -4 -28q4 -21 4 -24q0 -422 -116 -520q-41 -16 -56 -16h-28q-144 35 -180 372zM136 576q0 -226 60 -396q56 -112 100 -112h4q81 0 104 112q44 104 44 444v80q0 235 -84 540q-30 67 -60 88q-47 -18 -56 -44q-112 -237 -112 -712z" />
<glyph unicode="&#xd6;" horiz-adv-x="622" d="M164 564q0 563 140 780q37 28 68 28q113 0 180 -540q4 -51 4 -132v-16q0 -14 -4 -36q4 -5 4 -28v-4q0 -23 -4 -28q4 -21 4 -24q0 -422 -116 -520q-41 -16 -56 -16h-28q-144 35 -180 372zM204 576q0 -226 60 -396q56 -112 100 -112h4q81 0 104 112q44 104 44 444v80 q0 235 -84 540q-30 67 -60 88q-47 -18 -56 -44q-112 -237 -112 -712zM282 1566v3q3 27 19 27h9q22 0 31 -28q0 -22 -31 -28h-9q-17 0 -19 26zM406 1560v2q0 23 27 31h3q20 0 28 -41v-3q-7 -27 -24 -27h-7q-27 6 -27 38z" />
<glyph unicode="&#xd7;" horiz-adv-x="821" d="M184 804v12q0 22 152 36q-4 87 -12 140q0 24 28 24q19 0 24 -156q149 16 224 16h24q6 0 12 -12v-16q0 -6 -12 -12h-28q-81 0 -216 -16v-4q0 -60 20 -220l-12 -8h-16q-20 0 -32 224h-4q-14 0 -128 -20h-12q-6 0 -12 12z" />
<glyph unicode="&#xd8;" horiz-adv-x="622" d="M30 24q32 64 240 608q158 330 264 588l20 16h12q6 0 16 -16v-8q-30 -35 -120 -268q-160 -314 -388 -932q-15 -12 -28 -12q-16 8 -16 24zM96 564q0 563 140 780q37 28 68 28q113 0 180 -540q4 -51 4 -132v-16q0 -14 -4 -36q4 -5 4 -28v-4q0 -23 -4 -28q4 -21 4 -24 q0 -422 -116 -520q-41 -16 -56 -16h-28q-144 35 -180 372zM136 576q0 -226 60 -396q56 -112 100 -112h4q81 0 104 112q44 104 44 444v80q0 235 -84 540q-30 67 -60 88q-47 -18 -56 -44q-112 -237 -112 -712z" />
<glyph unicode="&#xd9;" horiz-adv-x="698" d="M185 1396l16 12h8q20 -10 20 -32v-20q36 -651 88 -1048q35 -268 108 -268q52 22 52 76q0 157 -32 792q4 116 4 224v96l-4 24l4 8q-4 54 -12 112l16 12h12q17 0 24 -112q0 -8 -4 -8q4 -60 4 -88v-128l-4 -24q0 -4 4 -4q-4 -47 -4 -68v-16q32 -696 32 -820 q-11 -116 -104 -116q-108 0 -144 384q-44 342 -84 1012zM218 1652q10 14 15 14h14q102 -72 213 -114q11 -11 11 -20q0 -11 -18 -20h-8q-115 37 -212 111q-15 12 -15 29z" />
<glyph unicode="&#xda;" horiz-adv-x="698" d="M185 1396l16 12h8q20 -10 20 -32v-20q36 -651 88 -1048q35 -268 108 -268q52 22 52 76q0 157 -32 792q4 116 4 224v96l-4 24l4 8q-4 54 -12 112l16 12h12q17 0 24 -112q0 -8 -4 -8q4 -60 4 -88v-128l-4 -24q0 -4 4 -4q-4 -47 -4 -68v-16q32 -696 32 -820 q-11 -116 -104 -116q-108 0 -144 384q-44 342 -84 1012zM270 1504v2q0 22 146 92q52 27 65 27h5q27 0 27 -27q0 -13 -97 -55q-86 -44 -107 -57q-4 -2 -10 -2h-5q-24 3 -24 20z" />
<glyph unicode="&#xdb;" horiz-adv-x="698" d="M185 1396l16 12h8q20 -10 20 -32v-20q36 -651 88 -1048q35 -268 108 -268q52 22 52 76q0 157 -32 792q4 116 4 224v96l-4 24l4 8q-4 54 -12 112l16 12h12q17 0 24 -112q0 -8 -4 -8q4 -60 4 -88v-128l-4 -24q0 -4 4 -4q-4 -47 -4 -68v-16q32 -696 32 -820 q-11 -116 -104 -116q-108 0 -144 384q-44 342 -84 1012zM229 1512v5q2 35 99 134h9q55 -25 151 -102v-17q-5 -12 -21 -12q-5 0 -128 85h-2q-26 -29 -79 -102l-12 -6q-12 4 -17 15z" />
<glyph unicode="&#xdc;" horiz-adv-x="698" d="M185 1396l16 12h8q20 -10 20 -32v-20q36 -651 88 -1048q35 -268 108 -268q52 22 52 76q0 157 -32 792q4 116 4 224v96l-4 24l4 8q-4 54 -12 112l16 12h12q17 0 24 -112q0 -8 -4 -8q4 -60 4 -88v-128l-4 -24q0 -4 4 -4q-4 -47 -4 -68v-16q32 -696 32 -820 q-11 -116 -104 -116q-108 0 -144 384q-44 342 -84 1012zM259 1566v3q3 27 19 27h9q22 0 31 -28q0 -22 -31 -28h-9q-17 0 -19 26zM383 1560v2q0 23 27 31h3q20 0 28 -41v-3q-7 -27 -24 -27h-7q-27 6 -27 38z" />
<glyph unicode="&#xdd;" horiz-adv-x="650" d="M109 1224v8q0 6 16 16h16q13 -5 24 -40q160 -198 264 -420h4q44 381 64 516l12 8h8q6 0 16 -16v-4q-32 -286 -68 -560l4 -24v-12q-14 0 -44 -396q-12 -198 -28 -296l-8 -4h-12q-8 2 -16 20q44 527 64 688q-108 235 -284 472q-32 23 -32 44zM240 1504v2q0 22 146 92 q52 27 65 27h5q27 0 27 -27q0 -13 -97 -55q-86 -44 -107 -57q-4 -2 -10 -2h-5q-24 3 -24 20z" />
<glyph unicode="&#xde;" horiz-adv-x="847" d="M103 1399v3q0 17 20 25h12q36 0 48 -337q8 -3 12 -3q248 0 408 -130q108 -128 108 -211q0 -85 -64 -207q-124 -134 -228 -164q-62 -33 -192 -78v-3q12 -249 12 -281q0 -16 -20 -25h-16q-16 6 -16 15q0 109 -16 279q-16 0 -28 15v10q0 5 28 18q-15 120 -36 724q0 16 -8 16 l4 18q0 145 -28 316zM187 1043q20 -498 32 -699v-3q193 58 320 151q82 76 104 161q16 74 16 93q0 86 -120 204q-132 84 -228 84q-18 8 -100 12z" />
<glyph unicode="&#xdf;" horiz-adv-x="894" d="M77 -132q193 39 380 110q106 51 176 240q64 212 64 332q0 156 -196 357q-40 57 -40 88v13q0 15 92 159q52 123 52 191q-39 280 -188 280h-12q-106 0 -128 -182q-4 -37 -4 -72v-87q0 -30 36 -338q32 -458 32 -607q0 -105 -48 -121l-4 7q12 63 12 88q-44 705 -80 951v114 q0 238 144 283q30 6 56 6q162 0 224 -250q12 -51 12 -85q0 -92 -96 -263q-48 -67 -48 -78v-6q0 -44 136 -185q100 -153 100 -266v-7q0 -157 -96 -409q-53 -107 -148 -179q-125 -60 -396 -120h-8q-24 10 -24 36z" />
<glyph unicode="&#xe0;" d="M130 44q31 422 31 508q-4 55 -4 111q2 288 48 609q19 93 58 93h4q57 -26 97 -141q111 -344 164 -879q35 -174 35 -305q-5 -13 -27 -13q-16 31 -48 318q-9 31 -40 265l-31 4q-216 -20 -216 -44v-155l-27 -371q9 -14 9 -26q0 -7 -18 -18q-35 0 -35 44zM201 623 q126 35 243 35v5q0 122 -133 578q-29 63 -48 71q-58 -224 -58 -579q-4 0 -4 -97v-13zM214 1652q9 14 14 14h15q102 -72 212 -114q11 -11 11 -20q0 -11 -18 -20h-7q-116 37 -213 111q-14 12 -14 29z" />
<glyph unicode="&#xe1;" d="M130 44q31 422 31 508q-4 55 -4 111q2 288 48 609q19 93 58 93h4q57 -26 97 -141q111 -344 164 -879q35 -174 35 -305q-5 -13 -27 -13q-16 31 -48 318q-9 31 -40 265l-31 4q-216 -20 -216 -44v-155l-27 -371q9 -14 9 -26q0 -7 -18 -18q-35 0 -35 44zM201 623 q126 35 243 35v5q0 122 -133 578q-29 63 -48 71q-58 -224 -58 -579q-4 0 -4 -97v-13zM220 1504v2q0 22 146 92q52 27 66 27h4q27 0 27 -27q0 -13 -97 -55q-85 -44 -107 -57q-4 -2 -10 -2h-5q-24 3 -24 20z" />
<glyph unicode="&#xe2;" d="M130 44q31 422 31 508q-4 55 -4 111q2 288 48 609q19 93 58 93h4q57 -26 97 -141q111 -344 164 -879q35 -174 35 -305q-5 -13 -27 -13q-16 31 -48 318q-9 31 -40 265l-31 4q-216 -20 -216 -44v-155l-27 -371q9 -14 9 -26q0 -7 -18 -18q-35 0 -35 44zM135 1512v5 q3 35 99 134h9q55 -25 151 -102v-17q-5 -12 -21 -12q-5 0 -127 85h-3q-26 -29 -79 -102l-11 -6q-12 4 -18 15zM201 623q126 35 243 35v5q0 122 -133 578q-29 63 -48 71q-58 -224 -58 -579q-4 0 -4 -97v-13z" />
<glyph unicode="&#xe3;" d="M127 1485q47 92 116 92q56 0 200 -80h32q35 0 52 48l-4 8v16q0 6 16 16h16q6 0 12 -12v-4q0 -85 -68 -108q-7 -4 -20 -4q-74 0 -152 56q-59 24 -84 24q-47 0 -84 -80h-16q-16 7 -16 28zM131 44q31 422 31 508q-4 55 -4 111q2 288 48 609q19 93 58 93h4q57 -26 97 -141 q111 -344 164 -879q35 -174 35 -305q-5 -13 -27 -13q-16 31 -48 318q-9 31 -40 265l-31 4q-216 -20 -216 -44v-155l-27 -371q9 -14 9 -26q0 -7 -18 -18q-35 0 -35 44zM202 623q126 35 243 35v5q0 122 -133 578q-29 63 -48 71q-58 -224 -58 -579q-4 0 -4 -97v-13z" />
<glyph unicode="&#xe4;" d="M101 44q31 422 31 508q-4 55 -4 111q2 288 48 609q19 93 58 93h4q57 -26 97 -141q111 -344 164 -879q35 -174 35 -305q-5 -13 -27 -13q-16 31 -48 318q-9 31 -40 265l-31 4q-216 -20 -216 -44v-155l-27 -371q9 -14 9 -26q0 -7 -18 -18q-35 0 -35 44zM172 623 q126 35 243 35v5q0 122 -133 578q-29 63 -48 71q-58 -224 -58 -579q-4 0 -4 -97v-13zM181 1566v3q3 27 19 27h9q21 0 31 -28q0 -22 -31 -28h-9q-18 0 -19 26zM305 1560v2q0 23 26 31h3q21 0 29 -41v-3q-8 -27 -24 -27h-8q-26 6 -26 38z" />
<glyph unicode="&#xe5;" d="M130 44q31 422 31 508q-4 55 -4 111q2 288 48 609q19 93 58 93h4q57 -26 97 -141q111 -344 164 -879q35 -174 35 -305q-5 -13 -27 -13q-16 31 -48 318q-9 31 -40 265l-31 4q-216 -20 -216 -44v-155l-27 -371q9 -14 9 -26q0 -7 -18 -18q-35 0 -35 44zM201 623 q126 35 243 35v5q0 122 -133 578q-29 63 -48 71q-58 -224 -58 -579q-4 0 -4 -97v-13zM202 1640q0 47 65 61q21 7 28 7q42 0 56 -77v-14q-11 -61 -54 -61q0 -2 -11 -2q-45 0 -73 45q-11 19 -11 41zM240 1636q0 -32 46 -43q27 3 27 27v13q-3 19 -21 37h-2q-50 -9 -50 -32v-2z " />
<glyph unicode="&#xe6;" horiz-adv-x="861" d="M130 44q31 422 31 508q-4 55 -4 111q2 288 48 609q19 93 58 93h4q57 -26 97 -141q111 -344 164 -879q35 -174 35 -305q-5 -13 -27 -13q-16 31 -48 318q-9 31 -40 265l-31 4q-216 -20 -216 -44v-155l-27 -371q9 -14 9 -26q0 -7 -18 -18q-35 0 -35 44zM201 623 q126 35 243 35v5q0 122 -133 578q-29 63 -48 71q-58 -224 -58 -579q-4 0 -4 -97v-13zM512 48v68q0 168 52 1004v16q0 186 -24 240q0 6 16 16q41 -16 92 -16q80 4 108 4l8 -12v-16q0 -6 -12 -12q-22 0 -112 -4l-48 4q12 -77 12 -220q-24 -349 -24 -412q0 -10 168 -24l12 -16 v-8q-2 -8 -20 -16q-63 12 -164 12q-24 -390 -24 -536v-72q1 -8 8 -8h4l152 16v-4l8 4h16q6 0 16 -16v-8q0 -6 -16 -16h-40l-124 -16q-8 4 -12 4l-8 -4q-41 0 -44 48z" />
<glyph unicode="&#xe7;" horiz-adv-x="636" d="M130 804v24q7 405 132 500q59 28 76 28h28q72 -13 72 -52q0 -6 -16 -16h-16q-26 32 -56 32q-100 -35 -100 -64q-80 -152 -80 -416v-68q0 -178 48 -428q29 -183 80 -248q62 -54 108 -56q59 0 128 88h12q6 0 12 -12v-8q0 -36 -88 -92q-37 -16 -68 -16h-4q-59 7 -124 64 q-71 56 -124 456q-20 86 -20 284zM328 -39q0 79 28 79q15 0 21 -15q-3 -36 -3 -62v-18q1 -5 5 -5h51q52 0 67 -54v-10q0 -84 -97 -118l-16 -2q-43 4 -43 15v5q1 6 23 13q12 14 64 46q23 34 23 46q0 16 -18 16h-28q-6 0 -10 -3q-67 0 -67 67z" />
<glyph unicode="&#xe8;" horiz-adv-x="575" d="M151 1652q10 14 15 14h14q102 -72 213 -114q11 -11 11 -20q0 -11 -18 -20h-8q-115 37 -212 111q-15 12 -15 29zM158 48v68q0 168 52 1004v16q0 186 -24 240q0 6 16 16q41 -16 92 -16q80 4 108 4l8 -12v-16q0 -6 -12 -12q-22 0 -112 -4l-48 4q12 -77 12 -220 q-24 -349 -24 -412q0 -10 168 -24l12 -16v-8q-2 -8 -20 -16q-63 12 -164 12q-24 -390 -24 -536v-72q1 -8 8 -8h4l152 16v-4l8 4h16q6 0 16 -16v-8q0 -6 -16 -16h-40l-124 -16q-8 4 -12 4l-8 -4q-41 0 -44 48z" />
<glyph unicode="&#xe9;" horiz-adv-x="575" d="M151 48v68q0 168 52 1004v16q0 186 -24 240q0 6 16 16q41 -16 92 -16q80 4 108 4l8 -12v-16q0 -6 -12 -12q-22 0 -112 -4l-48 4q12 -77 12 -220q-24 -349 -24 -412q0 -10 168 -24l12 -16v-8q-2 -8 -20 -16q-63 12 -164 12q-24 -390 -24 -536v-72q1 -8 8 -8h4l152 16v-4 l8 4h16q6 0 16 -16v-8q0 -6 -16 -16h-40l-124 -16q-8 4 -12 4l-8 -4q-41 0 -44 48zM196 1504v2q0 22 146 92q52 27 65 27h5q27 0 27 -27q0 -13 -97 -55q-86 -44 -107 -57q-4 -2 -10 -2h-5q-24 3 -24 20z" />
<glyph unicode="&#xea;" horiz-adv-x="575" d="M148 48v68q0 168 52 1004v16q0 186 -24 240q0 6 16 16q41 -16 92 -16q80 4 108 4l8 -12v-16q0 -6 -12 -12q-22 0 -112 -4l-48 4q12 -77 12 -220q-24 -349 -24 -412q0 -10 168 -24l12 -16v-8q-2 -8 -20 -16q-63 12 -164 12q-24 -390 -24 -536v-72q1 -8 8 -8h4l152 16v-4 l8 4h16q6 0 16 -16v-8q0 -6 -16 -16h-40l-124 -16q-8 4 -12 4l-8 -4q-41 0 -44 48zM152 1512v5q2 35 98 134h9q56 -25 151 -102v-17q-4 -12 -20 -12q-6 0 -128 85h-3q-25 -29 -78 -102l-12 -6q-12 4 -17 15z" />
<glyph unicode="&#xeb;" horiz-adv-x="575" d="M145 48v68q0 168 52 1004v16q0 186 -24 240q0 6 16 16q41 -16 92 -16q80 4 108 4l8 -12v-16q0 -6 -12 -12q-22 0 -112 -4l-48 4q12 -77 12 -220q-24 -349 -24 -412q0 -10 168 -24l12 -16v-8q-2 -8 -20 -16q-63 12 -164 12q-24 -390 -24 -536v-72q1 -8 8 -8h4l152 16v-4 l8 4h16q6 0 16 -16v-8q0 -6 -16 -16h-40l-124 -16q-8 4 -12 4l-8 -4q-41 0 -44 48zM179 1566v3q4 27 20 27h9q21 0 31 -28q0 -22 -31 -28h-9q-18 0 -20 26zM304 1560v2q0 23 26 31h3q21 0 28 -41v-3q-7 -27 -23 -27h-8q-26 6 -26 38z" />
<glyph unicode="&#xec;" horiz-adv-x="424" d="M145 1652q10 14 15 14h14q102 -72 213 -114q11 -11 11 -20q0 -11 -18 -20h-8q-115 37 -212 111q-15 12 -15 29zM246 108q0 694 24 956v112q0 93 -12 168q0 6 16 16h8q28 0 28 -212v-52q0 -78 -24 -404q0 -16 4 -32q-4 -209 -4 -332v-260q0 -8 8 -40q-5 -28 -16 -28h-16 q-16 0 -16 108z" />
<glyph unicode="&#xed;" horiz-adv-x="424" d="M136 1504v2q0 22 146 92q52 27 65 27h5q27 0 27 -27q0 -13 -97 -55q-86 -44 -107 -57q-4 -2 -10 -2h-5q-24 3 -24 20zM185 108q0 694 24 956v112q0 93 -12 168q0 6 16 16h8q28 0 28 -212v-52q0 -78 -24 -404q0 -16 4 -32q-4 -209 -4 -332v-260q0 -8 8 -40q-5 -28 -16 -28 h-16q-16 0 -16 108z" />
<glyph unicode="&#xee;" horiz-adv-x="424" d="M88 1512v5q2 35 99 134h9q55 -25 151 -102v-17q-5 -12 -21 -12q-5 0 -128 85h-2q-26 -29 -79 -102l-12 -6q-12 4 -17 15zM178 108q0 694 24 956v112q0 93 -12 168q0 6 16 16h8q28 0 28 -212v-52q0 -78 -24 -404q0 -16 4 -32q-4 -209 -4 -332v-260q0 -8 8 -40 q-5 -28 -16 -28h-16q-16 0 -16 108z" />
<glyph unicode="&#xef;" horiz-adv-x="424" d="M85 1566v3q3 27 19 27h9q22 0 31 -28q0 -22 -31 -28h-9q-17 0 -19 26zM145 108q0 694 24 956v112q0 93 -12 168q0 6 16 16h8q28 0 28 -212v-52q0 -78 -24 -404q0 -16 4 -32q-4 -209 -4 -332v-260q0 -8 8 -40q-5 -28 -16 -28h-16q-16 0 -16 108zM209 1560v2q0 23 27 31h3 q20 0 28 -41v-3q-7 -27 -24 -27h-7q-27 6 -27 38z" />
<glyph unicode="&#xf0;" horiz-adv-x="612" d="M-143 739v8q0 6 16 16q26 0 40 -4q274 8 388 8q420 -24 552 -24h16q6 0 12 -12v-12l-12 -16q-208 4 -568 24q-362 -4 -384 -8q-60 4 -60 20zM123 1364v8q0 6 16 16h24q19 -20 96 -44q114 -71 160 -200q40 -134 40 -212v-120q0 -16 4 -32q-27 -395 -72 -492 q0 -44 -84 -212q-52 -76 -64 -76q-28 6 -28 16v16q20 31 20 56q-8 16 -8 24q4 12 8 12q-4 52 -4 84q0 992 -108 1156zM187 1324q84 -258 84 -1112v-16q4 -80 4 -88q68 102 116 344q20 132 32 324q0 314 -72 416q-44 92 -164 136v-4z" />
<glyph unicode="&#xf1;" horiz-adv-x="698" d="M138 1485q47 92 116 92q56 0 200 -80h32q35 0 52 48l-4 8v16q0 6 16 16h16q6 0 12 -12v-4q0 -85 -68 -108q-7 -4 -20 -4q-74 0 -152 56q-59 24 -84 24q-47 0 -84 -80h-16q-16 7 -16 28zM164 680q16 398 16 480q0 19 -4 92q4 8 4 12q-4 16 -4 32q0 64 20 64q37 0 60 -132 q136 -450 208 -788q24 -88 24 -96h4q-20 193 -92 752q-8 56 -12 156q4 77 4 100l16 12h12l16 -16q-8 -44 -8 -100q0 -102 88 -752l36 -408q-6 -20 -28 -20q-20 0 -76 284q-36 130 -140 564q-60 172 -88 304h-4l4 -48q0 -80 -16 -488q8 -367 32 -660v-8q-6 -16 -28 -16 l-16 12l4 36q-24 261 -32 632z" />
<glyph unicode="&#xf2;" horiz-adv-x="622" d="M164 728v76q0 244 76 432q-4 7 -4 16l68 56h32q30 0 72 -132q40 -296 40 -592q0 -462 -56 -548q-31 -36 -56 -36h-16q-109 0 -140 348q-8 133 -16 380zM173 1652q10 14 15 14h14q102 -72 213 -114q11 -11 11 -20q0 -11 -18 -20h-8q-115 37 -212 111q-15 12 -15 29z M200 796q13 -407 32 -556q33 -200 96 -200q80 0 80 536v8q0 343 -44 604q-32 80 -44 80h-4q-72 -46 -108 -356z" />
<glyph unicode="&#xf3;" horiz-adv-x="622" d="M164 728v76q0 244 76 432q-4 7 -4 16l68 56h32q30 0 72 -132q40 -296 40 -592q0 -462 -56 -548q-31 -36 -56 -36h-16q-109 0 -140 348q-8 133 -16 380zM200 796q13 -407 32 -556q33 -200 96 -200q80 0 80 536v8q0 343 -44 604q-32 80 -44 80h-4q-72 -46 -108 -356z M225 1504v2q0 22 146 92q52 27 65 27h5q27 0 27 -27q0 -13 -97 -55q-86 -44 -107 -57q-4 -2 -10 -2h-5q-24 3 -24 20z" />
<glyph unicode="&#xf4;" horiz-adv-x="622" d="M164 728v76q0 244 76 432q-4 7 -4 16l68 56h32q30 0 72 -132q40 -296 40 -592q0 -462 -56 -548q-31 -36 -56 -36h-16q-109 0 -140 348q-8 133 -16 380zM184 1512v5q2 35 98 134h9q56 -25 151 -102v-17q-4 -12 -20 -12q-6 0 -128 85h-3q-25 -29 -78 -102l-12 -6 q-12 4 -17 15zM200 796q13 -407 32 -556q33 -200 96 -200q80 0 80 536v8q0 343 -44 604q-32 80 -44 80h-4q-72 -46 -108 -356z" />
<glyph unicode="&#xf5;" horiz-adv-x="622" d="M86 1485q47 92 116 92q56 0 200 -80h32q35 0 52 48l-4 8v16q0 6 16 16h16q6 0 12 -12v-4q0 -85 -68 -108q-7 -4 -20 -4q-74 0 -152 56q-59 24 -84 24q-47 0 -84 -80h-16q-16 7 -16 28zM164 728v76q0 244 76 432q-4 7 -4 16l68 56h32q30 0 72 -132q40 -296 40 -592 q0 -462 -56 -548q-31 -36 -56 -36h-16q-109 0 -140 348q-8 133 -16 380zM200 796q13 -407 32 -556q33 -200 96 -200q80 0 80 536v8q0 343 -44 604q-32 80 -44 80h-4q-72 -46 -108 -356z" />
<glyph unicode="&#xf6;" horiz-adv-x="622" d="M164 728v76q0 244 76 432q-4 7 -4 16l68 56h32q30 0 72 -132q40 -296 40 -592q0 -462 -56 -548q-31 -36 -56 -36h-16q-109 0 -140 348q-8 133 -16 380zM200 796q13 -407 32 -556q33 -200 96 -200q80 0 80 536v8q0 343 -44 604q-32 80 -44 80h-4q-72 -46 -108 -356z M214 1566v3q4 27 20 27h9q21 0 31 -28q0 -22 -31 -28h-9q-18 0 -20 26zM339 1560v2q0 23 26 31h3q21 0 28 -41v-3q-7 -27 -23 -27h-8q-26 6 -26 38z" />
<glyph unicode="&#xf7;" horiz-adv-x="821" d="M184 804v12q0 22 152 36q-4 87 -12 140q0 24 28 24q19 0 24 -156q149 16 224 16h24q6 0 12 -12v-16q0 -6 -12 -12h-28q-81 0 -216 -16v-4q0 -60 20 -220l-12 -8h-16q-20 0 -32 224h-4q-14 0 -128 -20h-12q-6 0 -12 12z" />
<glyph unicode="&#xf8;" horiz-adv-x="622" d="M30 24q32 64 240 608q158 330 264 588l20 16h12q6 0 16 -16v-8q-30 -35 -120 -268q-160 -314 -388 -932q-15 -12 -28 -12q-16 8 -16 24zM164 728v76q0 244 76 432q-4 7 -4 16l68 56h32q30 0 72 -132q40 -296 40 -592q0 -462 -56 -548q-31 -36 -56 -36h-16 q-109 0 -140 348q-8 133 -16 380zM200 796q13 -407 32 -556q33 -200 96 -200q80 0 80 536v8q0 343 -44 604q-32 80 -44 80h-4q-72 -46 -108 -356z" />
<glyph unicode="&#xf9;" horiz-adv-x="698" d="M185 1396l16 12h8q20 -10 20 -32v-20q36 -651 88 -1048q35 -268 108 -268q52 22 52 76q0 157 -32 792q4 116 4 224v96l-4 24l4 8q-4 54 -12 112l16 12h12q17 0 24 -112q0 -8 -4 -8q4 -60 4 -88v-128l-4 -24q0 -4 4 -4q-4 -47 -4 -68v-16q32 -696 32 -820 q-11 -116 -104 -116q-108 0 -144 384q-44 342 -84 1012zM218 1652q10 14 15 14h14q102 -72 213 -114q11 -11 11 -20q0 -11 -18 -20h-8q-115 37 -212 111q-15 12 -15 29z" />
<glyph unicode="&#xfa;" horiz-adv-x="698" d="M185 1396l16 12h8q20 -10 20 -32v-20q36 -651 88 -1048q35 -268 108 -268q52 22 52 76q0 157 -32 792q4 116 4 224v96l-4 24l4 8q-4 54 -12 112l16 12h12q17 0 24 -112q0 -8 -4 -8q4 -60 4 -88v-128l-4 -24q0 -4 4 -4q-4 -47 -4 -68v-16q32 -696 32 -820 q-11 -116 -104 -116q-108 0 -144 384q-44 342 -84 1012zM270 1504v2q0 22 146 92q52 27 65 27h5q27 0 27 -27q0 -13 -97 -55q-86 -44 -107 -57q-4 -2 -10 -2h-5q-24 3 -24 20z" />
<glyph unicode="&#xfb;" horiz-adv-x="698" d="M185 1396l16 12h8q20 -10 20 -32v-20q36 -651 88 -1048q35 -268 108 -268q52 22 52 76q0 157 -32 792q4 116 4 224v96l-4 24l4 8q-4 54 -12 112l16 12h12q17 0 24 -112q0 -8 -4 -8q4 -60 4 -88v-128l-4 -24q0 -4 4 -4q-4 -47 -4 -68v-16q32 -696 32 -820 q-11 -116 -104 -116q-108 0 -144 384q-44 342 -84 1012zM229 1512v5q2 35 98 134h9q56 -25 151 -102v-17q-4 -12 -20 -12q-6 0 -128 85h-3q-25 -29 -78 -102l-12 -6q-12 4 -17 15z" />
<glyph unicode="&#xfc;" horiz-adv-x="698" d="M185 1396l16 12h8q20 -10 20 -32v-20q36 -651 88 -1048q35 -268 108 -268q52 22 52 76q0 157 -32 792q4 116 4 224v96l-4 24l4 8q-4 54 -12 112l16 12h12q17 0 24 -112q0 -8 -4 -8q4 -60 4 -88v-128l-4 -24q0 -4 4 -4q-4 -47 -4 -68v-16q32 -696 32 -820 q-11 -116 -104 -116q-108 0 -144 384q-44 342 -84 1012zM259 1566v3q4 27 20 27h9q21 0 31 -28q0 -22 -31 -28h-9q-18 0 -20 26zM384 1560v2q0 23 26 31h3q21 0 28 -41v-3q-7 -27 -23 -27h-8q-26 6 -26 38z" />
<glyph unicode="&#xfd;" horiz-adv-x="650" d="M109 1224v8q0 6 16 16h16q13 -5 24 -40q160 -198 264 -420h4q44 381 64 516l12 8h8q6 0 16 -16v-4q-32 -286 -68 -560l4 -24v-12q-14 0 -44 -396q-12 -198 -28 -296l-8 -4h-12q-8 2 -16 20q44 527 64 688q-108 235 -284 472q-32 23 -32 44zM240 1504v2q0 22 146 92 q52 27 65 27h5q27 0 27 -27q0 -13 -97 -55q-86 -44 -107 -57q-4 -2 -10 -2h-5q-24 3 -24 20z" />
<glyph unicode="&#xfe;" horiz-adv-x="847" d="M103 1399v3q0 17 20 25h12q36 0 48 -337q8 -3 12 -3q248 0 408 -130q108 -128 108 -211q0 -85 -64 -207q-124 -134 -228 -164q-62 -33 -192 -78v-3q12 -249 12 -281q0 -16 -20 -25h-16q-16 6 -16 15q0 109 -16 279q-16 0 -28 15v10q0 5 28 18q-15 120 -36 724q0 16 -8 16 l4 18q0 145 -28 316zM187 1043q20 -498 32 -699v-3q193 58 320 151q82 76 104 161q16 74 16 93q0 86 -120 204q-132 84 -228 84q-18 8 -100 12z" />
<glyph unicode="&#xff;" horiz-adv-x="650" d="M109 1224v8q0 6 16 16h16q13 -5 24 -40q160 -198 264 -420h4q44 381 64 516l12 8h8q6 0 16 -16v-4q-32 -286 -68 -560l4 -24v-12q-14 0 -44 -396q-12 -198 -28 -296l-8 -4h-12q-8 2 -16 20q44 527 64 688q-108 235 -284 472q-32 23 -32 44zM243 1526v3q3 27 19 27h9 q22 0 31 -28q0 -22 -31 -28h-9q-17 0 -19 26zM367 1520v2q0 23 27 31h3q20 0 28 -41v-3q-7 -27 -24 -27h-7q-27 6 -27 38z" />
<glyph unicode="&#x2c6;" horiz-adv-x="1024" d="M266 1102v5q2 35 99 134h9q55 -25 151 -102v-17q-5 -12 -21 -12q-5 0 -128 85h-2q-26 -29 -79 -102l-12 -6q-12 4 -17 15z" />
<glyph unicode="&#x2dc;" horiz-adv-x="1024" d="M281 1075q47 92 116 92q56 0 200 -80h32q35 0 52 48l-4 8v16q0 6 16 16h16q6 0 12 -12v-4q0 -85 -68 -108q-7 -4 -20 -4q-74 0 -152 56q-59 24 -84 24q-47 0 -84 -80h-16q-16 7 -16 28z" />
<glyph unicode="&#x2000;" horiz-adv-x="854" />
<glyph unicode="&#x2001;" horiz-adv-x="1708" />
<glyph unicode="&#x2002;" horiz-adv-x="854" />
<glyph unicode="&#x2003;" horiz-adv-x="1708" />
<glyph unicode="&#x2004;" horiz-adv-x="569" />
<glyph unicode="&#x2005;" horiz-adv-x="427" />
<glyph unicode="&#x2006;" horiz-adv-x="284" />
<glyph unicode="&#x2007;" horiz-adv-x="284" />
<glyph unicode="&#x2008;" horiz-adv-x="213" />
<glyph unicode="&#x2009;" horiz-adv-x="341" />
<glyph unicode="&#x200a;" horiz-adv-x="94" />
<glyph unicode="&#x2010;" horiz-adv-x="670" d="M171 682v16q0 20 148 28q0 4 52 4q112 -11 112 -28v-12q0 -6 -16 -16q-70 16 -108 16q-34 0 -180 -20z" />
<glyph unicode="&#x2011;" horiz-adv-x="670" d="M171 682v16q0 20 148 28q0 4 52 4q112 -11 112 -28v-12q0 -6 -16 -16q-70 16 -108 16q-34 0 -180 -20z" />
<glyph unicode="&#x2012;" horiz-adv-x="670" d="M171 682v16q0 20 148 28q0 4 52 4q112 -11 112 -28v-12q0 -6 -16 -16q-70 16 -108 16q-34 0 -180 -20z" />
<glyph unicode="&#x2013;" horiz-adv-x="1108" d="M56 419v120h996v-120h-996z" />
<glyph unicode="&#x2014;" horiz-adv-x="2048" d="M0 419v120h2048v-120h-2048z" />
<glyph unicode="&#x2018;" horiz-adv-x="346" d="M109 1103q36 120 68 256l12 8h12q6 0 16 -16q-44 -195 -76 -260l-8 -4h-8q-6 0 -16 16z" />
<glyph unicode="&#x2019;" horiz-adv-x="346" d="M109 1103q36 120 68 256l12 8h12q6 0 16 -16q-44 -195 -76 -260l-8 -4h-8q-6 0 -16 16z" />
<glyph unicode="&#x201a;" horiz-adv-x="557" d="M119 114v42l119 125q44 0 88.5 -65.5t44.5 -151.5q0 -109 -71 -226.5t-139 -117.5v43q73 43 87 190q0 119 -129 161z" />
<glyph unicode="&#x201c;" horiz-adv-x="672" d="M212 1234q16 76 24 232l-12 20v8q8 16 20 16q32 -4 32 -32q-10 -256 -40 -256h-12q-6 0 -12 12zM360 1510q0 6 16 16h8q32 0 32 -224v-36q0 -3 4 -24q0 -24 -28 -24q-20 0 -20 252q-4 0 -12 40z" />
<glyph unicode="&#x201d;" horiz-adv-x="672" d="M212 1234q16 76 24 232l-12 20v8q8 16 20 16q32 -4 32 -32q-10 -256 -40 -256h-12q-6 0 -12 12zM360 1510q0 6 16 16h8q32 0 32 -224v-36q0 -3 4 -24q0 -24 -28 -24q-20 0 -20 252q-4 0 -12 40z" />
<glyph unicode="&#x201e;" horiz-adv-x="910" d="M119 114v42l119 125q44 0 88.5 -65.5t44.5 -151.5q0 -109 -71 -226.5t-139 -117.5v43q73 43 87 190q0 119 -129 161zM472 114v42l119 125q44 0 88.5 -65.5t44.5 -151.5q0 -109 -71 -226.5t-139 -117.5v43q73 43 87 190q0 119 -129 161z" />
<glyph unicode="&#x2022;" horiz-adv-x="1024" d="M216 718q0 123 87 209t210 86q122 0 208.5 -86.5t86.5 -208.5t-87.5 -209.5t-209.5 -87.5q-123 0 -209 87t-86 210z" />
<glyph unicode="&#x2026;" horiz-adv-x="2048" d="M129 136q0 15 16 31l82 84q15 14 29 14q13 0 31 -16l80 -86q12 -16 12 -29q0 -15 -14 -31l-80 -88q-20 -20 -29 -20q-16 0 -29 14l-88 101q-10 13 -10 26zM812 136q0 15 16 31l82 84q15 14 29 14q13 0 31 -16l80 -86q12 -16 12 -29q0 -15 -14 -31l-80 -88 q-20 -20 -29 -20q-16 0 -29 14l-88 101q-10 13 -10 26zM1495 136q0 15 16 31l82 84q15 14 29 14q13 0 31 -16l80 -86q12 -16 12 -29q0 -15 -14 -31l-80 -88q-20 -20 -29 -20q-16 0 -29 14l-88 101q-10 13 -10 26z" />
<glyph unicode="&#x202f;" horiz-adv-x="341" />
<glyph unicode="&#x2039;" horiz-adv-x="631" d="M174 479l342 303h14v-37l-205 -266l205 -266v-37h-14z" />
<glyph unicode="&#x203a;" horiz-adv-x="631" d="M101 176v37l205 266l-205 266v37h14l342 -303l-342 -303h-14z" />
<glyph unicode="&#x205f;" horiz-adv-x="427" />
<glyph unicode="&#x20ac;" horiz-adv-x="746" d="M75 694q0 6 16 16q46 -20 108 -20h4v24l4 40q-128 9 -128 36q-4 7 -4 20l16 12h8q0 -18 108 -28q0 151 112 400q97 172 204 172q52 0 52 -32q0 -11 -20 -20l-24 12h-4q-149 0 -260 -392q-20 -120 -20 -140h272q6 0 12 -12v-12q-5 -16 -36 -16h-244q-8 -1 -8 -8v-52 q1 -8 8 -8q202 -4 268 -4l28 4q18 -8 20 -16v-12q-8 -16 -20 -16q-58 0 -304 4v-4q0 -119 60 -324q96 -115 152 -128q59 -30 220 -72l8 -12v-12q0 -12 -16 -12q-249 52 -340 144q-73 77 -92 184q-16 73 -36 240q-124 0 -124 44z" />
<glyph unicode="&#x2122;" horiz-adv-x="931" d="M225 1249v8q9 32 216 48q20 -6 20 -28q0 -6 -16 -16l-20 4q-75 -8 -84 -12q24 -42 40 -300q-6 -16 -12 -16h-20q-3 0 -12 12l4 20q-20 272 -44 272v4h-4l-40 -12h-12q-6 0 -16 16zM481 965q13 231 32 332q0 20 20 32h12q19 0 36 -80h8q0 49 40 84h16q46 0 60 -392l-8 -4 h-16q-20 11 -20 40q0 175 -24 292h-4q-20 -78 -20 -188v-16q0 -6 -12 -12h-12q-21 0 -36 156q-5 0 -8 28h-4q-12 -106 -16 -272q-15 -12 -28 -12z" />
<glyph unicode="&#x25fc;" horiz-adv-x="1375" d="M0 0v1375h1375v-1375h-1375z" />
</font>
</defs>
</svg>
