<?xml version="1.0" standalone="no"?>
<!DOCTYPE svg PUBLIC "-//W3C//DTD SVG 1.1//EN" "http://www.w3.org/Graphics/SVG/1.1/DTD/svg11.dtd" >
<svg xmlns="http://www.w3.org/2000/svg">
<metadata></metadata>
<defs>
<font id="shorelines_script_boldregular" horiz-adv-x="1014" >
<font-face units-per-em="2048" ascent="1638" descent="-410" />
<missing-glyph horiz-adv-x="508" />
<glyph unicode="&#xd;" horiz-adv-x="508" />
<glyph horiz-adv-x="0" />
<glyph horiz-adv-x="0" />
<glyph unicode=" "  horiz-adv-x="508" />
<glyph unicode="&#x09;" horiz-adv-x="508" />
<glyph unicode="&#xa0;" horiz-adv-x="508" />
<glyph unicode="!" horiz-adv-x="371" d="M-25 734v18q16 87 85 87q62 0 81 -82q0 -75 -91 -92h-8q-67 12 -67 69zM75 1122v8q0 29 65 208q117 366 176 497q26 16 44 16q53 0 53 -53v-8q0 -36 -121 -384q-100 -341 -129 -341l-27 -16q-61 36 -61 73z" />
<glyph unicode="&#x22;" horiz-adv-x="578" d="M75 1390q107 330 140 379l35 18q34 0 69 -57q-15 -62 -103 -330q-23 -111 -76 -111h-17q-48 38 -48 101zM307 1319v27q0 41 114 333q37 104 87 104h12q27 0 46 -57q-128 -412 -158 -447q-22 -14 -40 -14q-27 0 -61 54z" />
<glyph unicode="#" horiz-adv-x="990" d="M-25 610v24q0 49 157 49h6l28 -4q49 0 57 85q36 100 36 134v20q0 9 -168 19q-68 22 -68 65v8q0 18 37 45q57 0 233 -8q25 0 63 135q40 97 92 97q57 -19 57 -69l-48 -168v-20q0 1 167 1q23 0 60 138q26 82 76 82q46 0 58 -62l-33 -130v-23q0 -1 10 -1q170 12 185 12h4 q64 0 85 -61q0 -74 -281 -85q-48 0 -57 -24q-58 -148 -58 -183v-8q0 -7 11 -7q26 0 211 12q90 0 90 -69q0 -56 -132 -65q-220 -6 -220 -9q-27 -29 -94 -264q-32 -51 -76 -51q-52 23 -52 69q0 14 60 212v30q-4 21 -4 3q-70 6 -147 6q-27 0 -56 -141q-39 -143 -100 -143h-6 q-67 11 -67 73l72 196v16q0 14 -112 19q-45 0 -76 45zM353 678q36 -7 55 -7h40q79 0 79 24q33 81 60 190v6q-8 14 -107 14q-83 0 -83 -43q-44 -138 -44 -152v-32z" />
<glyph unicode="$" horiz-adv-x="564" d="M-7 545v8q0 121 137 169h52q97 0 151 -108q3 0 31 -44q24 0 58 106q3 11 3 29v20q0 81 -86 112q-193 46 -229 96q-73 84 -73 176v16q0 106 125 219q48 40 122 56q24 17 82 212q20 63 36 168q29 74 97 74q52 -21 52 -64q-112 -394 -112 -413q0 -5 73 -75q6 -20 24 -20 q-26 -86 -62 -86q-39 0 -88 54q-28 18 -60 18h-24q-75 0 -125 -136q-6 -14 -6 -31q0 -84 90 -120q302 -53 302 -280v-4q0 -147 -169 -268q-33 -29 -52 -121q-51 -238 -51 -336q-22 -56 -68 -56q-70 15 -70 86q24 209 56 354q0 11 -90 12q-126 61 -126 177zM127 532 q13 -50 47 -50h28q23 0 23 11v28q0 61 -43 75h-12q-43 -13 -43 -64z" />
<glyph unicode="%" horiz-adv-x="755" d="M-25 984q33 165 113 165h29q136 -12 136 -135q-23 -159 -153 -159q-99 0 -125 129zM99 251q0 61 238 606q197 530 236 589l33 7h21q42 -25 42 -77q-86 -279 -205 -548q-20 -72 -200 -507q-27 -146 -92 -146h-8q-58 0 -65 76zM100 977q19 0 19 35q0 -1 -3 -1q-7 0 -11 -22 v-9q0 -5 -4 -3h-1zM471 418v22q0 72 86 119q35 14 61 14q131 -19 131 -122q-15 -164 -161 -164q-100 0 -117 131zM593 408q0 -9 9 -11q18 0 29 38v12l-5 6q-33 -5 -33 -25v-20z" />
<glyph unicode="&#x26;" horiz-adv-x="1725" d="M15 476q21 115 101 115q53 -18 53 -65v-48q0 -67 83 -67q112 0 635 214q277 114 481 114h44q109 0 109 -77q0 -51 -77 -61q-79 8 -119 8q-159 -16 -640 -222q-301 -102 -373 -102h-32q-70 0 -182 48q-83 75 -83 143zM47 1370q0 86 86 113q60 -5 60 -54q-4 -56 -4 -71 q0 -23 71 -23q30 0 356 87q440 172 655 185h21q139 0 241 -103q0 -8 4 -17q-5 -70 -71 -70q-110 52 -116 52q-26 4 -50 4q-118 0 -684 -199q-97 -28 -316 -65l-30 -4q-125 0 -198 82q-25 40 -25 83zM271 619q45 488 80 488q15 12 37 12h23q84 -48 133 -197q28 -79 57 -268 q-8 -65 -65 -65t-76 116q-3 4 -8 4h-16q-31 0 -43 -101q0 -25 -45 -59h-34q-43 23 -43 70zM416 835h16q7 0 7 1v2q0 51 -5 51q-13 -13 -13 -26q3 -28 -5 -28zM646 1112q33 31 67 31q85 -70 136 -148q5 0 20 -12h-23q9 28 34 208q23 36 58 36q59 -10 59 -62q-4 -85 -4 -124 h-4q0 46 4 46q0 -58 -5 -58q-3 -76 -3 -135v-88q0 -93 -77 -93q-57 0 -117 111q0 10 -13 17q7 0 7 -112q-8 -84 -65 -84h-23q-42 26 -42 63q8 51 12 126zM1071 819q28 156 28 311v92q0 77 81 77h32q135 0 211 -164q10 -33 10 -57v-16q0 -117 -156 -275q-72 -58 -117 -58h-12 q-66 0 -77 90zM1212 923h8q30 0 75 143q0 34 4 38q0 50 -60 73h1q-15 0 -15 -63v-172q0 -19 -13 -19z" />
<glyph unicode="'" horiz-adv-x="248" d="M15 1450v6q0 48 88 279l40 34q26 0 68 -50q-47 -232 -83 -319q-34 -25 -48 -25q-52 0 -65 75z" />
<glyph unicode="(" horiz-adv-x="4847" d="M15 688q0 282 338 451q194 86 395 86h44q243 0 574 -150q945 -350 1758 -350h140q722 0 1418 274q170 82 186 82h12q53 -17 53 -61v-12q0 -51 -147 -107q-168 -89 -576 -193q-491 -121 -1018 -121q-1021 0 -2112 457q-166 47 -308 47h-4q-371 0 -564 -234 q-55 -91 -55 -173q0 -214 175 -364q61 -45 164 -87q21 -27 21 -61q-20 -57 -73 -57q-230 71 -350 281q-71 149 -71 292z" />
<glyph unicode=")" horiz-adv-x="4821" d="M-92 997v20q0 52 196 85q581 132 1189 132q457 0 1032 -104q408 -56 776 -56h36q921 0 1349 307q170 142 170 312q0 278 -197 369q-102 38 -202 38q-18 0 -167 -16q-51 0 -58 76q0 74 217 74h36q242 0 395 -173q110 -146 110 -336v-52q0 -214 -217 -396 q-138 -103 -255 -147q-466 -194 -1201 -194q-503 0 -1132 108q-311 52 -692 52q-680 0 -1320 -165q-65 18 -65 66z" />
<glyph unicode="*" horiz-adv-x="628" d="M-25 1320q0 56 170 126q38 24 45 30q-6 14 -126 97q-33 33 -33 59v19q25 42 67 42q34 -7 133 -82l21 -6q9 0 15 95q20 81 69 81h5q56 -4 56 -59q-12 -92 -12 -138v13h-9q12 0 139 66q33 10 64 10q38 -42 38 -57q0 -42 -101 -90q-81 -47 -83 -51v-19q0 3 134 -102l6 -32 v-21q-26 -42 -69 -42q-21 0 -133 80q-8 4 -19 4h-4q1 0 -17 -118l-52 -32q-64 21 -64 71q-2 75 13 75q-35 0 -170 -64h-26q-42 0 -57 45z" />
<glyph unicode="+" horiz-adv-x="505" d="M4 1002v17q0 61 105 61q71 0 71 24q20 172 77 172h8q59 0 65 -72v-5q0 -38 -4 -103l7 -3q35 3 56 3h54q59 -8 59 -61v-4q0 -57 -103 -69q-97 -6 -97 -21q-16 -85 -32 -362q-19 -69 -73 -69h-4q-59 0 -69 71q0 58 32 335q0 30 -22 30l-103 22z" />
<glyph unicode="," horiz-adv-x="293" d="M-25 636v26q17 131 93 131q53 0 124 -82q53 -75 53 -155v-12q0 -118 -90 -169h-31q-17 0 -45 37v25l40 92q0 1 4 29q0 10 -2 13q3 1 -65 -12q-81 15 -81 77z" />
<glyph unicode="-" horiz-adv-x="756" d="M61 1060v8q0 41 88 45h117q72 0 148 -4q102 8 204 8q63 0 69 -72q0 -70 -149 -70q-453 10 -453 36q-24 16 -24 49z" />
<glyph unicode="." horiz-adv-x="363" d="M59 607v15q0 101 101 133q2 0 21 5q120 -45 120 -110q-43 -145 -145 -145q-74 0 -97 102z" />
<glyph unicode="/" horiz-adv-x="534" d="M13 768q0 43 26 125q97 208 331 208q36 0 99 -8q134 -15 134 -81v-8q0 -53 -62 -61q-111 20 -168 24q-71 0 -137 -36q-85 -65 -85 -151v-16q0 -98 316 -225q867 -286 2651 -286q862 0 1782 72q753 68 1010 68h112q609 0 1285 -153q535 -120 855 -256q165 -48 165 -110 q-11 -67 -65 -67h-13q-1126 452 -2287 452h-28q-154 0 -286 -8q-1429 -132 -2458 -132h-148q-1463 0 -2378 221q-651 176 -651 428z" />
<glyph unicode="0" horiz-adv-x="948" d="M-15 698v28q0 294 163 568q76 161 167 240q69 49 143 49h36q154 0 340 -130q101 -104 101 -243v-148q0 -314 -197 -602q-170 -235 -412 -235q-130 0 -264 170q-77 109 -77 303zM123 678q0 -236 170 -309q11 -6 33 -6h28q174 0 338 287q105 205 105 432v144 q0 141 -154 193q-40 26 -93 26h-20q-114 0 -185 -75q-94 -133 -175 -367q-47 -171 -47 -301v-24z" />
<glyph unicode="1" horiz-adv-x="449" d="M-25 1226v20q0 40 127 64q89 23 196 141q92 96 130 96h8q65 -19 65 -69q0 -15 -93 -232q-132 -476 -247 -845q-22 -172 -64 -172q0 -4 -42 -4q-52 42 -52 84q57 217 264 918l3 30l6 -4q-5 0 -115 -59q-80 -17 -112 -17q-74 18 -74 49z" />
<glyph unicode="2" horiz-adv-x="857" d="M-135 302q0 42 160 194q300 301 324 308q267 245 322 364q18 47 18 74v36q0 106 -138 127l-38 4q-210 0 -291 -226q-7 -28 -7 -61q0 -51 42 -125l10 -26q0 -33 -47 -58q-80 0 -134 155q-9 47 -9 86q57 190 168 295q92 78 253 78h28q152 0 236 -114q53 -67 53 -147v-24 q0 -158 -160 -322q0 -12 -358 -351q-46 -60 -193 -197l-5 -18q0 13 11 9l525 8q112 -14 112 -77v-12q0 -57 -145 -57h-588q-149 0 -149 77z" />
<glyph unicode="3" horiz-adv-x="762" d="M-105 687q15 128 81 128q63 0 69 -74q-12 -73 -12 -99v-24q0 -148 186 -249q67 -26 105 -26h20q145 0 261 233q26 74 26 138v56q0 171 -178 236q-30 7 -65 11q-59 -4 -100 -4q-59 0 -65 72q0 30 111 150q121 134 121 143v4q0 5 -97 11q-239 28 -239 66q-4 7 -4 23v15 q25 42 61 42h45q452 -27 452 -83l4 -20v-6q0 -40 -116 -138q-124 -126 -124 -150q1 -3 114 -45q137 -85 180 -182q38 -111 38 -213q0 -126 -71 -224q-49 -131 -199 -223q-79 -30 -119 -30h-28q-170 0 -337 147q-120 127 -120 315z" />
<glyph unicode="4" horiz-adv-x="774" d="M-35 373q0 31 128 226l315 556q68 110 167 292q55 39 58 43q0 11 56 40q66 -28 66 -76q0 -23 -40 -327q-88 -665 -88 -713v2q112 -16 112 -80q-11 -63 -77 -63q-75 0 -75 -46q-44 -186 -65 -373q-30 -49 -71 -49q-70 19 -70 81v14l56 286l12 78q0 21 -235 21 q-237 8 -237 36q-6 0 -12 52zM151 418q0 -1 145 -7q98 -8 154 -8q36 0 47 75q48 317 96 727q-3 16 -5 20q-9 0 -152 -283q-252 -440 -285 -521v-3z" />
<glyph unicode="5" horiz-adv-x="932" d="M-95 730q0 47 59 57q83 0 83 -142q17 -71 104 -161q169 -137 191 -137h8q107 0 286 96q157 127 157 303q-11 371 -225 461q-59 26 -202 26q-95 0 -249 -127q-27 -17 -63 -17q-57 20 -57 69v16q0 22 56 256q9 165 36 165q0 4 60 12q134 -8 157 -8q333 12 392 12 q133 0 133 -74q-23 -56 -85 -56q-365 -12 -516 -12h-28q-16 -21 -27 -101v-49h-25q156 48 244 48h4q189 0 363 -137q72 -51 140 -287q17 -33 26 -224q0 -254 -277 -419q-61 -30 -290 -75h-6q-80 0 -264 146q-173 146 -173 296q-12 21 -12 63z" />
<glyph unicode="6" horiz-adv-x="861" d="M-35 550q0 369 470 961q107 104 123 104h12q69 0 69 -61q0 -22 -114 -144q-178 -237 -265 -408q-139 -233 -153 -421v-11q0 -106 65 -155h2h5q24 26 69 151q168 233 394 233h8q152 0 211 -95q10 -43 10 -50q0 -135 -213 -331q-130 -98 -324 -98q-231 0 -342 214 q-27 58 -27 111zM335 372q2 -13 11 -13h20q172 0 307 185q48 74 48 98v19q-7 16 -59 16q-158 0 -267 -145q-60 -96 -60 -160z" />
<glyph unicode="7" horiz-adv-x="655" d="M-25 1479q21 48 65 48h116q461 -8 461 -32q28 -21 28 -57v-4q0 -18 -120 -309v-19q0 -11 84 -11q56 -22 56 -65q0 -35 -60 -65q-90 4 -121 4q-34 0 -80 -155l-220 -536q-28 -113 -88 -113h-23q-42 25 -42 61v12q0 45 94 254q174 438 174 462q0 10 -60 15q-132 0 -132 77 q0 49 84 53h153q36 0 76 135q47 117 47 140q0 11 -72 11q-103 12 -203 12h-96q-121 0 -121 82z" />
<glyph unicode="8" horiz-adv-x="732" d="M-25 482v32q0 194 202 448q82 85 82 108q0 2 -104 90q-116 123 -116 230q0 134 139 237q60 33 181 59q72 17 101 17h12q131 0 188 -157q9 -35 9 -64v-20q0 -127 -172 -342q-16 -28 -16 -40q1 -6 149 -132q115 -140 115 -286v-28q0 -248 -316 -387q-49 -18 -120 -22 q-146 0 -262 86q-72 79 -72 171zM105 478q0 -83 136 -131l44 -4q182 0 301 207q25 54 25 88q0 218 -218 343h-5q-24 0 -163 -185q-120 -191 -120 -314v-4zM173 1362q0 -30 66 -107q78 -80 101 -80h16q42 0 161 241q18 51 18 73q-7 84 -43 84h-22q-189 -29 -189 -48 q-53 0 -102 -96q-6 -23 -6 -39v-28z" />
<glyph unicode="9" horiz-adv-x="621" d="M-25 1184q0 190 123 354q132 95 238 95q185 0 260 -215q17 -104 17 -166q0 -259 -175 -552q-95 -179 -228 -365q-57 -122 -106 -140h-20q-59 0 -65 72v5q0 41 88 158q169 265 252 432v6q0 3 19 3q-103 -20 -126 -20h-20q-178 0 -244 203q-13 83 -13 130zM109 1144 q0 -129 101 -165q4 -2 10 -2h24q156 0 219 385q0 91 -77 133q-3 0 -35 11q-105 -24 -153 -71q-89 -103 -89 -279v-12z" />
<glyph unicode=":" horiz-adv-x="293" d="M-25 582q0 72 87 87h14q66 0 81 -93q-19 -101 -93 -101t-89 107zM115 1146q15 95 77 95h12q53 0 74 -77q-27 -97 -90 -97h-27q-46 28 -46 79z" />
<glyph unicode=";" horiz-adv-x="293" d="M-25 520q0 67 94 129q5 0 19 4q66 0 142 -126q27 -66 27 -131v-27q-36 -134 -118 -134q-40 15 -48 46q0 17 46 93q6 25 6 38t-9 46q-49 -11 -86 -11q-52 0 -73 73zM70 1158q36 111 98 111q75 0 97 -100q-19 -114 -105 -114h-8q-68 0 -82 103z" />
<glyph unicode="&#x3c;" horiz-adv-x="700" d="M-25 800v4q0 64 83 125q464 287 513 313q11 7 37 7q40 0 69 -55q0 -54 -161 -140l-367 -225q-8 -10 -8 -6q32 -29 269 -178q122 -93 219 -135q48 -36 48 -70q0 -65 -69 -65q-52 0 -406 244q-227 137 -227 181z" />
<glyph unicode="=" horiz-adv-x="541" d="M-25 780v8q0 35 67 49q415 -28 415 -44q13 0 25 -65q-27 -53 -72 -53q-77 12 -354 32q-81 20 -81 73zM15 1020v16q0 36 76 45q241 -4 295 -4q107 -20 107 -77q0 -55 -64 -61q-342 0 -404 48q-10 17 -10 33z" />
<glyph unicode="&#x3e;" horiz-adv-x="730" d="M-25 409v36q40 49 280 192l256 168v-9q0 37 -114 112q-293 228 -324 265l-6 31q10 57 61 57h4q40 0 343 -245q156 -113 189 -157q25 -36 25 -67q0 -59 -157 -130q-131 -79 -434 -277q-43 -10 -62 -10h-20q-20 0 -41 34z" />
<glyph unicode="?" horiz-adv-x="649" d="M-25 768q15 87 84 87q90 -24 90 -85q0 -70 -93 -85q-81 10 -81 83zM83 1082v4q0 98 136 254q96 79 214 143q78 70 78 159v28q0 101 -111 152q-33 7 -52 7q-52 0 -125 -80h-31q-33 11 -33 49v12q0 58 86 119q55 18 91 18q205 0 288 -242q9 -34 9 -63v-36q0 -200 -270 -314 q-100 -58 -147 -197q-22 -82 -72 -82q-61 0 -61 69z" />
<glyph unicode="@" horiz-adv-x="1079" d="M-25 912v28q0 221 215 450q163 155 362 155h4q223 0 369 -123q100 -105 100 -250v-40q0 -155 -155 -298q-49 -19 -82 -19q-87 0 -161 103q14 5 -98 -96q-60 -23 -93 -23q-111 0 -169 148q0 13 -4 35q0 144 145 248q84 35 132 35q112 0 199 -109l15 -51q-9 -36 -9 -69v-4 q0 -80 37 -87q30 0 83 93q26 76 26 130q0 158 -137 217q-84 34 -150 34h-44q-230 0 -385 -290q-50 -123 -50 -217q0 -153 110 -288q108 -119 281 -119h40q211 0 388 270q41 50 80 50q65 -19 65 -69q0 -45 -78 -128q-191 -253 -467 -253h-32q-213 0 -403 185 q-134 182 -134 352zM401 964q0 -32 30 -39h9q35 0 122 151q21 43 21 68q0 2 -8 3h-23q-94 0 -148 -143q-3 -10 -3 -24v-16z" />
<glyph unicode="A" horiz-adv-x="1285" d="M-236 623q7 202 254 480q185 181 334 181h6l37 1q146 -3 203 -156q5 -64 7 -167v-20q-25 -76 -32 -134q0 -113 75 -113q142 0 477 283q127 93 167 93q49 0 69 -57q0 -47 -174 -164q-339 -273 -523 -273h-2q-24 -3 -44 -3q-144 0 -178 171h12q-27 0 -181 -168 q-6 0 -120 -107q-85 -52 -167 -67q-21 -3 -41 -3q-129 0 -172 132q-10 24 -10 54q0 18 3 37zM-111 596q13 -65 59 -65h28q86 0 354 284q141 139 141 239v12q0 87 -87 87h-32q-141 0 -336 -246q-127 -189 -127 -311z" />
<glyph unicode="B" horiz-adv-x="1151" d="M-90 841q0 193 109 588q106 285 225 467q33 97 189 263q76 71 126 71q109 0 145 -147q-33 -324 -288 -708q-243 -331 -290 -378q-86 -50 -86 -196v-48q0 -305 309 -408q36 -7 66 -7h16q189 0 271 362v21q0 11 -23 11h-100q-168 0 -237 143q0 8 -4 36q0 140 221 183l39 4 q142 0 206 -119q0 -7 31 -73q82 0 294 171l36 5q63 0 63 -57q0 -80 -329 -236q-75 -15 -75 -114q-25 -165 -92 -279q-113 -176 -313 -176h-16q-234 0 -434 280q-59 120 -59 341zM59 1118h12q12 0 84 106q325 426 396 729q25 50 43 115q0 19 -24 40h-3q-58 -21 -155 -173 q-102 -146 -214 -383q-122 -347 -122 -443v-6q-2 15 -17 15zM464 909q0 -40 79 -55q32 -4 56 -4q103 0 103 27v28q0 68 -104 79h-3q-89 0 -131 -66v-9z" />
<glyph unicode="C" horiz-adv-x="1175" d="M-87 795v16q0 349 352 561q105 68 199 68q187 -29 187 -161q0 -46 -45 -77h-24q-35 0 -55 95q-22 33 -65 33q-146 0 -347 -257q-80 -132 -80 -242v-4q0 -208 151 -252q29 -11 93 -15q233 0 616 271q55 45 215 211q36 26 68 26h4q53 0 61 -63q0 -41 -180 -204 q-122 -115 -341 -228q-243 -135 -452 -135q-259 0 -348 279q-9 44 -9 78z" />
<glyph unicode="D" horiz-adv-x="1333" d="M-101 786v52q0 163 205 363q131 98 344 98h-3q15 48 83 323q114 284 209 396q120 133 217 145h26q98 0 117 -135v-6q0 -320 -251 -844q-99 -168 -203 -306l-2 -12v-3q23 -90 143 -90h44q204 0 452 295q47 25 64 25h6q63 -13 63 -65q0 -41 -116 -142q-185 -178 -314 -210 q-121 -41 -191 -41q-117 0 -239 117q-5 3 -9 3q-13 0 -112 -102q-152 -104 -267 -114q-149 0 -252 171q-14 52 -14 82zM13 800q25 -145 119 -145h20q94 0 263 161q56 55 56 82v10q-24 124 -36 256q-9 21 -31 21h-20q-115 0 -265 -136q-106 -140 -106 -249zM579 1023h1 q27 0 119 168q102 151 233 546q43 182 43 273v16v15h-8q-87 -18 -209 -223q-156 -319 -173 -593q0 -22 4 -131q-4 -55 -4 -71q0 -1 -1 -1t-5 1z" />
<glyph unicode="E" horiz-adv-x="1282" d="M-80 935q0 190 372 401q185 132 285 132h12q142 0 185 -129v-28q0 -97 -157 -198q-255 -111 -454 -111l-23 4q-90 -11 -90 -71v-24q0 -120 204 -180q82 -11 164 -19q230 0 504 122q91 46 283 197q42 33 68 33h34q47 -24 47 -65q0 -50 -227 -189q-308 -216 -762 -216 q-271 0 -418 221q-27 64 -27 120zM202 1125q31 -9 33 -9q387 74 417 198v17q0 17 -41 23h-10q-67 0 -377 -215q-22 -18 -22 -14z" />
<glyph unicode="F" horiz-adv-x="867" d="M-257 -39q0 506 169 995q53 219 190 504q95 190 235 365q124 153 239 153h4q109 0 109 -149q0 -199 -326 -613q-150 -146 -150 -175h1q14 0 225 -27q36 -4 81 -4h20q126 0 299 72h13q77 0 77 -61q0 -84 -347 -133h-86q-36 0 -292 36l-11 -1v1q5 0 82 -140 q94 -239 94 -499q0 -354 -106 -658q-101 -183 -247 -183q-173 0 -252 250q-21 75 -21 267zM-127 -47v-84q0 -177 99 -288q27 -15 40 -15h12q74 0 140 182q71 286 71 509q0 247 -51 443q-47 96 -133 216q8 0 -13 4q-12 0 -30 -89q-135 -448 -135 -878zM92 1134q28 0 261 283 q107 131 160 251q46 94 46 141v19q-2 40 1 40h-6q-57 -12 -217 -237q-153 -242 -232 -494v2q1 -5 -13 -5z" />
<glyph unicode="G" horiz-adv-x="1337" d="M-112 -346q0 475 471 974q83 78 238 190l6 15q-13 66 -60 112h12q-1 0 -68 -140q-88 -128 -222 -128h-28q-160 0 -266 165q-23 54 -23 124v16q0 177 211 353q75 40 146 40q147 0 258 -161q133 -311 155 -311q38 10 201 94q193 78 367 78q112 -11 112 -57v-16 q0 -50 -64 -61q-46 4 -77 4h-7q-215 -18 -451 -160q-9 -7 -9 1v-28q0 -9 79 -191q169 -556 169 -777v-72q0 -263 -110 -471q-77 -175 -176 -257q-127 -85 -267 -85h-12q-303 0 -510 365q-75 138 -75 304v80zM26 -390q0 -250 127 -397q133 -190 336 -190q287 0 400 520 q19 86 19 203q0 303 -174 823q-53 124 -62 130q-126 -30 -387 -356q-259 -361 -259 -733zM78 938q0 -111 174 -147h17q83 0 156 198q19 75 19 138q-32 138 -107 138h-28q-91 0 -191 -152q-40 -72 -40 -163v-12z" />
<glyph unicode="H" horiz-adv-x="1227" d="M-55 905q0 319 98 702q33 53 96 260q51 98 148 328q59 128 233 356q68 51 130 51h8q125 0 125 -217q0 -222 -65 -391q-45 -261 -433 -773q-194 -196 -194 -256q0 -20 -4 -148q0 -14 5 -47h-14q16 0 65 118q105 190 251 190q202 0 268 -336q49 -236 62 -236q29 -16 58 -16 h12q172 0 294 290q39 65 83 246q34 32 59 32h23q46 -29 46 -73q-3 -84 -127 -356q-152 -241 -256 -241q-7 -10 -129 -16q-161 0 -213 125q-16 56 -60 302q-52 149 -112 149h-24q-78 0 -200 -353q-48 -291 -71 -291q-6 -16 -45 -16h-4q-89 0 -89 220q-24 217 -24 397z M102 1214q17 0 120 138q336 457 388 740q43 116 43 261q-3 101 -8 103h-3q-58 0 -163 -204q-57 -75 -98 -198q-68 -104 -203 -497q-47 -163 -67 -306v-9q2 -28 -9 -28z" />
<glyph unicode="I" horiz-adv-x="1177" d="M-79 870q0 127 195 528q80 125 130 125q37 0 57 -39v-18q0 -30 -87 -168q-157 -310 -157 -452v-28q0 -154 184 -233q81 -30 171 -30q280 0 600 347q116 173 168 173h10q59 -8 59 -65q-49 -153 -326 -384q-268 -197 -491 -197q-141 0 -320 83q-193 124 -193 358zM337 1938 q0 52 73 70q93 -21 93 -82v-8q0 -55 -74 -65q-92 21 -92 85z" />
<glyph unicode="J" horiz-adv-x="492" d="M-504 -442q49 389 105 558q53 148 183 370q155 207 219 279q9 27 9 47v12q0 16 -60 289v17q10 75 61 75q58 0 88 -180q30 -116 28 -116q20 0 159 100q168 92 207 92q63 -13 63 -57q0 -63 -147 -99q-132 -82 -216 -155q-25 -28 -25 -68q40 -222 40 -502q0 -401 -163 -728 q-145 -245 -306 -245q-162 0 -212 145q-33 96 -33 166zM-350 -420q0 -177 46 -212q14 -11 21 -11h32q97 0 241 312q39 116 90 497q0 4 4 39q-9 231 -20 347q-9 47 -9 63q0 8 2 8q-32 0 -175 -217q-108 -152 -165 -392q-67 -261 -67 -434zM-120 1648v12q0 86 105 101 q81 -10 81 -80q-22 -106 -97 -106h-6q-83 12 -83 73z" />
<glyph unicode="K" horiz-adv-x="1272" d="M-869 1417q0 71 137 71q405 0 775 148q21 0 81 238q123 412 294 768q138 272 202 332q82 58 124 58h12q149 0 165 -324v-53q0 -202 -199 -588q-149 -256 -484 -469q-77 -52 -77 -125q-79 -399 -80 -524l-1 3h8q44 0 292 210q157 134 219 162q58 0 58 -53q0 -33 -201 -204 q-187 -139 -296 -232q-13 -25 6 -25q17 -39 187 -108q126 -42 235 -42q264 0 513 248q109 139 162 180h21q57 -19 57 -65q0 -45 -93 -132q-42 -73 -221 -208q-174 -125 -331 -125q-64 -20 -164 -20q-246 0 -477 188h1q-15 0 -15 -200q-8 -166 -8 -222q8 -98 8 -157 q0 -72 -58 -85q-84 0 -84 116q-4 0 -4 65q0 488 124 1234v10l-1 3q-28 0 -252 -71q-263 -53 -410 -53q-108 4 -172 4q-28 0 -53 47zM233 1747l1 -3q35 0 271 232q115 149 188 313q94 245 94 354v39q-10 212 -56 212q-63 -15 -188 -293q-284 -655 -310 -854z" />
<glyph unicode="L" horiz-adv-x="1221" d="M-58 897q0 482 110 731q37 109 100 237q65 163 382 751q141 190 242 223q51 13 59 13q101 0 101 -197q0 -163 -158 -617q-135 -331 -245 -528q-145 -231 -356 -473q-32 -27 -94 -67q-7 -19 -7 -27v-12q0 -243 166 -472q91 -99 257 -99q213 0 484 338q100 131 182 318 q38 48 72 48q67 -12 67 -74q-86 -213 -218 -379q-285 -299 -378 -327q-92 -46 -197 -46h-68q-408 0 -501 659zM68 1120q35 0 147 170q244 310 321 518q163 365 239 656q27 143 27 175v12q0 59 -3 59h-3q-47 -19 -137 -149q-44 -62 -373 -709q-206 -484 -206 -685v-23 q1 -24 -11 -24h-1z" />
<glyph unicode="M" horiz-adv-x="1715" d="M-166 600q89 291 165 673q46 200 92 200h12q59 0 65 -75q-56 -265 -56 -286v1h-21q15 0 82 81q106 83 206 83q105 0 211 -116h-7q10 0 135 62q74 22 133 22h24q221 0 299 -176q50 -133 50 -241v-44q0 -35 -28 -250q0 -75 47 -89q105 0 234 180q55 114 186 432 q36 24 67 24q66 -16 66 -68q-10 -41 -102 -230q-97 -296 -299 -409q-77 -39 -136 -39h-24q-125 0 -164 118q-13 55 -13 83v16q0 28 24 217q4 14 4 27q0 207 -103 308q-50 31 -108 31q-135 0 -216 -113l-3 -20q36 -187 36 -242q0 -159 -141 -254q-33 -15 -52 -15h-4 q-85 0 -97 132v33q0 78 80 356v8q0 98 -87 138q-2 1 -12 1q-124 0 -345 -457q-73 -167 -123 -167h-15q-62 15 -62 65zM515 642q35 24 35 122v45q-3 14 20 14q-50 -89 -50 -171q0 -11 -3 -11q-1 0 -2 1z" />
<glyph unicode="N" horiz-adv-x="1665" d="M-67 1007v4q0 81 259 285q131 72 222 72h8q120 0 229 -115q29 -8 188 -21q118 -37 165 -126q55 -116 55 -367v-44q0 -110 79 -144q27 -7 44 -7q180 0 397 405q40 119 113 119q63 -11 63 -61v-22q-30 -33 -102 -189q-48 -96 -160 -213q-115 -149 -299 -149h-40 q-162 0 -225 180q-27 396 -37 396q-44 124 -126 124h-24q-55 0 -55 -35q0 -336 -188 -550q-80 -63 -125 -63h-12q-90 0 -101 124q0 216 210 522q50 45 50 55v8q0 35 -83 63h-20q-128 0 -376 -292q-11 0 -31 -16h-39q-39 20 -39 57zM394 632q43 0 116 206q19 70 27 160 q-5 10 -8 10q-4 0 -4 -17q-27 -14 -107 -223q-15 -64 -19 -108q4 -20 4 -49v21h-9z" />
<glyph unicode="O" horiz-adv-x="1542" d="M-104 761q0 218 258 468q225 183 378 183h2q180 -39 223 -257q21 -71 21 -126q0 -13 -24 -190q0 -13 87 -13h8q156 0 447 110q82 36 213 127q36 15 52 15q53 -17 53 -61q0 -83 -353 -220q-280 -93 -445 -93q-57 4 -101 12q-33 0 -99 -96q-141 -120 -155 -120 q-84 -58 -226 -70q-217 0 -309 196q-30 64 -30 135zM22 773q0 -154 152 -209q28 -10 59 -10h7q171 13 302 183l4 12q-93 31 -162 79q-130 77 -164 218q0 16 19 95l-2 11h23q-152 -100 -231 -329q-7 -37 -7 -50zM354 1055q17 -115 230 -194q12 -3 25 -3q16 0 31 152v11 q0 173 -79 248q-16 11 -32 11q-51 0 -147 -129q-28 -50 -28 -96z" />
<glyph unicode="P" horiz-adv-x="1100" d="M-344 -165q0 127 101 646q105 371 191 494q0 95 230 239q119 38 191 38q150 0 258 -167q22 -13 102 -13q95 0 351 20q78 0 78 -61q0 -58 -80 -65q-68 0 -353 -4q-67 0 -67 -43q0 -232 -126 -307q-88 -34 -135 -34q-127 0 -159 63q-22 53 -22 90v32q0 90 156 209 q116 57 116 66q-43 100 -139 100q-83 0 -187 -89q-40 -44 -40 -85q32 -376 32 -593q0 -335 -98 -617q-81 -193 -167 -231q-41 -9 -60 -9h-4q-116 0 -157 188q-12 74 -12 133zM-206 -169q7 -183 48 -183q0 -4 -21 -4h12q45 0 92 159q99 259 99 520v56q-9 399 -12 399l-6 5 q-61 -81 -109 -301q-103 -442 -103 -651zM338 723q8 -39 31 -39h16q94 0 137 121q6 13 6 54v28v15h-11q-58 0 -155 -113q-18 -37 -24 -66z" />
<glyph unicode="Q" horiz-adv-x="1264" d="M-66 909q19 159 126 304q188 205 375 205h20q130 0 211 -118q10 -33 10 -50q-12 -58 -12 -69v-2q14 -108 120 -231q75 -54 151 -54q125 0 256 163q48 21 64 21q46 -15 57 -45v-40q-165 -225 -361 -225h-12q-93 0 -230 68h5q1 2 -2 -27l19 -177h-7q0 46 3 46 q5 -118 5 -165v-52q0 -422 -138 -831q-68 -98 -155 -98h-12q-140 0 -165 316v117q0 208 108 778v22q0 -17 13 -17q-3 0 -119 -71q-50 -9 -65 -9h-24q-146 0 -228 168q-9 36 -13 73zM64 925q0 -100 66 -130q31 -17 53 -17q98 0 254 315q97 158 97 168v12q0 28 -93 43h-13 q-95 -6 -231 -124q-133 -175 -133 -267zM396 -71v-40q0 -179 47 -224q4 -3 8 -3h2q31 28 66 146q87 330 87 684q-19 450 -56 464v-4q5 0 -67 -360q-87 -370 -87 -663z" />
<glyph unicode="R" horiz-adv-x="991" d="M-166 1144q0 133 147 262q55 24 82 24q95 0 117 -127v-31q-10 -111 -82 -226q-13 -38 -8 -38q-1 18 41 18q106 0 244 115q38 29 73 29q68 -5 68 -61q0 -23 -77 -115q-82 -130 -123 -431v-12q22 -113 91 -113h20q117 0 249 124q146 193 239 415q28 93 80 93h16 q32 0 45 -58v-11q-61 -180 -200 -402q-147 -212 -306 -266q-70 -17 -139 -17q-154 0 -212 158q-9 45 -9 79v32q0 125 64 324v14l1 -3h-2q-94 -16 -138 -16q-209 0 -277 200zM-36 1137q0 -31 11 -31q32 0 72 138q7 26 7 47l-3 17q-37 0 -80 -126q-7 -28 -7 -45z" />
<glyph unicode="S" horiz-adv-x="1043" d="M-139 1104q0 118 196 262q62 27 101 27h17q128 -15 128 -117v-36q0 -99 -149 -240q-69 -46 -91 -56v22q93 -97 157 -122q142 79 561 184l267 54q59 -21 59 -70q0 -67 -105 -77q-349 -67 -584 -150q-1 -3 -79 -34v25q236 -115 236 -268q0 -130 -168 -254q-78 -35 -157 -35 q-177 0 -290 165q-23 63 -23 100q0 155 161 275q-237 153 -237 345zM-5 1091q3 -23 6 -28q168 95 168 201v8q0 -9 7 -13h-14q-69 0 -163 -143q0 -4 -4 -25zM75 468q0 -76 166 -115h17q128 0 179 147v16q0 66 -216 171q-146 -112 -146 -187v-32z" />
<glyph unicode="T" horiz-adv-x="1350" d="M-230 1717v16q0 86 151 157h17q46 -11 46 -49q0 -20 -67 -89l-5 -19v-10q9 -58 164 -69q27 0 72 129q175 363 251 363q46 0 53 -59q-17 -55 -119 -222q-70 -155 -72 -168l3 -6v-1h-21q15 0 31 -4q8 0 389 103q109 41 483 41q82 -20 82 -77q0 -55 -65 -61q-91 12 -160 12 h-44q-186 0 -602 -131q-157 -34 -157 -53q-120 -264 -120 -455q0 -243 117 -399q134 -116 322 -116q246 0 487 186q202 213 299 339q24 19 46 19q53 0 65 -69q-17 -97 -377 -431q-82 -63 -305 -137q-133 -33 -192 -33q-405 18 -525 266q-83 168 -83 371q0 158 108 456v20h-1 q-10 0 -148 37q-123 69 -123 143z" />
<glyph unicode="U" horiz-adv-x="1508" d="M-335 1086q0 45 68 53h17q269 0 322 104q256 392 434 392q101 0 148 -121q5 -21 5 -36q0 -102 -179 -229q-153 -97 -321 -162q-42 -17 -114 -199q-70 -160 -70 -238v-16q0 -102 93 -136q18 -3 30 -3h16q136 0 393 283l180 241l50 17q74 -17 74 -68q-28 -169 -28 -198v-3 q8 -96 62 -96l16 -4q137 0 444 289q162 147 222 147q60 -24 60 -69q0 -38 -75 -93q-49 -31 -302 -254q-188 -146 -344 -146q-151 0 -213 131q0 38 -15 49q4 0 -126 -148q-214 -208 -378 -208h-4q-213 0 -279 160q-22 56 -22 129v12q0 77 108 353v7v-5q-6 0 -180 -8 q-92 12 -92 73zM251 1287q90 22 251 166q7 16 7 17v8q0 20 -6 23h-1q-62 0 -218 -207q-5 -16 -7 -16t-2 9h-24z" />
<glyph unicode="V" horiz-adv-x="1413" d="M-648 1034v24q0 62 247 253q167 100 290 100h24q135 0 193 -83q24 -35 24 -82v-44q0 -73 -77 -303q-67 -283 -67 -317v-12q0 -103 35 -115h8q52 0 290 392q158 284 222 354q22 14 40 14h12q59 0 65 -73l-12 -101q0 -110 139 -110h48q81 0 384 103q155 53 190 53 q75 -10 75 -61q0 -72 -176 -89q-376 -128 -477 -128h-44q-179 0 -259 114l-4 1q-8 -2 -75 -146q-273 -449 -430 -449h-4q-119 0 -153 183v86q0 141 109 494q23 103 23 134q0 75 -63 75q-214 0 -476 -290q-26 -18 -44 -18q-28 0 -57 41z" />
<glyph unicode="W" horiz-adv-x="1922" d="M-383 1071v23q26 55 109 55q55 0 320 71q30 12 122 113q165 180 301 180q114 -25 114 -97q0 -88 -193 -206q-90 -45 -209 -81q-77 -50 -139 -315q-15 -58 -15 -110q0 -185 97 -212l16 -3q121 0 308 307q88 185 146 185q46 0 70 -71q-33 -161 -33 -202v-24 q0 -183 107 -183q127 0 240 346q36 133 57 265q30 29 63 29q21 0 166 -74q72 -26 114 -26q262 0 518 44h45q46 -29 46 -65q0 -68 -195 -77q-176 -24 -306 -24h-68q-146 0 -268 44q-22 0 -52 -205q-57 -170 -191 -312q-80 -67 -189 -67h-4q-158 0 -200 190q-19 50 -10 49 q-6 -4 -153 -165q-130 -90 -221 -90q-158 0 -232 214q-9 36 -9 75v36q0 178 66 310q11 33 19 70q1 -1 -4 -1h-2l-268 -36h-18q-47 0 -65 40zM302 1321q53 0 111 72v-14q7 0 7 1t-5 4q-69 -37 -90 -86v-1q-2 0 -2 24h-21z" />
<glyph unicode="X" horiz-adv-x="1765" d="M-72 982v9q0 68 167 89h30q137 0 352 -201q45 -77 65 -79h3q8 0 226 236q38 40 84 118q48 26 73 26q50 -12 50 -61q0 -46 -306 -360q-50 -67 -50 -72v-4q26 -83 213 -219q114 -64 234 -64h12q253 0 463 281q72 112 138 275q30 88 80 120h35q19 0 49 -41v-20 q0 -67 -107 -268q-85 -158 -165 -230q-250 -243 -505 -243h-20q-295 0 -491 244q-47 48 -57 48q-27 0 -272 -282q-43 -62 -88 -62h-4q-37 0 -53 36v17q0 43 271 321q65 72 65 81q-94 200 -314 282q-28 7 -38 7l-84 -20q-40 0 -56 36z" />
<glyph unicode="Y" horiz-adv-x="1362" d="M-179 607v26q0 162 157 464q39 33 74 33q47 -24 47 -61q-15 -53 -118 -285q-26 -88 -26 -151q0 -131 67 -131q72 0 164 130q70 86 197 265q43 41 75 41h4q77 0 77 -130q-4 -42 -4 -67q0 -79 63 -156l-2 1q6 0 120 129q233 202 405 283q84 66 235 88q79 0 79 -57v-12 q-18 -53 -81 -53q-110 0 -428 -242q-247 -222 -251 -274v-11q12 -34 180 -299q220 -378 220 -427q64 -127 64 -353q4 0 4 -53q0 -284 -229 -515q-158 -114 -320 -114q-239 0 -477 307q-72 131 -72 286v80q0 291 150 594q94 230 247 446q51 57 51 80q0 15 -95 227h12 q-19 0 -92 -105q-154 -215 -292 -215q-165 0 -205 231zM183 -595q0 -307 55 -365q92 -165 260 -239q55 -15 96 -15q220 0 353 261q62 172 62 278v48q0 299 -280 719q-107 195 -148 232h-3q-27 0 -111 -145q-106 -137 -241 -505q-43 -172 -43 -269z" />
<glyph unicode="Z" horiz-adv-x="1175" d="M-185 -345q0 291 417 863q173 228 348 339q74 31 103 67v-15q-51 57 -151 57q-54 0 -214 -76h-24q-63 9 -63 61v17q19 23 138 103q72 62 96 149q6 12 6 23v18q-2 17 -15 17h-16q-125 0 -300 -167q-86 -141 -128 -141h-12q-53 0 -53 55q15 98 170 238q212 133 339 133 q157 0 157 -145v-12q0 -48 -48 -150v-14h1q11 0 122 -24q126 -63 128 -63h16q11 0 190 47q60 13 142 13q47 0 73 -46v-15q0 -65 -129 -65q-103 0 -197 -53q2 4 2 9q32 -127 32 -191v-44q0 -224 -162 -626q-73 -159 -217 -323q-173 -173 -335 -254q-108 -48 -167 -50 q-152 0 -227 135q-22 70 -22 130zM-47 -345v-36q0 -74 60 -105q21 -6 27 -6h27q115 12 261 138q198 177 242 277q57 79 127 253q110 288 110 538q-8 100 -34 100q-79 -5 -263 -181q-274 -297 -320 -406q-237 -351 -237 -572z" />
<glyph unicode="[" horiz-adv-x="2660" d="M6 774l2 4l-2 4q14 109 110 203q127 94 265 94v11l-20 -10q84 -18 84 -58v-16q0 -46 -132 -57q-152 -48 -152 -191q0 -43 39 -101q66 -77 214 -115l9 -2v7q57 -16 104 -16q94 4 170 23v-5q141 29 224 55v-5q294 82 654 223q630 209 717 209q19 6 114 24q31 0 31 1 q57 11 176 11q116 -13 116 -77q0 -47 -53 -65q-27 0 -136 4q-150 0 -510 -103q-57 -12 -195 -64q0 15 46 15q0 -1 -181 -59q-522 -192 -731 -244q0 -9 -58 -9v-6q-38 -13 -264 -50l-28 -8v-1q24 11 -92 -2v-8q23 11 13 11q-254 0 -426 155q-92 107 -108 218z" />
<glyph unicode="\" horiz-adv-x="520" d="M-7803 -149q0 62 165 110q320 136 854 256q677 153 1286 153h112q257 0 1010 -68q920 -72 1782 -72q1784 0 2651 286q316 127 316 225v16q0 86 -85 151q-66 36 -137 36q-57 -4 -168 -24q-62 8 -62 61v8q0 66 134 81q63 8 99 8q234 0 331 -208q26 -82 26 -125 q0 -252 -651 -428q-915 -221 -2378 -221h-148q-1029 0 -2458 132q-132 8 -286 8h-28q-1161 0 -2287 -452h-13q-54 0 -65 67z" />
<glyph unicode="]" horiz-adv-x="2884" d="M-59 1000v12q0 60 260 120q93 21 278 35v9l-23 -11h78q-21 0 -21 19l39 -19h2q-21 0 -21 19l33 -16l8 4l8 -4l8 4l8 -4l8 4l7 -4q1 1 42 1v-4q-46 0 -46 8l55 -8h22q43 0 153 -5v-3q-46 0 -46 6q157 -14 136 -6v2q43 -15 96 -22v4q320 -48 512 -87v4l64 -12v5 q107 -22 194 -22q0 -4 -46 -4v9q67 -12 124 -15v17l39 -19h184l55 8v7l-23 -11h36l55 8v-4q192 31 264 66q258 122 258 293v12q0 58 -60 165v15q19 57 57 57q106 0 153 -196q4 -29 4 -57q0 -199 -248 -357q-87 -53 -239 -95q-109 -29 -247 -44v-11q26 15 -48 7v-8l23 11h-90 q21 0 21 -19l-39 19h-14q21 0 21 -19l-39 19h2q21 0 21 -19l-39 19h-80l7 -1q0 1 -54 1v-11l17 8l17 -8v-4q-39 19 -37 19q-141 4 -187 12v-4q-198 28 -623 104q23 0 23 -8l-108 16v-3q-82 10 -82 11q46 0 46 -9l-47 9h-34q-29 0 -29 4q46 0 46 -7l-72 8v-16q-39 19 -37 19 q-136 4 -177 4v-11l23 11h-94q-219 0 -319 -46q-132 -46 -182 -46q-56 22 -56 65z" />
<glyph unicode="^" horiz-adv-x="4166" />
<glyph unicode="_" horiz-adv-x="756" />
<glyph unicode="`" horiz-adv-x="352" d="M-25 1323q0 55 77 71q68 -39 164 -170q97 -111 137 -173v-18q-35 -58 -77 -58q-62 0 -188 182q-108 122 -113 166z" />
<glyph unicode="a" horiz-adv-x="1382" d="M-87 883q6 175 172 351q133 126 309 129l54 -2q118 -1 165 -104q12 -27 53 -226q75 -175 264 -175q181 0 400 210q42 10 62 10q47 -22 47 -57q0 -51 -97 -120q-129 -113 -332 -165q-44 -4 -68 -4h-16q-268 0 -387 243l-8 5q3 0 -64 -121q-151 -203 -329 -203h-4 q-136 0 -207 152q-14 43 -14 77zM43 903q0 -101 87 -127h20q142 0 289 305q42 102 42 138v24q0 -4 -62 -1h-8q-204 0 -321 -209q-47 -68 -47 -130z" />
<glyph unicode="b" horiz-adv-x="1093" d="M-54 963l2 19q21 237 329 801q110 199 408 489q172 172 283 172q6 0 12 -1q82 -7 82 -126v-11l-1 -5q-10 -115 -284 -547q-163 -254 -449 -578q-116 -134 -235 -249q-13 -18 -15 -48q-1 -16 -1 -32q0 -151 128 -284q50 -40 109 -45q6 -1 12 0q127 0 189 244l4 50 q1 15 1 30q0 88 -42 213q21 48 50 50l26 -2q28 -3 114 -52q57 -26 119 -32h4q39 0 291 50l49 -5q34 -19 34 -53v-6q-5 -56 -186 -81q-81 -24 -168 -24q-25 0 -51 2q-73 11 -103 14l-2 -6l-1 -7q4 -55 3 -84v-19l-2 -20q-15 -165 -155 -316q-71 -60 -175 -60q-16 0 -33 1 q-245 22 -338 349q-11 68 -11 136q0 37 3 73zM85 1096q32 10 112 112q332 376 514 663q218 359 224 428q-2 22 7 21l-11 1q-37 1 -285 -255q-192 -191 -337 -486q-109 -210 -199 -470l-1 -13q0 -1 -24 -1z" />
<glyph unicode="c" horiz-adv-x="1287" d="M-69 847q0 82 46 202q75 162 305 269q76 30 178 30q112 0 185 -130v-15q0 -43 -49 -57q-36 0 -111 80q-27 12 -37 12h-40q-94 0 -253 -144q-86 -127 -86 -243q0 -140 221 -245q59 -22 171 -30q210 0 442 116q188 135 344 351q0 23 55 33h18q57 0 57 -57q0 -58 -303 -350 q-125 -126 -387 -182q-12 -4 -104 -16v-8l23 11h-20q-96 -16 -130 -16q-189 0 -343 105q-182 138 -182 284z" />
<glyph unicode="d" horiz-adv-x="1994" d="M-178 706v44q4 181 199 381q128 106 353 132l102 -5q65 -17 190 -51q-47 -40 -67 -40q-15 0 -16 23q0 9 3 22q0 4 -4 45q7 297 126 607l125 261q70 140 150 204q36 10 56 10q121 0 121 -124q4 0 4 -34q-16 -206 -28 -293q0 23 4 23q0 -199 -234 -875q-90 -173 -90 -202 v-7q64 -168 315 -172h36q396 0 732 338q50 90 96 90h4q43 0 66 -59q-28 -111 -341 -340q-319 -143 -493 -143q-19 0 -107 -8q-80 0 -259 62q-47 24 -127 110q16 -7 -13 -41q-139 -191 -378 -250q-49 -22 -115 -22q-10 0 -21 1h-12q-275 0 -372 274q-5 20 -5 39zM-44 750 q0 -170 181 -236q42 -7 61 -7q236 15 425 249q31 60 31 78q-35 106 -60 266q0 1 -76 10q-39 27 -95 27q-313 0 -456 -311q-11 -53 -11 -76zM720 1230q21 -219 23 -219q8 0 25 53q83 159 238 778l20 342q-4 13 5 13q-35 -10 -185 -345q-91 -231 -118 -452q0 23 4 23 q0 -37 -12 -193z" />
<glyph unicode="e" horiz-adv-x="1229" d="M-103 932q0 73 114 246q172 162 275 184q74 37 136 37h18q147 -20 147 -111q-22 -128 -232 -264q-49 -25 -310 -105q-6 -4 -6 -9v-4q42 -139 131 -190q90 -49 212 -49h36q396 0 732 338q50 90 96 90h4q43 0 66 -59q-28 -111 -341 -340q-319 -143 -493 -143q-19 0 -107 -8 q-87 0 -269 67q-109 87 -170 189q-22 0 -39 131zM66 1055h4q58 0 215 73q152 114 152 150q0 7 -11 7h-9q-197 -49 -296 -171q-42 -49 -42 -61q0 2 -13 2z" />
<glyph unicode="f" horiz-adv-x="938" d="M-193 1142q0 55 117 95q116 47 143 110q94 256 275 532q115 188 218 188h29q93 0 93 -121v-20q0 -148 -76 -248q0 -53 -210 -270q-76 -69 -201 -156q-61 -79 -72 -171q0 -45 446 -78h80q84 0 238 69q10 7 32 7q85 0 85 -61q0 -65 -303 -129q-33 -4 -72 -4q-112 0 -355 24 q-1 0 -6 -1v10q0 -19 82 -162q54 -156 95 -408v-28l9 -47h6l-11 24q8 -129 8 -211v-24q0 -136 -87 -417q-71 -146 -208 -196q-12 0 -34 -4q-192 0 -280 372q-29 162 -29 205v36q0 44 16 109q-4 24 -4 43v12q0 180 94 678q32 91 59 244v2q0 -10 1 -10q-88 -31 -125 -31h-8 q-17 0 -45 37zM-42 -3q0 -63 74 -301q65 -124 91 -125h15q45 0 123 142q30 67 53 251q0 -23 -4 -23q0 35 4 43q4 109 4 142q0 34 -4 146q-4 8 -4 43h1q-21 197 -63 322q-104 257 -187 302q0 -2 3 -2q-21 0 -94 -636q0 -104 -12 -150q0 24 6 24l-6 -74v-19q0 -19 7 -85h-7z M230 1427q103 77 194 198q124 167 124 305q0 4 2 4h1q-71 -67 -121 -168q-187 -304 -187 -341q-2 2 -13 2z" />
<glyph unicode="g" horiz-adv-x="1274" d="M-113 727v20q0 265 251 473q104 56 194 56q165 0 223 -147q110 -209 187 -333l13 -8q5 0 100 97q163 150 347 198q38 9 76 13q63 -15 63 -69q0 -50 -198 -96q-92 -28 -257 -189q-53 -60 -53 -75v-12q0 -24 76 -149q0 -22 166 -356q48 -107 73 -245q57 -171 57 -363 q-16 -348 -41 -433q-39 -200 -82 -282q-62 -107 -177 -251q-120 -70 -237 -70q-187 0 -330 152q-47 50 -165 304q-50 140 -50 305q0 88 50 311q12 16 26 139q146 428 320 735q132 204 132 219v5q-12 57 -124 206h18l-50 -133q-98 -204 -151 -224q-73 -51 -160 -51h-20 q-156 0 -258 168q-19 34 -19 85zM25 771q0 -120 80 -167q25 -16 63 -16h12q123 0 193 223q18 23 38 161q-16 182 -60 182q0 8 -15 8h-24q-105 0 -215 -164q-72 -125 -72 -219v-8zM261 -741q0 -270 199 -544q86 -99 212 -99q222 0 328 358q71 217 71 489q0 485 -317 1040 q-18 35 -24 35q-21 -4 -156 -266q-132 -274 -214 -509q-99 -332 -99 -504z" />
<glyph unicode="h" horiz-adv-x="1173" d="M-109 578q0 371 102 572q334 794 499 1008q126 184 199 255q68 59 121 59h9q88 -10 88 -85q0 -199 -304 -717q-101 -165 -326 -443q-222 -269 -222 -304q-19 -54 -32 -211q3 -12 -9 -12h-2q36 35 101 165q103 123 209 123q138 0 231 -248q63 -143 127 -170q21 -10 46 -10 h24q94 0 213 119q86 118 131 243q37 154 101 154q64 -6 64 -64q-40 -195 -197 -416q-137 -158 -336 -158q-213 0 -319 295q-67 125 -88 125q-7 4 -9 4h-4q-95 0 -220 -342l-37 -202q-25 -22 -55 -32q-79 0 -89 146q-12 75 -16 146zM196 1324q20 0 160 210q172 220 313 520 q67 142 98 260v4q1 -1 1 -2q0 -2 -4 -2q-10 0 -135 -177q-224 -328 -224 -372q-143 -301 -192 -442v-14q-2 15 -17 15z" />
<glyph unicode="i" horiz-adv-x="763" d="M-196 593q0 78 54 230q122 251 126 251q0 6 44 8h7q63 -13 63 -65v-28q-51 -154 -97 -196q-63 -113 -63 -204q0 -43 67 -43q184 0 515 298q10 25 62 53q76 72 164 173h41q59 -8 59 -61v-8q0 -33 -98 -132q-49 -63 -131 -120q-368 -337 -620 -337q-193 0 -193 181z M108 1437q0 80 143 112q18 5 42 5q51 0 61 -71q0 -80 -93 -116q-14 -10 -65 -15q-88 18 -88 85z" />
<glyph unicode="j" horiz-adv-x="719" d="M-475 -872q0 35 10 181h2q0 -46 -7 -46q36 286 116 493q72 230 162 400q124 213 270 398l3 18q-14 94 -119 463q-5 30 -5 49v4q0 37 39 57h34q50 0 120 -303q42 -145 40 -145h8q8 0 103 94q346 274 433 274h4q39 0 57 -44v-17q0 -49 -142 -111q-115 -58 -318 -247 q-88 -90 -88 -119q63 -223 108 -496h-3q35 -183 35 -551q0 -111 -40 -318q0 23 4 23q0 -63 -40 -163q-11 -159 -211 -404q-88 -71 -231 -107h-19q-64 0 -155 89q-139 194 -166 449q-4 40 -4 79zM-333 -796v-32q0 -262 116 -446q61 -89 107 -89q67 0 148 98q127 193 127 237 q55 153 76 387q16 91 16 141q0 356 -44 561q0 62 -74 348q-1 2 5 2q-77 -74 -208 -307q-96 -165 -198 -475q-71 -309 -71 -425zM25 1612q0 38 68 65q94 0 94 -78q-25 -60 -79 -60q-83 14 -83 73z" />
<glyph unicode="k" horiz-adv-x="1409" d="M-121 342l8 55v73q16 69 16 105v12q0 50 -4 115q0 35 28 145q8 86 8 149h4q0 -46 -4 -46q0 130 53 308q56 227 108 369q78 278 185 503q74 163 263 424q127 174 222 174q95 -16 95 -117v-12q0 -110 -102 -369q-191 -493 -358 -729q-109 -161 -300 -407q-21 -44 -56 -372 q1 -2 -18 -2q23 18 149 226q217 258 288 258h8q53 0 61 -63q0 -38 -178 -214q-102 -139 -102 -183q6 -89 172 -271q85 -69 235 -69q388 0 621 473q74 187 105 187l23 5q64 -18 64 -66v-15q-30 -53 -74 -170q-33 -87 -146 -221q-92 -180 -349 -270q-124 -41 -240 -41h-44 q-305 0 -472 329q-8 7 0 7q-65 -83 -75 -160q-33 -130 -59 -201q-28 -27 -66 -27q-58 0 -65 76v37q0 16 4 23q0 -28 -8 -28zM157 1358q1 -2 2 -2q2 0 2 19q3 2 86 120q0 7 175 284q297 606 297 780q0 7 -3 19q-1 0 -75 -121q-212 -282 -250 -411q-111 -236 -227 -657z" />
<glyph unicode="l" horiz-adv-x="1052" d="M-55 970q0 233 100 474q0 38 66 176q138 405 297 676q118 200 126 200q23 29 59 97q65 75 145 75h13q60 -27 60 -105v-4q0 -213 -262 -842q-102 -248 -391 -686q-55 -56 -55 -104v-12q0 -58 78 -180q84 -79 173 -79h51q105 6 306 116q177 159 248 235q50 61 87 61h14 q47 -22 47 -63q-13 -71 -298 -306q-223 -161 -447 -161q-300 0 -400 331q-13 59 -17 101zM86 1148h1q32 34 173 280q140 240 318 715q79 259 79 315q-3 24 -4 24v-4h21q-31 0 -210 -347q-143 -271 -314 -764q-32 -99 -54 -193q3 -5 3 -21l-3 -5q1 0 -10 0z" />
<glyph unicode="m" horiz-adv-x="1750" d="M-316 438q103 301 254 603q45 98 102 98q54 -12 54 -41v-12q0 -18 -78 -170q-46 -114 -46 -130v13q-3 0 -3 2q0 10 71 73q93 61 147 61h40q133 0 179 -174q-1 2 -11 2h-4q10 7 61 88q94 80 183 80q123 0 202 -141q38 -69 93 -116q129 -91 189 -91h12q168 0 319 150 q132 108 183 205q68 129 126 129h4q44 0 62 -58q-46 -124 -212 -308q-252 -240 -430 -240h-56q-173 0 -360 193q-98 155 -128 155h-8q-84 0 -157 -204q-68 -156 -97 -156l-20 -4q-78 0 -87 207q-20 157 -60 157q0 8 -3 8h-4q-94 0 -365 -391q-54 -57 -83 -57h-6 q-63 8 -63 69z" />
<glyph unicode="n" horiz-adv-x="1576" d="M-229 421q86 374 172 615q34 45 71 45q41 -17 52 -44v-33q-33 -95 -76 -283v-27q-2 15 -17 15h-5q24 20 157 195q125 149 264 149h16q158 0 212 -186q94 -310 140 -320q56 -54 152 -54h4q189 0 373 188q177 209 203 328q41 76 88 76h23q42 -25 42 -61v-7 q-48 -186 -255 -422q-161 -158 -256 -175q-144 -49 -230 -49q-251 0 -340 241q-88 271 -104 297q-19 20 -41 22h-19q-89 0 -185 -127q-58 -66 -304 -416q-37 -37 -63 -37h-8q-53 0 -66 70z" />
<glyph unicode="o" horiz-adv-x="1218" d="M-246 628v20q0 252 262 427q87 30 147 30q161 0 211 -119q18 -45 18 -90q0 -56 -16 -123q0 -12 19 -12h60q313 0 690 288q51 32 86 32h14q39 -20 39 -58q-5 -50 -175 -160q-344 -228 -732 -228q-27 4 -42 4q-20 0 -68 -74q-128 -154 -284 -154h-36q-136 0 -188 155 q-5 29 -5 62zM-124 646q0 -87 66 -115q11 -6 33 -6q100 0 201 141l2 12q0 3 -91 48q-85 53 -117 161l7 -4h-5q-29 -13 -88 -168q0 -3 -8 -69zM108 900q0 -48 83 -94q30 -17 44 -17h4q3 0 19 101q0 89 -70 89q-80 -8 -80 -79z" />
<glyph unicode="p" horiz-adv-x="1193" d="M-442 -608q0 285 193 896q108 338 124 427q67 171 67 277q0 38 94 61q8 0 100 54q78 30 159 30q188 0 327 -129l19 -3q6 0 151 55q124 25 343 37q109 -10 109 -77q0 -47 -59 -57q-55 0 -139 4q-198 0 -373 -96q-6 0 -13 -155q-78 -325 -275 -325q-167 22 -167 161 q0 109 119 250l141 116v14q0 18 -67 58q-51 25 -100 25h-4q-151 0 -208 -127q-7 -33 -7 -39q28 -296 28 -677q0 -391 -117 -768q-80 -223 -168 -258q-79 -51 -148 -51q-43 0 -89 71q-40 62 -40 226zM-304 -611q8 -164 32 -164q54 14 78 56q63 101 136 452l28 173 q0 -23 -8 -23q24 161 24 321v28q0 290 -18 351q4 0 -69 -278q-112 -330 -160 -594q-43 -180 -43 -322zM372 544q0 -27 22 -27q49 22 79 78q49 101 49 169v4q-61 -18 -122 -109q-28 -49 -28 -95v-20z" />
<glyph unicode="q" horiz-adv-x="1381" d="M-66 1029q0 129 198 284q107 69 247 69q132 0 242 -100q104 -47 281 -209q107 -67 201 -67h24q62 0 204 75l30 5h22q44 0 65 -48q0 -85 -248 -146q-65 -8 -97 -8q-169 0 -325 120q-1 0 4 0q-2 0 -2 -4q16 -77 16 -107q-4 -273 -16 -350q0 23 7 23q-43 -433 -96 -654 q-64 -306 -104 -443q-83 -246 -135 -262q-66 -59 -141 -59h-12q-131 0 -161 239q0 26 -4 105q0 24 16 123v22q0 173 121 678q79 335 144 513q11 54 11 73v4q0 -17 24 -17q-153 -100 -241 -100l-28 -4q-172 0 -234 161q-13 53 -13 84zM72 1015q4 -8 4 -43h5q20 -66 85 -66 q15 -4 33 -4q76 0 205 132q106 129 106 159q0 63 -144 79h-11q-151 0 -258 -178q-25 -60 -25 -79zM268 -452v-31q0 -201 41 -242q8 -9 26 -9q91 0 188 493q52 168 107 576q0 -23 -8 -23q28 175 28 201v24q0 29 -11 29l11 -23v166q0 30 12 157v27q0 56 -37 154l-4 1 q3 0 -66 -211q-159 -478 -159 -584q-72 -232 -128 -705z" />
<glyph unicode="r" horiz-adv-x="1149" d="M-71 1053l37 60q21 24 114 62q132 41 386 161h36q59 -10 59 -66q-18 -40 -107 -171q-133 -304 -133 -455q10 -172 103 -215q16 -9 28 -9h16q100 0 263 130q119 118 283 377q61 137 125 137q62 -17 62 -65v-12q-17 -56 -204 -330q-95 -157 -316 -307q-77 -43 -215 -60h-6 q-152 0 -250 190q-23 50 -23 151q0 190 98 405l26 83v20q0 -17 17 -17h-8q-45 0 -171 -54q-53 -20 -128 -85q-77 9 -92 70z" />
<glyph unicode="s" horiz-adv-x="751" d="M-306 284q0 214 325 495q19 17 19 25v4q0 11 -114 127q-128 151 -142 247q0 31 4 31q0 -27 -4 -19q0 84 57 173q69 86 157 86q208 -25 208 -197q0 -117 -132 -292v14q67 -75 67 -84q0 -1 -1 -1v19l39 -19q4 0 257 106q129 45 330 83q56 -16 56 -77q-37 -66 -122 -66 q-288 -67 -438 -169l59 -188l10 -55h6l-8 17l-4 -8l2 -3q-7 -60 4 -36h-2q-58 -226 -152 -284q-59 -68 -238 -102l-39 -19v4q25 12 -11 7q-67 9 -51 -2v5q-142 62 -142 178zM-164 266q8 -45 47 -45q116 0 245 131q50 71 50 194q-22 141 -53 141q-96 -48 -234 -234 q-55 -72 -55 -157v-30zM-80 1212q0 -64 75 -152l-2 1h-15q92 130 92 203q0 42 -73 55q-51 0 -77 -98v-9z" />
<glyph unicode="t" horiz-adv-x="1176" d="M-326 1765v8q0 24 64 53q8 0 57 -4q213 12 228 12h52q51 0 110 147q74 115 97 171q28 23 47 69q157 225 238 225h28q55 0 86 -98h2l-11 23q0 -139 -118 -465q-2 -3 -2 -5q0 2 16 1q130 0 671 160h29q72 -6 72 -65q0 -64 -251 -112q-411 -117 -534 -117q-72 0 -104 -123 q-100 -233 -267 -518q-96 -133 -96 -170v-14l9 -47q43 -130 195 -305q96 -73 199 -73h12q161 0 310 116q128 78 216 227q76 154 110 191q22 14 40 14h6q63 -13 63 -69q-30 -99 -181 -320q-127 -133 -216 -182q-173 -95 -316 -95h-64q-230 0 -364 209q-128 135 -180 398 q-5 16 -5 47h-11l11 -23v102q0 16 1 17q-1 1 -1 12q1 23 1 41q0 47 -8 47l11 -23q0 120 129 454q3 10 3 28v8q0 -8 -17 -5q-71 -4 -93 -8q-46 4 -81 4h-103q-90 21 -90 57zM52 1186q21 11 109 163q80 148 177 369v11q0 7 -3 7h-19q-100 -7 -100 -36q-152 -359 -152 -447 q0 -53 11 -53l-11 23v-14v-29q-1 6 -12 6zM288 1861q-2 5 11 5q94 0 109 40q55 136 117 363q1 -5 -2 -5h8q-198 -246 -243 -402v-1z" />
<glyph unicode="u" horiz-adv-x="1430" d="M-212 621q0 78 54 230q122 251 126 251q0 6 44 8h7q63 -13 63 -65v-28q-51 -154 -97 -196q-63 -113 -63 -204q0 -43 63 -43q189 0 519 298q10 25 62 53q76 72 164 173h41q59 -8 59 -61v-8q0 -33 -98 -133q-150 -183 -150 -323q0 -43 63 -43q189 0 519 298q10 25 62 53 q76 72 164 173h41q59 -8 59 -61v-8q0 -33 -98 -132q-49 -63 -131 -120q-368 -337 -620 -337q-193 0 -193 181q0 47 7 73q-260 -210 -470 -210q-197 0 -197 181z" />
<glyph unicode="v" horiz-adv-x="2237" d="M-67 959v25q20 39 57 39h26q108 -17 215 -172q92 -177 92 -248q11 -24 48 -286h-6q20 -202 25 -202h5q56 13 165 238q119 224 190 457q51 141 104 141h16q60 0 106 -132q46 -52 98 -52q92 -32 208 -32h20q207 0 549 149q351 191 365 191q22 4 41 4q62 -14 62 -65 q0 -62 -467 -271q-315 -122 -522 -122q-369 0 -444 97q-14 7 -12 7q-3 0 -40 -128q-219 -487 -288 -519q-76 -93 -164 -93h-16q-126 0 -141 255q-27 308 -59 406q-83 213 -163 254q-49 25 -70 59z" />
<glyph unicode="w" horiz-adv-x="1878" d="M-297 281q0 134 33 217q55 169 142 347q-1 -2 -1 -3q0 -9 233 269l-74 -40q69 -7 69 -57q0 -31 -26 -77l-27 -62q-38 -35 -121 -223q-98 -265 -98 -339q0 -66 50 -99h7q37 18 109 132q168 284 243 284q79 -13 79 -81q0 -59 -4 -160q0 -138 141 -195l43 -4h31 q44 0 123 124q43 69 108 310v5q0 20 -106 92q-62 47 -62 112v32q0 137 183 161q141 0 163 -177l4 -24q-4 -23 -4 -40q0 -39 19 -39h28q125 0 655 238q63 22 207 98q9 0 29 8q49 0 74 -42v-32q-4 -38 -152 -94q-640 -282 -736 -282q-152 -7 -152 -35q-84 -273 -136 -354 q-137 -179 -277 -179h-24q-134 0 -251 125q-23 29 -63 179l7 -7q-12 -8 -117 -171q-80 -102 -164 -102q-109 0 -165 103q-20 25 -20 82zM737 857q0 -42 54 -75q3 0 4 20v35q0 58 -32 71q-26 -16 -26 -35v-16z" />
<glyph unicode="x" horiz-adv-x="1765" d="M-72 982v9q0 68 167 89h30q137 0 352 -201q45 -77 65 -79h3q8 0 226 236q38 40 84 118q48 26 73 26q50 -12 50 -61q0 -46 -306 -360q-50 -67 -50 -72v-4q26 -83 213 -219q114 -64 234 -64h12q253 0 463 281q72 112 138 275q30 88 80 120h35q19 0 49 -41v-20 q0 -67 -107 -268q-85 -158 -165 -230q-250 -243 -505 -243h-20q-295 0 -491 244q-47 48 -57 48q-27 0 -272 -282q-43 -62 -88 -62h-4q-37 0 -53 36v17q0 43 271 321q65 72 65 81q-94 200 -314 282q-28 7 -38 7l-84 -20q-40 0 -56 36z" />
<glyph unicode="y" horiz-adv-x="974" d="M-309 -1021q5 97 16 135q0 -25 -6 -25q16 182 204 600q151 298 332 579l10 48q-8 188 -8 238q0 6 4 41q0 18 2 16q-4 -2 -114 -105q-63 -37 -131 -37q-116 0 -153 166v51q0 126 116 412q22 17 49 25q39 0 57 -44q0 -27 -88 -329q0 25 6 25q-7 -84 -10 -93q0 -76 44 -95 q11 0 15 -3q62 13 206 239q54 100 102 100h10q59 -8 59 -61v-6q-36 -206 -36 -286v-68q0 -25 6 -35h-12q13 2 126 135q307 362 458 452q29 5 48 5q50 -12 50 -49q0 -43 -90 -100q-143 -115 -316 -320q-254 -289 -254 -356q0 -102 20 -351q0 -178 -65 -574 q-63 -229 -138 -368q-83 -130 -183 -181q-77 -39 -135 -39h-24q-177 0 -177 258zM-171 -1021q11 -140 51 -140h20q218 0 339 605q0 -23 -8 -23l32 215q0 -23 -8 -23q24 177 24 257q0 211 -7 211q-5 0 -54 -91q-187 -304 -311 -633q-78 -214 -78 -378z" />
<glyph unicode="z" horiz-adv-x="786" d="M-431 90v20q0 114 145 323q77 90 164 208q89 115 218 238l49 56v-7q-9 6 -109 26q-71 20 -71 60q0 53 71 65h20l184 -24h-1q82 21 82 71v40q0 28 -180 47h-1l-15 -7q-13 7 -15 7h-32q-20 0 -41 34v27q39 56 150 57q280 -29 280 -137v-19l-28 -100v1q0 -1 -13 -1h4 q107 0 366 154q32 10 46 10h12q20 0 41 -34v-36q-26 -60 -319 -186q-53 -21 -251 -57q-113 -47 -400 -408q-218 -267 -218 -392v-40q0 -97 90 -120q98 -35 141 -35q24 0 60 4q46 -4 80 -4q229 0 560 255q99 81 144 81h8q18 0 45 -37v-31q-28 -50 -202 -162q-6 0 -80 -55 q-101 -78 -348 -164q-79 -21 -147 -21h-100q-210 0 -330 99q-48 58 -51 97q0 11 7 42q-15 33 -15 55z" />
<glyph unicode="{" horiz-adv-x="616" d="M-25 1428q0 40 152 118q81 55 113 164q19 85 39 330q46 210 89 259q72 114 215 114q66 -15 66 -49v-4q0 -61 -96 -61q-51 -20 -79 -70q-61 -132 -61 -258q-29 -305 -63 -378q-48 -90 -145 -152q-4 -5 -4 -9q0 6 80 -70q72 -68 72 -302v-72q0 -72 -40 -382v-98 q0 -143 100 -185l138 -50q18 -22 18 -37q0 -61 -89 -61q-159 0 -269 164q-44 75 -44 178q40 418 40 475v104q0 191 -73 229q-114 40 -134 51q-25 30 -25 52z" />
<glyph unicode="|" horiz-adv-x="274" d="M-25 64q4 191 16 382l-4 20l88 1311q0 348 57 348q2 0 13 6q68 -23 68 -83v-269q-24 -396 -72 -1041q-28 -542 -28 -706q-20 -57 -72 -57q-66 14 -66 89z" />
<glyph unicode="}" horiz-adv-x="484" d="M-145 232q0 69 117 69q50 0 114 36q69 53 69 228q25 601 60 673q0 25 76 157v-6q-11 19 -61 78q-23 61 -23 107q52 279 52 322v44q0 145 -72 290q-21 26 -68 55q-24 29 -24 62q33 30 53 30q64 0 143 -68q51 -70 85 -203q21 -79 21 -154v-44q0 -29 11 -29l-11 23 q0 -71 -44 -336v-18q0 -36 91 -93q25 -27 25 -55q0 -29 -77 -112q-71 -106 -71 -313h-4q0 46 5 46q-29 -686 -61 -686q0 -25 -100 -104q-76 -35 -223 -56h-8q-75 13 -75 57z" />
<glyph unicode="~" horiz-adv-x="835" d="M-25 1145q21 48 61 48q25 0 132 -87q43 -13 58 -13q43 7 255 75q36 9 83 9q163 0 214 -101q-9 -69 -62 -69h-8q-22 0 -112 41q-15 3 -32 3h-16q-34 0 -242 -67q-44 -9 -78 -9h-32q-104 0 -199 100q-22 27 -22 70z" />
<glyph unicode="&#xa1;" horiz-adv-x="672" />
<glyph unicode="&#xa2;" horiz-adv-x="635" d="M4 803q0 138 151 306q28 25 154 96q31 17 31 47q61 157 121 440q31 52 72 52q55 0 65 -74q-104 -420 -104 -435q0 -12 93 -74q43 -63 43 -90v-8q0 -53 -53 -53h-8q-39 0 -87 72q-21 16 -37 16h-8q-143 0 -258 -179q-37 -78 -37 -116v-20q0 -75 65 -113l22 -6q29 0 104 70 l30 6h12q67 -12 67 -65v-18l-40 -321q-8 -103 -8 -229v-60q0 -97 -73 -97h-4q-73 0 -73 121q0 114 36 433q0 30 -25 30q-111 18 -167 67q-84 85 -84 202z" />
<glyph unicode="&#xa3;" horiz-adv-x="881" />
<glyph unicode="&#xa4;" />
<glyph unicode="&#xa5;" horiz-adv-x="2660" />
<glyph unicode="&#xa6;" horiz-adv-x="2884" />
<glyph unicode="&#xa7;" />
<glyph unicode="&#xa8;" horiz-adv-x="1024" />
<glyph unicode="&#xa9;" horiz-adv-x="1674" />
<glyph unicode="&#xaa;" horiz-adv-x="648" />
<glyph unicode="&#xab;" horiz-adv-x="944" />
<glyph unicode="&#xac;" />
<glyph unicode="&#xad;" horiz-adv-x="756" d="M61 1060v8q0 41 88 45h117q72 0 148 -4q102 8 204 8q63 0 69 -72q0 -70 -149 -70q-453 10 -453 36q-24 16 -24 49z" />
<glyph unicode="&#xae;" horiz-adv-x="1674" />
<glyph unicode="&#xaf;" horiz-adv-x="670" />
<glyph unicode="&#xb0;" horiz-adv-x="674" />
<glyph unicode="&#xb1;" />
<glyph unicode="&#xb2;" />
<glyph unicode="&#xb3;" />
<glyph unicode="&#xb4;" horiz-adv-x="1024" />
<glyph unicode="&#xb5;" horiz-adv-x="1180" />
<glyph unicode="&#xb6;" horiz-adv-x="1024" />
<glyph unicode="&#xb7;" horiz-adv-x="508" />
<glyph unicode="&#xb8;" horiz-adv-x="1024" />
<glyph unicode="&#xb9;" />
<glyph unicode="&#xba;" horiz-adv-x="718" />
<glyph unicode="&#xbb;" horiz-adv-x="944" />
<glyph unicode="&#xbc;" horiz-adv-x="1708" />
<glyph unicode="&#xbd;" horiz-adv-x="1964" />
<glyph unicode="&#xbe;" horiz-adv-x="1708" />
<glyph unicode="&#xbf;" horiz-adv-x="748" />
<glyph unicode="&#xc0;" horiz-adv-x="1043" />
<glyph unicode="&#xc1;" horiz-adv-x="1540" />
<glyph unicode="&#xc2;" horiz-adv-x="1540" />
<glyph unicode="&#xc3;" horiz-adv-x="1540" />
<glyph unicode="&#xc4;" horiz-adv-x="1540" />
<glyph unicode="&#xc5;" horiz-adv-x="1540" />
<glyph unicode="&#xc6;" horiz-adv-x="2118" />
<glyph unicode="&#xc7;" horiz-adv-x="1399" />
<glyph unicode="&#xc8;" horiz-adv-x="1151" />
<glyph unicode="&#xc9;" horiz-adv-x="1151" />
<glyph unicode="&#xca;" horiz-adv-x="1151" />
<glyph unicode="&#xcb;" horiz-adv-x="1151" />
<glyph unicode="&#xcc;" horiz-adv-x="657" />
<glyph unicode="&#xcd;" horiz-adv-x="657" />
<glyph unicode="&#xce;" horiz-adv-x="657" />
<glyph unicode="&#xcf;" horiz-adv-x="657" />
<glyph unicode="&#xd0;" horiz-adv-x="1518" />
<glyph unicode="&#xd1;" horiz-adv-x="1554" />
<glyph unicode="&#xd2;" horiz-adv-x="1614" />
<glyph unicode="&#xd3;" horiz-adv-x="1614" />
<glyph unicode="&#xd4;" horiz-adv-x="1614" />
<glyph unicode="&#xd5;" horiz-adv-x="1614" />
<glyph unicode="&#xd6;" horiz-adv-x="1614" />
<glyph unicode="&#xd7;" />
<glyph unicode="&#xd8;" horiz-adv-x="1614" />
<glyph unicode="&#xd9;" horiz-adv-x="1501" />
<glyph unicode="&#xda;" horiz-adv-x="1501" />
<glyph unicode="&#xdb;" horiz-adv-x="1501" />
<glyph unicode="&#xdc;" horiz-adv-x="1501" />
<glyph unicode="&#xdd;" horiz-adv-x="1233" />
<glyph unicode="&#xde;" horiz-adv-x="1120" />
<glyph unicode="&#xdf;" horiz-adv-x="1251" />
<glyph unicode="&#xe0;" horiz-adv-x="922" />
<glyph unicode="&#xe1;" horiz-adv-x="922" />
<glyph unicode="&#xe2;" horiz-adv-x="922" />
<glyph unicode="&#xe3;" horiz-adv-x="922" />
<glyph unicode="&#xe4;" horiz-adv-x="922" />
<glyph unicode="&#xe5;" horiz-adv-x="922" />
<glyph unicode="&#xe6;" horiz-adv-x="1454" />
<glyph unicode="&#xe7;" horiz-adv-x="905" />
<glyph unicode="&#xe8;" horiz-adv-x="909" />
<glyph unicode="&#xe9;" horiz-adv-x="909" />
<glyph unicode="&#xea;" horiz-adv-x="909" />
<glyph unicode="&#xeb;" horiz-adv-x="909" />
<glyph unicode="&#xec;" horiz-adv-x="514" />
<glyph unicode="&#xed;" horiz-adv-x="514" />
<glyph unicode="&#xee;" horiz-adv-x="514" />
<glyph unicode="&#xef;" horiz-adv-x="514" />
<glyph unicode="&#xf0;" horiz-adv-x="1139" />
<glyph unicode="&#xf1;" horiz-adv-x="1108" />
<glyph unicode="&#xf2;" horiz-adv-x="1010" />
<glyph unicode="&#xf3;" horiz-adv-x="1010" />
<glyph unicode="&#xf4;" horiz-adv-x="1010" />
<glyph unicode="&#xf5;" horiz-adv-x="1010" />
<glyph unicode="&#xf6;" horiz-adv-x="1010" />
<glyph unicode="&#xf7;" />
<glyph unicode="&#xf8;" horiz-adv-x="1010" />
<glyph unicode="&#xf9;" horiz-adv-x="1059" />
<glyph unicode="&#xfa;" horiz-adv-x="1059" />
<glyph unicode="&#xfb;" horiz-adv-x="1059" />
<glyph unicode="&#xfc;" horiz-adv-x="1059" />
<glyph unicode="&#xfd;" horiz-adv-x="868" />
<glyph unicode="&#xfe;" horiz-adv-x="1010" />
<glyph unicode="&#xff;" horiz-adv-x="868" />
<glyph unicode="&#x2c6;" horiz-adv-x="1024" />
<glyph unicode="&#x2dc;" horiz-adv-x="1024" />
<glyph unicode="&#x2000;" horiz-adv-x="1516" />
<glyph unicode="&#x2001;" horiz-adv-x="3032" />
<glyph unicode="&#x2002;" horiz-adv-x="1516" />
<glyph unicode="&#x2003;" horiz-adv-x="3032" />
<glyph unicode="&#x2004;" horiz-adv-x="1010" />
<glyph unicode="&#x2005;" horiz-adv-x="758" />
<glyph unicode="&#x2006;" horiz-adv-x="505" />
<glyph unicode="&#x2007;" horiz-adv-x="505" />
<glyph unicode="&#x2008;" horiz-adv-x="379" />
<glyph unicode="&#x2009;" horiz-adv-x="606" />
<glyph unicode="&#x200a;" horiz-adv-x="168" />
<glyph unicode="&#x2010;" horiz-adv-x="756" d="M61 1060v8q0 41 88 45h117q72 0 148 -4q102 8 204 8q63 0 69 -72q0 -70 -149 -70q-453 10 -453 36q-24 16 -24 49z" />
<glyph unicode="&#x2011;" horiz-adv-x="756" d="M61 1060v8q0 41 88 45h117q72 0 148 -4q102 8 204 8q63 0 69 -72q0 -70 -149 -70q-453 10 -453 36q-24 16 -24 49z" />
<glyph unicode="&#x2012;" horiz-adv-x="756" d="M61 1060v8q0 41 88 45h117q72 0 148 -4q102 8 204 8q63 0 69 -72q0 -70 -149 -70q-453 10 -453 36q-24 16 -24 49z" />
<glyph unicode="&#x2013;" horiz-adv-x="1108" />
<glyph unicode="&#x2014;" horiz-adv-x="2048" />
<glyph unicode="&#x2018;" horiz-adv-x="248" d="M15 1450v6q0 48 88 279l40 34q26 0 68 -50q-47 -232 -83 -319q-34 -25 -48 -25q-52 0 -65 75z" />
<glyph unicode="&#x2019;" horiz-adv-x="248" d="M15 1450v6q0 48 88 279l40 34q26 0 68 -50q-47 -232 -83 -319q-34 -25 -48 -25q-52 0 -65 75z" />
<glyph unicode="&#x201a;" horiz-adv-x="557" />
<glyph unicode="&#x201c;" horiz-adv-x="578" d="M75 1390q107 330 140 379l35 18q34 0 69 -57q-15 -62 -103 -330q-23 -111 -76 -111h-17q-48 38 -48 101zM307 1319v27q0 41 114 333q37 104 87 104h12q27 0 46 -57q-128 -412 -158 -447q-22 -14 -40 -14q-27 0 -61 54z" />
<glyph unicode="&#x201d;" horiz-adv-x="578" d="M75 1390q107 330 140 379l35 18q34 0 69 -57q-15 -62 -103 -330q-23 -111 -76 -111h-17q-48 38 -48 101zM307 1319v27q0 41 114 333q37 104 87 104h12q27 0 46 -57q-128 -412 -158 -447q-22 -14 -40 -14q-27 0 -61 54z" />
<glyph unicode="&#x201e;" horiz-adv-x="910" />
<glyph unicode="&#x2022;" horiz-adv-x="1024" />
<glyph unicode="&#x2026;" horiz-adv-x="2048" />
<glyph unicode="&#x202f;" horiz-adv-x="606" />
<glyph unicode="&#x2039;" horiz-adv-x="631" />
<glyph unicode="&#x203a;" horiz-adv-x="631" />
<glyph unicode="&#x205f;" horiz-adv-x="758" />
<glyph unicode="&#x20ac;" />
<glyph unicode="&#x2122;" horiz-adv-x="1497" />
<glyph unicode="&#x25fc;" horiz-adv-x="1180" d="M0 0v1180h1180v-1180h-1180z" />
</font>
</defs>
</svg>
